<svg width="54" height="54" viewBox="0 0 54 54" fill="none" xmlns="http://www.w3.org/2000/svg">
<rect x="1" y="1" width="52" height="52" rx="26" stroke="#3F8044" stroke-width="2"/>
<rect x="3" y="3" width="48" height="48" rx="24" fill="#902B29"/>
<rect x="3" y="3" width="48" height="48" rx="24" stroke="#D9D9D9" stroke-width="2"/>
<path fill-rule="evenodd" clip-rule="evenodd" d="M29.0672 29.3694L40.9668 29.3626C41.5983 29.3623 42.204 29.1111 42.6507 28.6643C43.0975 28.2176 43.3487 27.6119 43.349 26.9804C43.3494 26.349 43.0989 25.7436 42.6527 25.2973C42.2064 24.8511 41.601 24.6006 40.9696 24.601L29.0677 24.61L29.0756 12.7092C29.0757 12.3966 29.0142 12.0872 28.8947 11.7985C28.7752 11.5098 28.5999 11.2475 28.379 11.0267C28.158 10.8058 27.8957 10.6307 27.6069 10.5113C27.3182 10.3919 27.0087 10.3306 26.6961 10.3309C26.3835 10.3311 26.074 10.3929 25.7852 10.5128C25.4963 10.6327 25.2339 10.8082 25.0128 11.0294C24.7917 11.2506 24.6163 11.5131 24.4965 11.802C24.3768 12.0909 24.3152 12.4005 24.3151 12.7131L24.3094 24.6116L12.4097 24.6184C12.0938 24.6129 11.7798 24.6704 11.4861 24.7876C11.1925 24.9048 10.925 25.0792 10.6994 25.3007C10.4738 25.5223 10.2945 25.7865 10.172 26.0779C10.0495 26.3694 9.98618 26.6823 9.98586 26.9983C9.98553 27.3143 10.0481 27.6272 10.17 27.9187C10.2919 28.2101 10.4707 28.4743 10.6959 28.6958C10.921 28.9173 11.1881 29.0916 11.4815 29.2087C11.7749 29.3258 12.0888 29.3833 12.4048 29.3778L24.3078 29.3699L24.301 41.2718C24.2955 41.5878 24.353 41.9016 24.4701 42.195C24.5871 42.4884 24.7615 42.7555 24.983 42.9807C25.2045 43.2058 25.4687 43.3846 25.7601 43.5065C26.0516 43.6284 26.3644 43.691 26.6805 43.6907C26.9965 43.6904 27.3094 43.6271 27.6008 43.5046C27.8923 43.3821 28.1565 43.2028 28.3781 42.9771C28.5996 42.7515 28.774 42.4841 28.8912 42.1904C29.0084 41.8968 29.0659 41.5828 29.0604 41.2668L29.0672 29.3694Z" fill="white"/>
</svg>
