<svg width="34" height="34" viewBox="0 0 34 34" fill="none" xmlns="http://www.w3.org/2000/svg">
<rect x="1" y="1" width="32" height="32" rx="16" stroke="#2C2C2C" stroke-width="2"/>
<rect x="3" y="3" width="28" height="28" rx="14" fill="#3F8044"/>
<rect x="3" y="3" width="28" height="28" rx="14" stroke="#D9D9D9" stroke-width="2"/>
<path fill-rule="evenodd" clip-rule="evenodd" d="M17.4764 26.8673L17.4676 26.8689L17.4108 26.8969L17.3948 26.9001L17.3836 26.8969L17.3268 26.8689C17.3183 26.8663 17.3119 26.8676 17.3076 26.8729L17.3044 26.8809L17.2908 27.2233L17.2948 27.2393L17.3028 27.2497L17.386 27.3089L17.398 27.3121L17.4076 27.3089L17.4908 27.2497L17.5004 27.2369L17.5036 27.2233L17.49 26.8817C17.4879 26.8732 17.4833 26.8684 17.4764 26.8673ZM17.6884 26.777L17.678 26.7786L17.53 26.853L17.522 26.861L17.5196 26.8697L17.534 27.2137L17.538 27.2233L17.5444 27.2289L17.7052 27.3033C17.7153 27.306 17.723 27.3038 17.7284 27.2969L17.7316 27.2857L17.7044 26.7946C17.7017 26.785 17.6964 26.7791 17.6884 26.777ZM17.1165 26.7786C17.1129 26.7764 17.1087 26.7757 17.1047 26.7766C17.1007 26.7775 17.0972 26.7799 17.0949 26.7834L17.0901 26.7946L17.0629 27.2857C17.0634 27.2953 17.0679 27.3017 17.0765 27.3049L17.0885 27.3033L17.2492 27.2289L17.2572 27.2225L17.2604 27.2137L17.274 26.8697L17.2716 26.8602L17.2636 26.8522L17.1165 26.7786Z" fill="#FFF7D9"/>
<path fill-rule="evenodd" clip-rule="evenodd" d="M24.6378 12.3517C24.8628 12.5767 24.9891 12.8818 24.9891 13.2C24.9891 13.5181 24.8628 13.8233 24.6378 14.0483L15.6446 23.0414C15.5258 23.1603 15.3847 23.2546 15.2294 23.3189C15.0741 23.3833 14.9077 23.4164 14.7396 23.4164C14.5715 23.4164 14.405 23.3833 14.2497 23.3189C14.0944 23.2546 13.9533 23.1603 13.8345 23.0414L9.3663 18.574C9.2517 18.4634 9.16029 18.331 9.09741 18.1846C9.03453 18.0382 9.00143 17.8808 9.00005 17.7214C8.99866 17.5621 9.02902 17.4041 9.08935 17.2567C9.14968 17.1092 9.23877 16.9753 9.35142 16.8626C9.46408 16.75 9.59804 16.6609 9.7455 16.6005C9.89296 16.5402 10.0509 16.5098 10.2103 16.5112C10.3696 16.5126 10.527 16.5457 10.6734 16.6086C10.8198 16.6715 10.9522 16.7629 11.0629 16.8775L14.7392 20.5538L22.9404 12.3517C23.0519 12.2402 23.1842 12.1518 23.3298 12.0914C23.4754 12.0311 23.6315 12 23.7891 12C23.9468 12 24.1028 12.0311 24.2485 12.0914C24.3941 12.1518 24.5264 12.2402 24.6378 12.3517Z" fill="#FFF7D9"/>
</svg>
