<svg width="79" height="49" viewBox="0 0 79 49" fill="none" xmlns="http://www.w3.org/2000/svg">
<path d="M13.0506 31.4021C13.0506 30.3658 13.0608 27.596 13.0377 27.2547C13.0579 23.1331 10.3487 20.2257 8.63712 20.4523C7.45279 20.566 6.46024 21.1002 5.9273 22.6369C5.43335 24.069 5.87496 25.974 7.51721 26.421C9.27326 26.901 10.2987 27.3004 11.0407 27.8639C11.95 28.5537 12.6923 29.8717 12.712 31.4037" fill="#0060AF"/>
<path d="M13.752 37.667C10.6556 37.667 7.47347 36.8234 4.29555 35.155L4.21757 35.1126L4.18028 35.0247C2.75417 31.6948 2 28.0528 2 24.4896C2 20.9317 2.72323 17.4455 4.1504 14.1202L4.1896 14.0318L4.26907 13.9877C7.2088 12.4473 10.3713 11.667 13.6714 11.667C16.7457 11.667 20.029 12.5357 23.1647 14.1835L23.2453 14.2231L23.2823 14.3131C24.7358 17.7043 25.5022 21.3454 25.5022 24.8496C25.5022 28.3402 24.7663 31.8294 23.3111 35.2185L23.2728 35.3076L23.1918 35.3488C20.297 36.8647 17.0324 37.667 13.752 37.667ZM4.58968 34.6984C7.6769 36.3047 10.7559 37.1159 13.752 37.1159C16.9288 37.1159 20.0883 36.3478 22.9007 34.8918C24.2978 31.6077 25.006 28.2277 25.006 24.8496C25.006 21.4579 24.2668 17.9298 22.8687 14.6384C19.8255 13.056 16.6474 12.2169 13.6714 12.2169C10.4764 12.2169 7.41393 12.9665 4.56298 14.4453C3.1945 17.6684 2.49797 21.0458 2.49797 24.4896C2.49797 27.9398 3.22184 31.4694 4.58968 34.6984Z" fill="#0060AF"/>
<path d="M12.3176 31.4035C12.3233 30.0752 11.6531 28.9006 10.7771 28.2694C10 27.7115 8.95681 27.3449 7.27387 26.8729C6.75365 26.7257 6.20948 26.3987 6.04102 25.9819C5.59538 26.4786 5.51443 27.5953 5.59284 28.2478C5.68396 29.003 6.48178 30.2477 7.68306 30.2964C8.41667 30.329 9.34417 30.1218 9.78896 30.0173C10.5563 29.834 11.7703 30.3656 11.9635 31.4018" fill="#0060AF"/>
<path d="M13.6708 14.0283C11.634 14.0283 9.87452 15.5141 9.88088 18.0852C9.88724 20.2473 11.4591 21.4047 12.02 22.2314C12.8677 23.4772 13.3264 24.9518 13.3741 27.2081C13.4112 29.0038 13.4093 30.777 13.4176 31.4054H13.8672C13.8594 30.7479 13.839 28.8655 13.8623 27.1525C13.8928 24.8956 14.3681 23.4772 15.2162 22.2314C15.782 21.4047 17.3526 20.2473 17.356 18.0852C17.3636 15.5141 15.6052 14.0283 13.5701 14.0283" fill="#0060AF"/>
<path d="M14.188 31.4021C14.188 30.3658 14.1774 27.596 14.2001 27.2547C14.1802 23.1331 16.8877 20.2257 18.6007 20.4523C19.785 20.566 20.7765 21.1002 21.311 22.6369C21.8045 24.069 21.3603 25.974 19.72 26.421C17.9631 26.901 16.939 27.3004 16.195 27.8639C15.2867 28.5537 14.5964 29.8717 14.5752 31.4037" fill="#0060AF"/>
<path d="M14.9219 31.4035C14.9156 30.0752 15.5856 28.9006 16.4591 28.2694C17.2393 27.7115 18.2838 27.3449 19.9652 26.8729C20.4865 26.7257 21.03 26.3987 21.1955 25.9819C21.6433 26.4786 21.724 27.5953 21.6456 28.2478C21.5526 29.003 20.7569 30.2477 19.5577 30.2964C18.8243 30.329 17.892 30.1218 17.4491 30.0173C16.6847 29.834 15.4674 30.3656 15.2733 31.4018" fill="#0060AF"/>
<path d="M15.5497 35.6922L15.2891 33.5885L15.9182 33.483C16.0714 33.4598 16.2579 33.4893 16.3325 33.5955C16.4149 33.7064 16.4401 33.798 16.456 33.9434C16.4797 34.1231 16.4327 34.331 16.2496 34.4346V34.441C16.4541 34.441 16.5776 34.6034 16.6135 34.8776C16.6188 34.9355 16.6342 35.0755 16.6188 35.1922C16.5772 35.4699 16.4274 35.5593 16.1746 35.5984L15.5497 35.6922ZM15.9547 35.3155C16.0292 35.3037 16.1049 35.2993 16.164 35.2576C16.2545 35.1922 16.2462 35.0523 16.2337 34.9484C16.2022 34.7201 16.1483 34.6334 15.9294 34.6693L15.7919 34.6927L15.879 35.3272L15.9547 35.3155ZM15.8228 34.3435C15.9061 34.3285 16.0191 34.3174 16.0661 34.23C16.0907 34.1717 16.1223 34.1252 16.1015 33.9954C16.0759 33.8414 16.0297 33.746 15.8529 33.783L15.6883 33.8123L15.7531 34.3514" fill="#0060AF"/>
<path d="M18.2747 34.4262C18.2796 34.4654 18.2853 34.509 18.2874 34.5481C18.3383 34.9318 18.2747 35.2494 17.8848 35.3369C17.3084 35.4597 17.198 35.0635 17.0965 34.509L17.0425 34.209C16.963 33.6783 16.9289 33.2765 17.4909 33.1528C17.8077 33.0888 18.017 33.2282 18.1041 33.577C18.1177 33.629 18.1346 33.6806 18.141 33.7329L17.7962 33.8117C17.7564 33.6806 17.7036 33.4465 17.5485 33.4662C17.2701 33.5032 17.362 33.8864 17.3906 34.0465L17.4943 34.6224C17.5254 34.7966 17.5873 35.0748 17.8282 35.0211C18.0238 34.9778 17.9386 34.6407 17.9212 34.5027" fill="#0060AF"/>
<path d="M18.8283 35.0629L18.709 32.8858L19.1722 32.7295L20.1434 34.6229L19.7787 34.7436L19.5485 34.2624L19.1436 34.397L19.1959 34.944L18.8283 35.0629ZM19.1097 34.0454L19.4023 33.9516L19.0137 33.0708" fill="#0060AF"/>
<path d="M7.38726 33.417C7.53221 32.9037 7.6621 32.5258 8.21517 32.6937C8.5112 32.7851 8.69471 32.9295 8.68602 33.3099C8.68459 33.3945 8.65932 33.4808 8.64279 33.5644L8.29845 33.4592C8.34358 33.2492 8.37219 33.0825 8.13825 33.0028C7.86786 32.9208 7.80196 33.2834 7.76466 33.44L7.6246 34.0107C7.5801 34.1802 7.5267 34.4603 7.76466 34.5325C7.96131 34.5911 8.08061 34.3776 8.15181 34.0658L7.91088 33.9953L7.99416 33.665L8.56058 33.8666L8.29167 34.9666L8.03103 34.8883L8.08972 34.6558H8.0823C7.96237 34.8459 7.81594 34.8658 7.68774 34.8386C7.12132 34.6691 7.18044 34.2597 7.31564 33.7126" fill="#0060AF"/>
<path d="M9.49596 34.3462L9.32538 35.2411L8.94141 35.1492L9.35059 33.0596L10.0052 33.2232C10.3883 33.3146 10.504 33.5033 10.4497 33.8917C10.4188 34.1146 10.3194 34.3548 10.0768 34.3354L10.0742 34.3317C10.2794 34.4112 10.2967 34.5256 10.2609 34.7234C10.2455 34.8076 10.1389 35.3183 10.2124 35.4008L10.2149 35.4634L9.81763 35.3488C9.8011 35.2072 9.85725 34.9527 9.8795 34.8118C9.90196 34.6871 9.93778 34.5113 9.82335 34.4452C9.73371 34.3924 9.70044 34.395 9.59916 34.3692L9.49596 34.3462ZM9.56144 34.0225L9.81996 34.0996C9.97698 34.1247 10.0643 34.0347 10.0952 33.8249C10.1232 33.6324 10.087 33.5572 9.94604 33.5199L9.66887 33.4578" fill="#0060AF"/>
<path d="M11.9582 33.5264L12.3379 33.5751L12.1743 35.0441C12.0948 35.5098 11.9321 35.7135 11.4689 35.6498C10.9976 35.5839 10.8857 35.3465 10.9143 34.877L11.079 33.4092L11.4617 33.4577L11.2974 34.8927C11.2801 35.0485 11.2474 35.2794 11.4981 35.3073C11.7204 35.3261 11.7708 35.1632 11.7958 34.9606" fill="#0060AF"/>
<path d="M12.7578 35.7305L12.872 33.6299L13.6016 33.6648C13.9464 33.6836 14.0367 33.9951 14.0258 34.2923C14.0159 34.473 13.9648 34.6748 13.8224 34.7843C13.7057 34.8773 13.5556 34.8994 13.4164 34.8919L13.1787 34.8773L13.1312 35.7577L12.7578 35.7305ZM13.1895 34.5569L13.3827 34.5689C13.5397 34.5752 13.6438 34.5065 13.6573 34.2515C13.665 34.0066 13.5813 33.9651 13.3778 33.9552L13.2246 33.9494" fill="#0060AF"/>
<path d="M64.2134 16.0587L61.3137 21.8804C60.2193 20.8973 58.8828 20.1738 57.1776 20.1738C53.1423 20.1738 51.5032 23.501 51.5032 25.8447C51.5032 27.5844 52.5331 30.1512 56.1236 30.1512C57.6306 30.1512 59.7732 28.9915 60.3898 28.4638L57.5219 35.2179C56.1549 35.5196 55.7059 35.7066 54.5487 35.7463C48.1223 35.9584 45.5254 31.5916 45.5273 27.1294C45.5316 21.2306 50.2729 14.0568 58.1329 14.0568C58.6145 14.0568 59.2036 14.241 59.7073 14.4452L60.2163 13.7251" fill="#0060AF"/>
<path d="M76.1797 13.9072L77.0008 35.0665H70.8899L70.8863 31.4376H66.7194L65.348 35.0665H58.7207L65.6493 19.957L64.087 19.9457L67.0555 13.9072H76.1797ZM70.8467 20.3803L68.4907 26.5348H70.9177" fill="#0060AF"/>
<path d="M41.671 13.9077C44.6972 13.9265 46.4073 15.7435 46.4073 18.3683C46.4073 20.7879 44.6038 22.9298 42.6239 24.0374C44.6622 24.8662 44.8385 26.9007 44.8385 28.3401C44.8385 31.8176 41.6839 35.067 37.5834 35.067H28.6406L32.129 20.168L30.6961 20.1588L33.6252 13.9077C33.6252 13.9077 39.2102 13.889 41.671 13.9077ZM38.702 22.4866C39.328 22.4866 40.4333 22.3113 40.7096 20.9712C41.0124 19.5166 39.9751 19.4774 39.4776 19.4774L37.6997 19.4688L37.0797 22.4867L38.702 22.4866ZM36.1884 26.2257L35.3698 29.7031H37.4632C38.2869 29.7031 39.4094 29.251 39.6844 28.1193C39.9561 26.9844 39.1714 26.2257 38.3507 26.2257" fill="#0060AF"/>
</svg>
