<svg width="54" height="54" viewBox="0 0 54 54" fill="none" xmlns="http://www.w3.org/2000/svg">
<rect x="1" y="1" width="52" height="52" rx="26" stroke="#3F8044" stroke-width="2"/>
<rect x="3" y="3" width="48" height="48" rx="24" fill="#902B29"/>
<rect x="3" y="3" width="48" height="48" rx="24" stroke="#D9D9D9" stroke-width="2"/>
<path fill-rule="evenodd" clip-rule="evenodd" d="M26.5142 30.3651L34.9334 38.7746C35.3801 39.2208 35.986 39.4715 36.6178 39.4715C37.2496 39.4715 37.8555 39.2208 38.3023 38.7746C38.749 38.3284 39 37.7231 39 37.0921C39 36.461 38.749 35.8558 38.3023 35.4095L29.88 27L38.3007 18.5905C38.5218 18.3695 38.6972 18.1072 38.8168 17.8186C38.9364 17.5299 38.9979 17.2206 38.9979 16.9082C38.9978 16.5958 38.9361 16.2864 38.8163 15.9978C38.6966 15.7093 38.5211 15.447 38.2999 15.2262C38.0787 15.0053 37.8161 14.8302 37.5271 14.7107C37.2381 14.5912 36.9284 14.5298 36.6157 14.5298C36.3029 14.5299 35.9932 14.5915 35.7043 14.7111C35.4154 14.8307 35.1529 15.006 34.9318 15.227L26.5142 23.6365L18.0951 15.227C17.8755 14.9997 17.6129 14.8184 17.3224 14.6936C17.0319 14.5688 16.7194 14.503 16.4032 14.5001C16.087 14.4972 15.7734 14.5572 15.4807 14.6767C15.188 14.7962 14.922 14.9727 14.6983 15.1959C14.4746 15.4192 14.2976 15.6847 14.1778 15.9769C14.0579 16.2692 13.9975 16.5824 14.0001 16.8982C14.0027 17.2141 14.0682 17.5263 14.1929 17.8165C14.3176 18.1068 14.4989 18.3694 14.7262 18.5889L23.1485 27L14.7278 35.4111C14.5004 35.6306 14.3191 35.8932 14.1945 36.1835C14.0698 36.4737 14.0043 36.7859 14.0017 37.1017C13.9991 37.4176 14.0595 37.7308 14.1794 38.0231C14.2992 38.3153 14.4762 38.5808 14.6999 38.8041C14.9236 39.0273 15.1896 39.2038 15.4823 39.3233C15.775 39.4428 16.0886 39.5028 16.4048 39.4999C16.721 39.497 17.0335 39.4312 17.324 39.3064C17.6144 39.1816 17.8771 39.0003 18.0967 38.773L26.5142 30.3651Z" fill="white"/>
</svg>
