<svg width="98" height="114" viewBox="0 0 98 114" fill="none" xmlns="http://www.w3.org/2000/svg">
<rect x="1" y="-1" width="29" height="29" rx="14.5" transform="matrix(1 0 0 -1 37.391 29.7209)" stroke="#902B29" stroke-width="2"/>
<rect x="-1" y="1" width="25" height="25" rx="12.5" transform="matrix(1 0 0 -1 41.391 29.7209)" stroke="white" stroke-width="2"/>
<rect x="1" y="-1" width="21" height="21" rx="10.5" transform="matrix(1 0 0 -1 41.391 25.7209)" stroke="#902B29" stroke-width="2"/>
<rect x="1" y="-1" width="17" height="17" rx="8.5" transform="matrix(1 0 0 -1 43.391 23.7209)" stroke="white" stroke-width="2"/>
<rect x="-1" y="1" width="13" height="13" rx="6.5" transform="matrix(1 0 0 -1 47.391 23.7209)" stroke="#902B29" stroke-width="2"/>
<rect x="1" y="-1" width="9" height="9" rx="4.5" transform="matrix(1 0 0 -1 47.391 19.7209)" stroke="white" stroke-width="2"/>
<circle cx="2.5" cy="2.5" r="3.25" transform="matrix(1 0 0 -1 50.391 18.7209)" fill="white" stroke="#902B29" stroke-width="1.5"/>
<rect x="1" y="-1" width="29" height="29" rx="14.5" transform="matrix(1 0 0 -1 9.39099 99.7209)" stroke="#902B29" stroke-width="2"/>
<rect x="-1" y="1" width="25" height="25" rx="12.5" transform="matrix(1 0 0 -1 13.391 99.7209)" stroke="white" stroke-width="2"/>
<rect x="1" y="-1" width="21" height="21" rx="10.5" transform="matrix(1 0 0 -1 13.391 95.7209)" stroke="#902B29" stroke-width="2"/>
<rect x="1" y="-1" width="17" height="17" rx="8.5" transform="matrix(1 0 0 -1 15.391 93.7209)" stroke="white" stroke-width="2"/>
<rect x="-1" y="1" width="13" height="13" rx="6.5" transform="matrix(1 0 0 -1 19.391 93.7209)" stroke="#902B29" stroke-width="2"/>
<rect x="1" y="-1" width="9" height="9" rx="4.5" transform="matrix(1 0 0 -1 19.391 89.7209)" stroke="white" stroke-width="2"/>
<circle cx="2.5" cy="2.5" r="3.25" transform="matrix(1 0 0 -1 22.391 88.7209)" fill="white" stroke="#902B29" stroke-width="1.5"/>
<rect x="1" y="-1" width="29" height="29" rx="14.5" transform="matrix(1 0 0 -1 9.39099 41.7209)" stroke="#902B29" stroke-width="2"/>
<rect x="-1" y="1" width="25" height="25" rx="12.5" transform="matrix(1 0 0 -1 13.391 41.7209)" stroke="white" stroke-width="2"/>
<rect x="1" y="-1" width="21" height="21" rx="10.5" transform="matrix(1 0 0 -1 13.391 37.7209)" stroke="#902B29" stroke-width="2"/>
<rect x="1" y="-1" width="17" height="17" rx="8.5" transform="matrix(1 0 0 -1 15.391 35.7209)" stroke="white" stroke-width="2"/>
<rect x="-1" y="1" width="13" height="13" rx="6.5" transform="matrix(1 0 0 -1 19.391 35.7209)" stroke="#902B29" stroke-width="2"/>
<rect x="1" y="-1" width="9" height="9" rx="4.5" transform="matrix(1 0 0 -1 19.391 31.7209)" stroke="white" stroke-width="2"/>
<circle cx="2.5" cy="2.5" r="3.25" transform="matrix(1 0 0 -1 22.391 30.7209)" fill="white" stroke="#902B29" stroke-width="1.5"/>
<rect x="1" y="-1" width="29" height="29" rx="14.5" transform="matrix(1 0 0 -1 66.391 101.721)" stroke="#902B29" stroke-width="2"/>
<rect x="-1" y="1" width="25" height="25" rx="12.5" transform="matrix(1 0 0 -1 70.391 101.721)" stroke="white" stroke-width="2"/>
<rect x="1" y="-1" width="21" height="21" rx="10.5" transform="matrix(1 0 0 -1 70.391 97.7209)" stroke="#902B29" stroke-width="2"/>
<rect x="1" y="-1" width="17" height="17" rx="8.5" transform="matrix(1 0 0 -1 72.391 95.7209)" stroke="white" stroke-width="2"/>
<rect x="-1" y="1" width="13" height="13" rx="6.5" transform="matrix(1 0 0 -1 76.391 95.7209)" stroke="#902B29" stroke-width="2"/>
<rect x="1" y="-1" width="9" height="9" rx="4.5" transform="matrix(1 0 0 -1 76.391 91.7209)" stroke="white" stroke-width="2"/>
<circle cx="2.5" cy="2.5" r="3.25" transform="matrix(1 0 0 -1 79.391 90.7209)" fill="white" stroke="#902B29" stroke-width="1.5"/>
<rect x="1" y="-1" width="29" height="29" rx="14.5" transform="matrix(1 0 0 -1 66.391 39.7209)" stroke="#902B29" stroke-width="2"/>
<rect x="-1" y="1" width="25" height="25" rx="12.5" transform="matrix(1 0 0 -1 70.391 39.7209)" stroke="white" stroke-width="2"/>
<rect x="1" y="-1" width="21" height="21" rx="10.5" transform="matrix(1 0 0 -1 70.391 35.7209)" stroke="#902B29" stroke-width="2"/>
<rect x="1" y="-1" width="17" height="17" rx="8.5" transform="matrix(1 0 0 -1 72.391 33.7209)" stroke="white" stroke-width="2"/>
<rect x="-1" y="1" width="13" height="13" rx="6.5" transform="matrix(1 0 0 -1 76.391 33.7209)" stroke="#902B29" stroke-width="2"/>
<rect x="1" y="-1" width="9" height="9" rx="4.5" transform="matrix(1 0 0 -1 76.391 29.7209)" stroke="white" stroke-width="2"/>
<circle cx="2.5" cy="2.5" r="3.25" transform="matrix(1 0 0 -1 79.391 28.7209)" fill="white" stroke="#902B29" stroke-width="1.5"/>
<rect x="1" y="-1" width="29" height="29" rx="14.5" transform="matrix(1 0 0 -1 37.391 111.721)" stroke="#902B29" stroke-width="2"/>
<rect x="-1" y="1" width="25" height="25" rx="12.5" transform="matrix(1 0 0 -1 41.391 111.721)" stroke="white" stroke-width="2"/>
<rect x="1" y="-1" width="21" height="21" rx="10.5" transform="matrix(1 0 0 -1 41.391 107.721)" stroke="#902B29" stroke-width="2"/>
<rect x="1" y="-1" width="17" height="17" rx="8.5" transform="matrix(1 0 0 -1 43.391 105.721)" stroke="white" stroke-width="2"/>
<rect x="-1" y="1" width="13" height="13" rx="6.5" transform="matrix(1 0 0 -1 47.391 105.721)" stroke="#902B29" stroke-width="2"/>
<rect x="1" y="-1" width="9" height="9" rx="4.5" transform="matrix(1 0 0 -1 47.391 101.721)" stroke="white" stroke-width="2"/>
<circle cx="2.5" cy="2.5" r="3.25" transform="matrix(1 0 0 -1 50.391 100.721)" fill="white" stroke="#902B29" stroke-width="1.5"/>
<rect x="1" y="-1" width="29" height="29" rx="14.5" transform="matrix(1 0 0 -1 0.390991 70.7209)" stroke="#902B29" stroke-width="2"/>
<rect x="-1" y="1" width="25" height="25" rx="12.5" transform="matrix(1 0 0 -1 4.39099 70.7209)" stroke="white" stroke-width="2"/>
<rect x="1" y="-1" width="21" height="21" rx="10.5" transform="matrix(1 0 0 -1 4.39099 66.7209)" stroke="#902B29" stroke-width="2"/>
<rect x="1" y="-1" width="17" height="17" rx="8.5" transform="matrix(1 0 0 -1 6.39099 64.7209)" stroke="white" stroke-width="2"/>
<rect x="-1" y="1" width="13" height="13" rx="6.5" transform="matrix(1 0 0 -1 10.391 64.7209)" stroke="#902B29" stroke-width="2"/>
<rect x="1" y="-1" width="9" height="9" rx="4.5" transform="matrix(1 0 0 -1 10.391 60.7209)" stroke="white" stroke-width="2"/>
<circle cx="2.5" cy="2.5" r="3.25" transform="matrix(1 0 0 -1 13.391 59.7209)" fill="white" stroke="#902B29" stroke-width="1.5"/>
</svg>
