<svg width="34" height="34" viewBox="0 0 34 34" fill="none" xmlns="http://www.w3.org/2000/svg">
<rect x="1" y="1" width="32" height="32" rx="16" stroke="#2C2C2C" stroke-width="2"/>
<rect x="3" y="3" width="28" height="28" rx="14" fill="#C45B59"/>
<rect x="3" y="3" width="28" height="28" rx="14" stroke="#D9D9D9" stroke-width="2"/>
<path fill-rule="evenodd" clip-rule="evenodd" d="M17.5 19.019L22.5457 24.0648C22.8134 24.3325 23.1766 24.4829 23.5552 24.4829C23.9339 24.4829 24.297 24.3325 24.5647 24.0648C24.8325 23.797 24.9829 23.4339 24.9829 23.0552C24.9829 22.6766 24.8325 22.3135 24.5647 22.0457L19.5171 17L24.5638 11.9543C24.6963 11.8217 24.8014 11.6643 24.8731 11.4912C24.9448 11.318 24.9817 11.1323 24.9816 10.9449C24.9816 10.7575 24.9446 10.5719 24.8728 10.3987C24.8011 10.2256 24.6959 10.0682 24.5633 9.93572C24.4307 9.80321 24.2734 9.69811 24.1002 9.62642C23.927 9.55473 23.7414 9.51785 23.5539 9.51789C23.3665 9.51794 23.1809 9.5549 23.0077 9.62667C22.8346 9.69845 22.6773 9.80362 22.5447 9.93619L17.5 14.9819L12.4543 9.93619C12.3227 9.79982 12.1652 9.69102 11.9912 9.61614C11.8171 9.54125 11.6298 9.5018 11.4403 9.50006C11.2508 9.49832 11.0628 9.53435 10.8874 9.60603C10.712 9.67771 10.5526 9.78361 10.4185 9.91755C10.2844 10.0515 10.1784 10.2108 10.1065 10.3862C10.0347 10.5615 9.99849 10.7494 10 10.9389C10.0016 11.1285 10.0409 11.3158 10.1156 11.4899C10.1903 11.6641 10.299 11.8216 10.4352 11.9533L15.4828 17L10.4362 22.0467C10.2999 22.1784 10.1913 22.3359 10.1166 22.5101C10.0418 22.6842 10.0026 22.8715 10.001 23.0611C9.99944 23.2506 10.0356 23.4385 10.1075 23.6138C10.1793 23.7892 10.2854 23.9485 10.4195 24.0825C10.5535 24.2164 10.7129 24.3223 10.8884 24.394C11.0638 24.4657 11.2517 24.5017 11.4412 24.4999C11.6307 24.4982 11.818 24.4587 11.9921 24.3839C12.1662 24.309 12.3236 24.2002 12.4552 24.0638L17.5 19.019Z" fill="#FFF7D9"/>
</svg>
