<svg width="33" height="32" viewBox="0 0 33 32" fill="none" xmlns="http://www.w3.org/2000/svg">
<path opacity="0.2" d="M15.438 2.59366C15.624 2.77966 15.747 2.97466 15.825 3.11866C15.9435 3.33617 16.032 3.56867 16.1025 3.77867C16.2375 4.18067 16.3755 4.71618 16.533 5.32668L22.053 26.6869L24.465 17.5998L24.4845 17.5248L24.489 17.5083C24.555 17.2533 24.6645 16.8273 24.9135 16.4688C25.1398 16.1389 25.45 15.8754 25.812 15.7053C26.0985 15.5703 26.3655 15.5298 26.562 15.5148C26.7195 15.4998 26.892 15.5013 27.024 15.5013H31.5C31.8978 15.5013 32.2794 15.6593 32.5607 15.9406C32.842 16.2219 33 16.6035 33 17.0013C33 17.3991 32.842 17.7806 32.5607 18.062C32.2794 18.3433 31.8978 18.5013 31.5 18.5013H27.33L24.624 28.6939C24.462 29.3029 24.321 29.8369 24.183 30.2389C24.1067 30.4661 24.0124 30.6868 23.901 30.8989C23.7388 31.2013 23.505 31.4593 23.22 31.6504C22.8671 31.8801 22.4547 32.0016 22.0337 32C21.6126 31.9984 21.2012 31.8737 20.85 31.6414C20.5665 31.4479 20.3347 31.1878 20.175 30.8839C20.065 30.6711 19.9722 30.4499 19.8975 30.2224C19.7625 29.8204 19.6245 29.2849 19.467 28.6744L13.947 7.3142L11.535 16.3998L11.5155 16.4748L11.511 16.4913C11.445 16.7463 11.334 17.1723 11.0865 17.5308C10.8602 17.8606 10.55 18.1242 10.188 18.2943C9.9015 18.4293 9.6345 18.4698 9.438 18.4848C9.2805 18.4998 9.108 18.4983 8.976 18.4983H4.5C4.10218 18.4983 3.72064 18.3403 3.43934 18.059C3.15804 17.7776 3 17.3961 3 16.9983C3 16.6005 3.15804 16.2189 3.43934 15.9376C3.72064 15.6563 4.10218 15.4983 4.5 15.4983H8.67L11.376 5.30418C11.538 4.69668 11.679 4.16117 11.817 3.76217C11.889 3.55217 11.979 3.31967 12.099 3.10216C12.261 2.79924 12.4948 2.54068 12.78 2.34916C13.1858 2.08471 13.6689 1.96485 14.1512 2.00894C14.6335 2.05304 15.0869 2.26002 15.438 2.59366Z" fill="#902B29"/>
<path d="M12.438 0.59366C12.624 0.779662 12.747 0.974663 12.825 1.11866C12.9435 1.33617 13.032 1.56867 13.1025 1.77867C13.2375 2.18067 13.3755 2.71618 13.533 3.32668L19.053 24.6869L21.465 15.5998L21.4845 15.5248L21.489 15.5083C21.555 15.2533 21.6645 14.8273 21.9135 14.4688C22.1398 14.1389 22.45 13.8754 22.812 13.7053C23.0985 13.5703 23.3655 13.5298 23.562 13.5148C23.7195 13.4998 23.892 13.5013 24.024 13.5013H28.5C28.8978 13.5013 29.2794 13.6593 29.5607 13.9406C29.842 14.2219 30 14.6035 30 15.0013C30 15.3991 29.842 15.7806 29.5607 16.062C29.2794 16.3433 28.8978 16.5013 28.5 16.5013H24.33L21.624 26.6939C21.462 27.3029 21.321 27.8369 21.183 28.2389C21.1067 28.4661 21.0124 28.6868 20.901 28.8989C20.7388 29.2013 20.505 29.4593 20.22 29.6504C19.8671 29.8801 19.4547 30.0016 19.0337 30C18.6126 29.9984 18.2012 29.8737 17.85 29.6414C17.5665 29.4479 17.3347 29.1878 17.175 28.8839C17.065 28.6711 16.9722 28.4499 16.8975 28.2224C16.7625 27.8204 16.6245 27.2849 16.467 26.6744L10.947 5.3142L8.535 14.3998L8.5155 14.4748L8.511 14.4913C8.445 14.7463 8.334 15.1723 8.0865 15.5308C7.86019 15.8606 7.55004 16.1242 7.188 16.2943C6.9015 16.4293 6.6345 16.4698 6.438 16.4848C6.2805 16.4998 6.108 16.4983 5.976 16.4983H1.5C1.10218 16.4983 0.720644 16.3403 0.43934 16.059C0.158035 15.7776 0 15.3961 0 14.9983C0 14.6005 0.158035 14.2189 0.43934 13.9376C0.720644 13.6563 1.10218 13.4983 1.5 13.4983H5.67L8.376 3.30418C8.538 2.69668 8.679 2.16117 8.817 1.76217C8.889 1.55217 8.979 1.31967 9.099 1.10216C9.261 0.799241 9.49483 0.540683 9.78 0.349158C10.1858 0.0847112 10.6689 -0.0351538 11.1512 0.00894212C11.6335 0.053038 12.0869 0.260017 12.438 0.59366Z" fill="#902B29"/>
</svg>
