<svg width="38" height="30" viewBox="0 0 38 30" fill="none" xmlns="http://www.w3.org/2000/svg">
<g opacity="0.2">
<path d="M17.3684 7.89479C17.3684 9.56984 16.703 11.1763 15.5185 12.3607C14.3341 13.5452 12.7277 14.2106 11.0526 14.2106C9.37755 14.2106 7.77111 13.5452 6.58667 12.3607C5.40223 11.1763 4.73682 9.56984 4.73682 7.89479C4.73682 6.21973 5.40223 4.61328 6.58667 3.42884C7.77111 2.24439 9.37755 1.57898 11.0526 1.57898C12.7277 1.57898 14.3341 2.24439 15.5185 3.42884C16.703 4.61328 17.3684 6.21973 17.3684 7.89479Z" fill="#902B29"/>
<path fill-rule="evenodd" clip-rule="evenodd" d="M11.0526 10.0001C11.611 10.0001 12.1464 9.77825 12.5413 9.38344C12.9361 8.98862 13.1579 8.45314 13.1579 7.89479C13.1579 7.33643 12.9361 6.80095 12.5413 6.40614C12.1464 6.01132 11.611 5.78952 11.0526 5.78952C10.4943 5.78952 9.95877 6.01132 9.56396 6.40614C9.16915 6.80095 8.94734 7.33643 8.94734 7.89479C8.94734 8.45314 9.16915 8.98862 9.56396 9.38344C9.95877 9.77825 10.4943 10.0001 11.0526 10.0001ZM11.0526 14.2106C11.882 14.2106 12.7033 14.0472 13.4696 13.7298C14.2358 13.4124 14.9321 12.9472 15.5185 12.3607C16.105 11.7743 16.5702 11.078 16.8876 10.3117C17.205 9.54547 17.3684 8.72419 17.3684 7.89479C17.3684 7.06538 17.205 6.2441 16.8876 5.47783C16.5702 4.71156 16.105 4.01531 15.5185 3.42884C14.9321 2.84236 14.2358 2.37714 13.4696 2.05974C12.7033 1.74234 11.882 1.57898 11.0526 1.57898C9.37755 1.57898 7.77111 2.24439 6.58667 3.42884C5.40223 4.61328 4.73682 6.21973 4.73682 7.89479C4.73682 9.56984 5.40223 11.1763 6.58667 12.3607C7.77111 13.5452 9.37755 14.2106 11.0526 14.2106Z" fill="#902B29"/>
<path fill-rule="evenodd" clip-rule="evenodd" d="M11.1582 15.7895C10.3207 15.7895 9.51747 16.1222 8.92525 16.7144C8.33303 17.3067 8.00032 18.1099 8.00032 18.9474V22.1053C8.00032 22.6637 7.77852 23.1992 7.3837 23.594C6.98889 23.9888 6.45341 24.2106 5.89506 24.2106C5.33671 24.2106 4.80123 23.9888 4.40641 23.594C4.0116 23.1992 3.78979 22.6637 3.78979 22.1053V18.9474C3.78979 16.9932 4.56611 15.119 5.94796 13.7371C7.3298 12.3553 9.20399 11.579 11.1582 11.579C13.1124 11.579 14.9866 12.3553 16.3685 13.7371C17.7503 15.119 18.5266 16.9932 18.5266 18.9474V20.0001C18.5266 20.5584 18.3048 21.0939 17.91 21.4887C17.5152 21.8835 16.9797 22.1053 16.4214 22.1053C15.863 22.1053 15.3275 21.8835 14.9327 21.4887C14.5379 21.0939 14.3161 20.5584 14.3161 20.0001V18.9474C14.3161 18.1099 13.9834 17.3067 13.3912 16.7144C12.799 16.1222 11.9957 15.7895 11.1582 15.7895Z" fill="#902B29"/>
<path d="M23.6843 7.89479C23.6843 9.56984 24.3497 11.1763 25.5342 12.3607C26.7186 13.5452 28.3251 14.2106 30.0001 14.2106C31.6752 14.2106 33.2816 13.5452 34.4661 12.3607C35.6505 11.1763 36.3159 9.56984 36.3159 7.89479C36.3159 6.21973 35.6505 4.61328 34.4661 3.42884C33.2816 2.24439 31.6752 1.57898 30.0001 1.57898C28.3251 1.57898 26.7186 2.24439 25.5342 3.42884C24.3497 4.61328 23.6843 6.21973 23.6843 7.89479Z" fill="#902B29"/>
<path fill-rule="evenodd" clip-rule="evenodd" d="M30.0001 10.0001C29.4418 10.0001 28.9063 9.77825 28.5115 9.38344C28.1167 8.98862 27.8949 8.45314 27.8949 7.89479C27.8949 7.33643 28.1167 6.80095 28.5115 6.40614C28.9063 6.01132 29.4418 5.78952 30.0001 5.78952C30.5585 5.78952 31.0939 6.01132 31.4888 6.40614C31.8836 6.80095 32.1054 7.33643 32.1054 7.89479C32.1054 8.45314 31.8836 8.98862 31.4888 9.38344C31.0939 9.77825 30.5585 10.0001 30.0001 10.0001ZM30.0001 14.2106C29.1707 14.2106 28.3494 14.0472 27.5832 13.7298C26.8169 13.4124 26.1207 12.9472 25.5342 12.3607C24.9477 11.7743 24.4825 11.078 24.1651 10.3117C23.8477 9.54547 23.6843 8.72419 23.6843 7.89479C23.6843 7.06538 23.8477 6.2441 24.1651 5.47783C24.4825 4.71156 24.9477 4.01531 25.5342 3.42884C26.1207 2.84236 26.8169 2.37714 27.5832 2.05974C28.3494 1.74234 29.1707 1.57898 30.0001 1.57898C31.6752 1.57898 33.2816 2.24439 34.4661 3.42884C35.6505 4.61328 36.3159 6.21973 36.3159 7.89479C36.3159 9.56984 35.6505 11.1763 34.4661 12.3607C33.2816 13.5452 31.6752 14.2106 30.0001 14.2106Z" fill="#902B29"/>
<path fill-rule="evenodd" clip-rule="evenodd" d="M29.8945 15.7895C30.7321 15.7895 31.5353 16.1222 32.1275 16.7144C32.7197 17.3067 33.0524 18.1099 33.0524 18.9474V22.1053C33.0524 22.6637 33.2742 23.1992 33.6691 23.594C34.0639 23.9888 34.5994 24.2106 35.1577 24.2106C35.7161 24.2106 36.2515 23.9888 36.6463 23.594C37.0412 23.1992 37.263 22.6637 37.263 22.1053V18.9474C37.263 16.9932 36.4867 15.119 35.1048 13.7371C33.723 12.3553 31.8488 11.579 29.8945 11.579C27.9403 11.579 26.0661 12.3553 24.6843 13.7371C23.3024 15.119 22.5261 16.9932 22.5261 18.9474V20.0001C22.5261 20.5584 22.7479 21.0939 23.1427 21.4887C23.5376 21.8835 24.073 22.1053 24.6314 22.1053C25.1897 22.1053 25.7252 21.8835 26.12 21.4887C26.5148 21.0939 26.7366 20.5584 26.7366 20.0001V18.9474C26.7366 18.1099 27.0694 17.3067 27.6616 16.7144C28.2538 16.1222 29.057 15.7895 29.8945 15.7895Z" fill="#902B29"/>
<path fill-rule="evenodd" clip-rule="evenodd" d="M20.6316 21.5791C19.7941 21.5791 18.9909 21.9118 18.3986 22.504C17.8064 23.0962 17.4737 23.8994 17.4737 24.737V27.8949C17.4737 28.4532 17.2519 28.9887 16.8571 29.3835C16.4623 29.7783 15.9268 30.0001 15.3684 30.0001C14.8101 30.0001 14.2746 29.7783 13.8798 29.3835C13.485 28.9887 13.2632 28.4532 13.2632 27.8949V24.737C13.2632 22.7827 14.0395 20.9085 15.4213 19.5267C16.8032 18.1448 18.6774 17.3685 20.6316 17.3685C22.5858 17.3685 24.46 18.1448 25.8419 19.5267C27.2237 20.9085 28 22.7827 28 24.737V27.8949C28 28.4532 27.7782 28.9887 27.3834 29.3835C26.9886 29.7783 26.4531 30.0001 25.8948 30.0001C25.3364 30.0001 24.8009 29.7783 24.4061 29.3835C24.0113 28.9887 23.7895 28.4532 23.7895 27.8949V24.737C23.7895 23.8994 23.4568 23.0962 22.8646 22.504C22.2724 21.9118 21.4691 21.5791 20.6316 21.5791Z" fill="#902B29"/>
<path d="M26.842 13.6843C26.842 15.3594 26.1766 16.9658 24.9922 18.1503C23.8077 19.3347 22.2013 20.0001 20.5262 20.0001C18.8512 20.0001 17.2447 19.3347 16.0603 18.1503C14.8759 16.9658 14.2104 15.3594 14.2104 13.6843C14.2104 12.0093 14.8759 10.4028 16.0603 9.21839C17.2447 8.03394 18.8512 7.36853 20.5262 7.36853C22.2013 7.36853 23.8077 8.03394 24.9922 9.21839C26.1766 10.4028 26.842 12.0093 26.842 13.6843Z" fill="#902B29"/>
<path fill-rule="evenodd" clip-rule="evenodd" d="M20.5262 15.7896C21.0846 15.7896 21.6201 15.5678 22.0149 15.173C22.4097 14.7782 22.6315 14.2427 22.6315 13.6843C22.6315 13.126 22.4097 12.5905 22.0149 12.1957C21.6201 11.8009 21.0846 11.5791 20.5262 11.5791C19.9679 11.5791 19.4324 11.8009 19.0376 12.1957C18.6428 12.5905 18.421 13.126 18.421 13.6843C18.421 14.2427 18.6428 14.7782 19.0376 15.173C19.4324 15.5678 19.9679 15.7896 20.5262 15.7896ZM20.5262 20.0001C22.2013 20.0001 23.8077 19.3347 24.9922 18.1503C26.1766 16.9658 26.842 15.3594 26.842 13.6843C26.842 12.0093 26.1766 10.4028 24.9922 9.21839C23.8077 8.03394 22.2013 7.36853 20.5262 7.36853C18.8512 7.36853 17.2447 8.03394 16.0603 9.21839C14.8759 10.4028 14.2104 12.0093 14.2104 13.6843C14.2104 15.3594 14.8759 16.9658 16.0603 18.1503C17.2447 19.3347 18.8512 20.0001 20.5262 20.0001Z" fill="#902B29"/>
<path d="M5.78955 15.7896H16.3159V24.2106H5.78955V15.7896ZM24.7369 15.7896H35.2632V24.2106H24.7369V15.7896Z" fill="#902B29"/>
<path d="M16.3158 20.0001H24.7369L25.7895 30.0001H15.2632L16.3158 20.0001Z" fill="#902B29"/>
</g>
<path fill-rule="evenodd" clip-rule="evenodd" d="M7.36828 10.5263C8.48498 10.5263 9.55594 10.0827 10.3456 9.29311C11.1352 8.50348 11.5788 7.43251 11.5788 6.31581C11.5788 5.1991 11.1352 4.12814 10.3456 3.33851C9.55594 2.54888 8.48498 2.10527 7.36828 2.10527C6.25158 2.10527 5.18061 2.54888 4.39099 3.33851C3.60136 4.12814 3.15775 5.1991 3.15775 6.31581C3.15775 7.43251 3.60136 8.50348 4.39099 9.29311C5.18061 10.0827 6.25158 10.5263 7.36828 10.5263ZM7.36828 12.6316C8.19768 12.6316 9.01896 12.4682 9.78523 12.1509C10.5515 11.8335 11.2477 11.3682 11.8342 10.7818C12.4207 10.1953 12.8859 9.49903 13.2033 8.73276C13.5207 7.96649 13.6841 7.14521 13.6841 6.31581C13.6841 5.4864 13.5207 4.66512 13.2033 3.89885C12.8859 3.13258 12.4207 2.43633 11.8342 1.84986C11.2477 1.26338 10.5515 0.798162 9.78523 0.480763C9.01896 0.163364 8.19768 -1.23591e-08 7.36828 0C5.69323 2.49603e-08 4.08678 0.665414 2.90234 1.84986C1.7179 3.0343 1.05249 4.64075 1.05249 6.31581C1.05249 7.99086 1.7179 9.59731 2.90234 10.7818C4.08678 11.9662 5.69323 12.6316 7.36828 12.6316Z" fill="#902B29"/>
<path fill-rule="evenodd" clip-rule="evenodd" d="M4.95579 10.3074C5.05382 10.4052 5.13159 10.5213 5.18466 10.6492C5.23772 10.7771 5.26504 10.9142 5.26504 11.0527C5.26504 11.1911 5.23772 11.3282 5.18466 11.4561C5.13159 11.584 5.05382 11.7002 4.95579 11.7979L4.24421 12.5074C2.87481 13.8772 2.10544 15.7347 2.10526 17.6716V21.579C2.10526 21.8582 1.99436 22.1259 1.79695 22.3233C1.59955 22.5208 1.33181 22.6317 1.05263 22.6317C0.773456 22.6317 0.505715 22.5208 0.308309 22.3233C0.110902 22.1259 0 21.8582 0 21.579V17.6716C0.00029844 15.1764 0.991549 12.7835 2.75579 11.019L3.46526 10.3074C3.56304 10.2094 3.6792 10.1316 3.80709 10.0785C3.93497 10.0255 4.07207 9.99816 4.21053 9.99816C4.34898 9.99816 4.48608 10.0255 4.61397 10.0785C4.74185 10.1316 4.85801 10.2094 4.95579 10.3074ZM29.7811 9.67583C29.683 9.77361 29.6053 9.88977 29.5522 10.0177C29.4991 10.1455 29.4718 10.2826 29.4718 10.4211C29.4718 10.5596 29.4991 10.6966 29.5522 10.8245C29.6053 10.9524 29.683 11.0686 29.7811 11.1664L30.4926 11.8758C31.862 13.2456 32.6314 15.1032 32.6316 17.0401V21.579C32.6316 21.8582 32.7425 22.1259 32.9399 22.3233C33.1373 22.5208 33.405 22.6317 33.6842 22.6317C33.9634 22.6317 34.2311 22.5208 34.4285 22.3233C34.6259 22.1259 34.7368 21.8582 34.7368 21.579V17.0401C34.7365 14.5449 33.7453 12.1519 31.9811 10.3874L31.2716 9.67583C31.1738 9.5778 31.0576 9.50003 30.9298 9.44696C30.8019 9.39389 30.6648 9.36658 30.5263 9.36658C30.3879 9.36658 30.2508 9.39389 30.1229 9.44696C29.995 9.50003 29.8788 9.5778 29.7811 9.67583Z" fill="#902B29"/>
<path fill-rule="evenodd" clip-rule="evenodd" d="M26.316 10.5263C25.1993 10.5263 24.1283 10.0827 23.3387 9.29311C22.5491 8.50348 22.1055 7.43251 22.1055 6.31581C22.1055 5.1991 22.5491 4.12814 23.3387 3.33851C24.1283 2.54888 25.1993 2.10527 26.316 2.10527C27.4327 2.10527 28.5036 2.54888 29.2933 3.33851C30.0829 4.12814 30.5265 5.1991 30.5265 6.31581C30.5265 7.43251 30.0829 8.50348 29.2933 9.29311C28.5036 10.0827 27.4327 10.5263 26.316 10.5263ZM26.316 12.6316C25.4866 12.6316 24.6653 12.4682 23.899 12.1509C23.1328 11.8335 22.4365 11.3682 21.85 10.7818C21.2636 10.1953 20.7984 9.49903 20.481 8.73276C20.1636 7.96649 20.0002 7.14521 20.0002 6.31581C20.0002 5.4864 20.1636 4.66512 20.481 3.89885C20.7984 3.13258 21.2636 2.43633 21.85 1.84986C22.4365 1.26338 23.1328 0.798162 23.899 0.480763C24.6653 0.163364 25.4866 -1.23591e-08 26.316 0C27.991 2.49603e-08 29.5975 0.665414 30.7819 1.84986C31.9664 3.0343 32.6318 4.64075 32.6318 6.31581C32.6318 7.99086 31.9664 9.59731 30.7819 10.7818C29.5975 11.9662 27.991 12.6316 26.316 12.6316ZM16.8423 19.4737C15.4464 19.4737 14.1077 20.0282 13.1207 21.0153C12.1336 22.0023 11.5791 23.341 11.5791 24.7369V27.4738C11.5791 27.7529 11.4682 28.0207 11.2708 28.2181C11.0734 28.4155 10.8057 28.5264 10.5265 28.5264C10.2473 28.5264 9.97959 28.4155 9.78219 28.2181C9.58478 28.0207 9.47388 27.7529 9.47388 27.4738V24.7369C9.47388 22.7827 10.2502 20.9085 11.632 19.5266C13.0139 18.1448 14.8881 17.3685 16.8423 17.3685C18.7965 17.3685 20.6707 18.1448 22.0526 19.5266C23.4344 20.9085 24.2107 22.7827 24.2107 24.7369V27.4738C24.2107 27.7529 24.0998 28.0207 23.9024 28.2181C23.705 28.4155 23.4373 28.5264 23.1581 28.5264C22.8789 28.5264 22.6112 28.4155 22.4138 28.2181C22.2164 28.0207 22.1055 27.7529 22.1055 27.4738V24.7369C22.1055 24.0457 21.9693 23.3613 21.7048 22.7228C21.4403 22.0842 21.0526 21.504 20.5639 21.0153C20.0752 20.5266 19.495 20.1389 18.8564 19.8744C18.2179 19.6099 17.5335 19.4737 16.8423 19.4737Z" fill="#902B29"/>
<path fill-rule="evenodd" clip-rule="evenodd" d="M16.8422 16.3159C17.9589 16.3159 19.0298 15.8723 19.8194 15.0827C20.6091 14.293 21.0527 13.2221 21.0527 12.1054C21.0527 10.9887 20.6091 9.91769 19.8194 9.12806C19.0298 8.33843 17.9589 7.89482 16.8422 7.89482C15.7255 7.89482 14.6545 8.33843 13.8649 9.12806C13.0752 9.91769 12.6316 10.9887 12.6316 12.1054C12.6316 13.2221 13.0752 14.293 13.8649 15.0827C14.6545 15.8723 15.7255 16.3159 16.8422 16.3159ZM16.8422 18.4212C18.5172 18.4212 20.1237 17.7558 21.3081 16.5713C22.4925 15.3869 23.1579 13.7804 23.1579 12.1054C23.1579 10.4303 22.4925 8.82385 21.3081 7.63941C20.1237 6.45496 18.5172 5.78955 16.8422 5.78955C15.1671 5.78955 13.5607 6.45496 12.3762 7.63941C11.1918 8.82385 10.5264 10.4303 10.5264 12.1054C10.5264 13.7804 11.1918 15.3869 12.3762 16.5713C13.5607 17.7558 15.1671 18.4212 16.8422 18.4212Z" fill="#902B29"/>
</svg>
