<svg width="32" height="29" viewBox="0 0 32 29" fill="none" xmlns="http://www.w3.org/2000/svg">
<g opacity="0.2">
<path d="M6.2379 22.3245C6.2379 23.2101 6.82023 23.9902 7.66922 24.242L17.45 27.1428C17.8315 27.2559 18.2382 27.2527 18.6179 27.1335L26.2729 24.7295C26.9199 24.5264 27.4683 23.7798 26.9493 23.3434C26.6967 23.131 26.4108 23.0248 26.0916 23.0248H18.6919C18.0327 23.0248 17.4349 22.9984 16.8985 22.9455C16.362 22.8927 15.8136 22.7669 15.2532 22.5682L12.6122 21.688C12.185 21.5456 11.9546 21.0832 12.0983 20.6564C12.2444 20.2221 12.7202 19.994 13.1503 20.1521L15.523 21.024C16.0241 21.2175 16.5939 21.3337 17.2322 21.3728C17.6089 21.3953 18.068 21.4123 18.6096 21.4237C19.2946 21.4381 19.9309 20.8316 19.5839 20.2409C19.4051 19.9365 19.1488 19.724 18.8151 19.6035L9.84185 16.2552C9.78259 16.2352 9.72748 16.2204 9.67654 16.2108C9.6256 16.2013 9.57102 16.196 9.5128 16.195H8.2379C7.13333 16.195 6.2379 17.0904 6.2379 18.195V22.3245ZM2 27.5367C0.89543 27.5367 0 26.6413 0 25.5367V16.6096C0 15.505 0.895431 14.6096 2 14.6096H9.47537C9.62092 14.6096 9.77063 14.6265 9.9245 14.6604C10.0784 14.6942 10.2213 14.7333 10.3534 14.7777L19.3656 18.1339C19.9239 18.3495 20.4042 18.7369 20.8065 19.296C20.858 19.3673 20.9061 19.4411 20.951 19.5175C21.5107 20.4697 22.307 21.4394 23.4116 21.4394H26.09C27.0299 21.4394 27.7493 21.738 28.2483 22.3351C28.7484 22.9334 28.9984 23.6917 28.9984 24.6101C28.9984 25.1903 28.6217 25.7033 28.0681 25.877L18.6953 28.8174C18.3159 28.9365 17.9097 28.9397 17.5284 28.8267L7.36507 25.815C6.80172 25.6481 6.23634 26.0702 6.23634 26.6578C6.23634 27.1432 5.8428 27.5367 5.35735 27.5367H2ZM1.55947 24.3919C1.55947 25.2532 2.25768 25.9514 3.11895 25.9514C3.98022 25.9514 4.67842 25.2532 4.67842 24.3919V17.7545C4.67842 16.8932 3.98022 16.195 3.11895 16.195C2.25768 16.195 1.55947 16.8932 1.55947 17.7545V24.3919Z" fill="#902B29"/>
<path d="M6.2379 22.3245C6.2379 23.2101 6.82023 23.9902 7.66922 24.242L17.45 27.1428C17.8315 27.2559 18.2382 27.2527 18.6179 27.1335L26.2729 24.7295C26.9199 24.5264 27.4683 23.7798 26.9493 23.3434C26.6967 23.131 26.4108 23.0248 26.0916 23.0248H18.6919C18.0327 23.0248 17.4349 22.9984 16.8985 22.9455C16.362 22.8927 15.8136 22.7669 15.2532 22.5682L12.6122 21.688C12.185 21.5456 11.9546 21.0832 12.0983 20.6564C12.2444 20.2221 12.7202 19.994 13.1503 20.1521L15.523 21.024C16.0241 21.2175 16.5939 21.3337 17.2322 21.3728C17.6089 21.3953 18.068 21.4123 18.6096 21.4237C19.2946 21.4381 19.9309 20.8316 19.5839 20.2409C19.4051 19.9365 19.1488 19.724 18.8151 19.6035L9.84185 16.2552C9.78259 16.2352 9.72748 16.2204 9.67654 16.2108C9.6256 16.2013 9.57102 16.196 9.5128 16.195H8.2379C7.13333 16.195 6.2379 17.0904 6.2379 18.195V22.3245Z" fill="#902B29"/>
<path d="M1.55947 24.3919C1.55947 25.2532 2.25768 25.9514 3.11895 25.9514C3.98022 25.9514 4.67842 25.2532 4.67842 24.3919V17.7545C4.67842 16.8932 3.98022 16.195 3.11895 16.195C2.25768 16.195 1.55947 16.8932 1.55947 17.7545V24.3919Z" fill="#902B29"/>
</g>
<g opacity="0.2">
<path fill-rule="evenodd" clip-rule="evenodd" d="M14.8562 8C14.3844 8 14 8.38437 14 8.85625C14 11.0594 15.3875 12.9406 17.3312 13.675L17.3875 14.125C17.45 14.625 17.8781 15 18.3812 15H25.6156C26.1219 15 26.5469 14.625 26.6094 14.125L26.6625 13.6719C28.6094 12.9406 29.9969 11.0594 29.9969 8.85625C29.9969 8.38437 29.6125 8 29.1406 8H14.8562Z" fill="#902B29"/>
<path d="M14 6C14 4.89687 14.8969 4 16 4H16.05C16.2812 2.85938 17.2906 2 18.5 2C18.9688 2 19.4062 2.12812 19.7781 2.35C20.1937 1.55 21.0344 1 22 1C22.9656 1 23.8063 1.55 24.2219 2.35C24.5938 2.12812 25.0312 2 25.5 2C26.7094 2 27.7188 2.85938 27.95 4H28C29.1031 4 30 4.89687 30 6C30 6.36562 29.9031 6.70625 29.7312 7H14.2688C14.0969 6.70625 14 6.36562 14 6Z" fill="#902B29"/>
</g>
<path d="M9.2379 21.071C9.2379 21.5138 9.52907 21.9038 9.95356 22.0297L20.7426 25.2296C20.9334 25.2862 21.1367 25.2845 21.3266 25.2249L29.6259 22.6187C30.0656 22.4806 30.4047 22.0321 30.1813 21.629C30.1186 21.516 30.0413 21.4208 29.9493 21.3434C29.6967 21.131 29.4108 21.0248 29.0916 21.0248H21.6919C21.0327 21.0248 20.4349 20.9984 19.8985 20.9455C19.362 20.8927 18.8136 20.7669 18.2532 20.5682L15.6122 19.688C15.185 19.5456 14.9546 19.0832 15.0983 18.6564C15.2444 18.2221 15.7202 17.994 16.1503 18.1521L18.523 19.024C19.0241 19.2175 19.5939 19.3337 20.2322 19.3728C20.6626 19.3985 21.2006 19.417 21.8463 19.4282C22.4007 19.4379 22.8959 18.9674 22.688 18.4533C22.6575 18.378 22.6228 18.3072 22.5839 18.2409C22.4051 17.9365 22.1488 17.724 21.8151 17.6035L12.8418 14.2552C12.7826 14.2352 12.7275 14.2204 12.6765 14.2108C12.6256 14.2013 12.571 14.196 12.5128 14.195H10.2379C9.68562 14.195 9.2379 14.6427 9.2379 15.195V21.071ZM4 25.5367C3.44771 25.5367 3 25.089 3 24.5367V13.6096C3 13.0573 3.44772 12.6096 4 12.6096H12.4754C12.6209 12.6096 12.7706 12.6265 12.9245 12.6604C13.0784 12.6942 13.2213 12.7333 13.3534 12.7777L22.3656 16.1339C22.9239 16.3495 23.4042 16.7369 23.8065 17.296C24.0443 17.6255 24.212 18.0091 24.3096 18.4466C24.4299 18.9856 24.8593 19.4394 25.4116 19.4394H29.09C30.0299 19.4394 30.7493 19.738 31.2483 20.3351C31.7484 20.9334 31.9984 21.6917 31.9984 22.6101V22.8508C31.9984 23.2878 31.7147 23.6742 31.2978 23.805L21.4043 26.9087C21.2146 26.9683 21.0115 26.9699 20.8209 26.9134L10.3651 23.815C9.80172 23.6481 9.23634 24.0702 9.23634 24.6578C9.23634 25.1432 8.8428 25.5367 8.35735 25.5367H4ZM4.55947 22.9514C4.55947 23.5037 5.00719 23.9514 5.55947 23.9514H6.67842C7.23071 23.9514 7.67842 23.5037 7.67842 22.9514V15.195C7.67842 14.6427 7.23071 14.195 6.67842 14.195H5.55947C5.00719 14.195 4.55947 14.6427 4.55947 15.195V22.9514Z" fill="#902B29"/>
<path fill-rule="evenodd" clip-rule="evenodd" d="M16.8562 7C16.3844 7 16 7.38437 16 7.85625C16 10.0594 17.3875 11.9406 19.3312 12.675L19.3875 13.125C19.45 13.625 19.8781 14 20.3812 14H27.6156C28.1219 14 28.5469 13.625 28.6094 13.125L28.6625 12.6719C30.6094 11.9406 31.9969 10.0594 31.9969 7.85625C31.9969 7.38437 31.6125 7 31.1406 7H16.8562Z" fill="#902B29"/>
<path d="M16 5C16 3.89687 16.8969 3 18 3H18.05C18.2812 1.85938 19.2906 1 20.5 1C20.9688 1 21.4062 1.12812 21.7781 1.35C22.1937 0.55 23.0344 0 24 0C24.9656 0 25.8063 0.55 26.2219 1.35C26.5938 1.12812 27.0312 1 27.5 1C28.7094 1 29.7188 1.85938 29.95 3H30C31.1031 3 32 3.89687 32 5C32 5.36562 31.9031 5.70625 31.7312 6H16.2688C16.0969 5.70625 16 5.36562 16 5Z" fill="white"/>
</svg>
