<svg width="122" height="198" viewBox="0 0 122 198" fill="none" xmlns="http://www.w3.org/2000/svg">
<circle cx="14" cy="34.5" r="13.5" fill="#3F8044"/>
<circle cx="14" cy="56.5" r="13.5" fill="#3F8044"/>
<circle cx="14" cy="79.5" r="13.5" fill="#3F8044"/>
<path d="M14.5 84L14.5 29" stroke="#FFF7D9" stroke-width="5" stroke-linecap="square"/>
<circle cx="14" cy="111.5" r="13.5" fill="#3F8044"/>
<circle cx="14" cy="133.5" r="13.5" fill="#3F8044"/>
<circle cx="14" cy="156.5" r="13.5" fill="#3F8044"/>
<path d="M14.5 161L14.5 106" stroke="#FFF7D9" stroke-width="5" stroke-linecap="square"/>
<circle cx="108" cy="75.5" r="13.5" fill="#902B29"/>
<circle cx="108" cy="97.5" r="13.5" fill="#902B29"/>
<circle cx="108" cy="120.5" r="13.5" fill="#902B29"/>
<path d="M108.5 125L108.5 70" stroke="#FFF7D9" stroke-width="5" stroke-linecap="square"/>
<circle cx="61" cy="139.5" r="13.5" fill="#2C2C2C"/>
<circle cx="61" cy="161.5" r="13.5" fill="#2C2C2C"/>
<circle cx="61" cy="184.5" r="13.5" fill="#2C2C2C"/>
<path d="M61.5 189L61.5 134" stroke="#FFF7D9" stroke-width="5" stroke-linecap="square"/>
<circle cx="61" cy="13.5" r="13.5" fill="#2C2C2C"/>
<circle cx="61" cy="35.5" r="13.5" fill="#2C2C2C"/>
<circle cx="61" cy="58.5" r="13.5" fill="#2C2C2C"/>
<path d="M61.5 63L61.5 8" stroke="#FFF7D9" stroke-width="5" stroke-linecap="square"/>
</svg>
