<svg width="21" height="17" viewBox="0 0 21 17" fill="none" xmlns="http://www.w3.org/2000/svg">
<path d="M21 14.6102V2.665C21 1.56339 20.1728 0.674133 19.1481 0.674133H1.85185C0.82716 0.674133 0 1.56339 0 2.665V14.6102C0 15.7118 0.82716 16.6011 1.85185 16.6011H19.1481C20.1728 16.6011 21 15.7118 21 14.6102ZM19.3827 2.51901C19.7901 2.957 19.5679 3.40826 19.3457 3.63389L14.3333 8.57125L19.1481 13.9599C19.2963 14.1457 19.3951 14.4377 19.2222 14.6368C19.0617 14.8491 18.6914 14.8359 18.5309 14.7031L13.1358 9.7525L10.4938 12.3406L7.8642 9.7525L2.46914 14.7031C2.30864 14.8359 1.93827 14.8491 1.77778 14.6368C1.60494 14.4377 1.7037 14.1457 1.85185 13.9599L6.66667 8.57125L1.65432 3.63389C1.4321 3.40826 1.20988 2.957 1.61728 2.51901C2.02469 2.08102 2.44444 2.29338 2.79012 2.61191L10.4938 9.30124L18.2099 2.61191C18.5556 2.29338 18.9753 2.08102 19.3827 2.51901Z" fill="#FFF0B7"/>
</svg>
