<svg width="49" height="49" viewBox="0 0 49 49" fill="none" xmlns="http://www.w3.org/2000/svg">
<mask id="mask0_1206_8318" style="mask-type:luminance" maskUnits="userSpaceOnUse" x="0" y="0" width="49" height="49">
<path d="M0 0.666992H48.1661V48.667H0V0.666992Z" fill="white"/>
</mask>
<g mask="url(#mask0_1206_8318)">
<path fill-rule="evenodd" clip-rule="evenodd" d="M43.6437 48.667H4.52235C2.03515 48.667 0 46.639 0 44.1602V5.17375C0 2.69512 2.03515 0.666992 4.52235 0.666992H43.6437C46.1311 0.666992 48.1661 2.69512 48.1661 5.17375V44.1602C48.1661 46.639 46.1311 48.667 43.6437 48.667Z" fill="#E82529"/>
</g>
<path fill-rule="evenodd" clip-rule="evenodd" d="M10.3914 9.70557H12.6734C12.8472 9.70557 12.9806 9.85906 12.9559 10.0304L11.8961 17.3569C11.8553 17.6389 12.0748 17.8914 12.3607 17.8914H16.3639C16.4776 17.8914 16.5648 17.9921 16.5482 18.1041L16.2376 20.2084C16.2216 20.3177 16.1274 20.3989 16.0164 20.3989H11.4898C10.1434 20.3989 8.85212 19.2984 9.04211 17.9699L10.1086 9.95256C10.1273 9.81123 10.2482 9.70557 10.3914 9.70557Z" fill="#FEFEFE"/>
<path fill-rule="evenodd" clip-rule="evenodd" d="M18.0016 12.6288L16.957 20.1006C16.9404 20.2191 17.0328 20.325 17.1528 20.325H19.3611C19.5181 20.325 19.6512 20.2096 19.673 20.0546L20.7074 12.7043C20.7294 12.5349 20.5972 12.3848 20.4257 12.3848H18.2829C18.1411 12.3848 18.0212 12.4889 18.0016 12.6288Z" fill="#FEFEFE"/>
<path fill-rule="evenodd" clip-rule="evenodd" d="M22.5564 19.7523C21.8751 19.7278 21.5563 19.9406 21.1543 20.1796C21.2513 19.506 22.0121 14.2562 22.0815 13.9337C22.1549 13.5899 22.2216 13.0163 22.525 12.7269C22.8806 12.3873 23.4309 12.1929 26.1693 12.1841C28.9646 12.1751 29.5061 14.1799 29.3578 15.4826C29.2313 16.5975 28.8154 19.3523 28.698 20.122C28.6801 20.239 28.5798 20.3251 28.4615 20.3251H26.3023C26.1441 20.3251 26.0225 20.1861 26.0446 20.0301C26.1538 19.2605 26.4466 17.2087 26.546 16.6129C26.6692 15.8759 26.7679 15.0649 26.5705 14.7447C26.3732 14.4252 25.7812 14.1799 24.6468 14.3766L23.8077 20.2886C23.8077 20.2886 23.2679 19.778 22.5564 19.7523Z" fill="#FEFEFE"/>
<path fill-rule="evenodd" clip-rule="evenodd" d="M31.6995 9.28125H34.0947C34.1839 9.28125 34.2524 9.35975 34.2402 9.44775L32.7498 20.2076C32.7388 20.2874 32.6702 20.3469 32.5892 20.3469H30.2245C30.1261 20.3469 30.0505 20.2604 30.0641 20.1634L31.554 9.40775C31.5641 9.33525 31.6261 9.28125 31.6995 9.28125Z" fill="#FEFEFE"/>
<path fill-rule="evenodd" clip-rule="evenodd" d="M33.5527 15.7642L36.2597 12.6051C36.345 12.5056 36.4697 12.4482 36.6012 12.4482H38.9775C39.1491 12.4482 39.2394 12.6507 39.1247 12.7776L36.3569 15.8387L38.887 21.2616C38.9799 21.4606 38.834 21.6882 38.6139 21.6882H36.4661C36.3538 21.6882 36.252 21.6231 36.2052 21.5216L33.5527 15.7642Z" fill="#FEFEFE"/>
<path fill-rule="evenodd" clip-rule="evenodd" d="M21.1694 10.3616C20.9758 11.1758 20.2401 11.7816 19.4698 11.7816C18.6996 11.7816 18.1089 11.1216 18.3028 10.3076C18.4964 9.49349 19.1341 8.8335 20.0481 8.8335C20.8182 8.8335 21.3631 9.54748 21.1694 10.3616Z" fill="#FEFEFE"/>
<path fill-rule="evenodd" clip-rule="evenodd" d="M23.605 22.2298C23.4113 23.044 22.6756 23.6498 21.9053 23.6498C21.1352 23.6498 20.5445 22.9898 20.7383 22.1758C20.932 21.3616 21.5697 20.7017 22.4836 20.7017C23.2538 20.7017 23.7987 21.4156 23.605 22.2298Z" fill="#FEFEFE"/>
<path fill-rule="evenodd" clip-rule="evenodd" d="M35.1904 31.959C35.0272 32.7635 34.2838 33.362 33.4741 33.3615C32.6641 33.3612 32.0104 32.7085 32.1736 31.9042C32.3368 31.0997 32.9745 30.4477 33.9355 30.4482C34.7453 30.4487 35.3537 31.1546 35.1904 31.959Z" fill="#FEFEFE"/>
<path fill-rule="evenodd" clip-rule="evenodd" d="M14.803 27.952H13.3529C13.299 27.952 13.2621 27.898 13.2818 27.848L14.5438 24.6558C14.5679 24.5949 14.6578 24.6079 14.6637 24.6729L14.9473 27.7945C14.955 27.879 14.8883 27.952 14.803 27.952ZM18.3161 31.9608L16.6978 22.3083C16.6271 21.8863 16.2605 21.5771 15.8312 21.5771H14.2075C13.7123 21.5771 13.2627 21.8653 13.0577 22.3145L8.69856 31.9728C8.63535 32.113 8.7387 32.2711 8.89273 32.2703L11.1577 32.2571C11.3127 32.2563 11.4522 32.1636 11.5127 32.0216L12.2656 30.2565C12.286 30.2083 12.3334 30.1772 12.3859 30.1772H15.127C15.1942 30.1772 15.2505 30.228 15.2571 30.2947L15.4206 31.965C15.4395 32.1593 15.6036 32.3076 15.7996 32.3076H18.0212C18.206 32.3076 18.3465 32.1423 18.3161 31.9608Z" fill="#FEFEFE"/>
<path fill-rule="evenodd" clip-rule="evenodd" d="M17.2347 33.7091L17.7578 35.3196C17.8518 35.5846 17.9227 35.6434 18.1065 35.6047C18.7673 35.4659 20.3639 34.9957 21.1451 33.9426C22.1634 32.5696 22.3031 30.1423 22.4829 28.9087C22.6309 27.8925 22.955 25.3912 23.0647 24.5411C23.0844 24.3881 22.9648 24.2529 22.81 24.2529H20.7795C20.6001 24.2529 20.4484 24.3849 20.4243 24.5621C20.2606 25.7629 19.6709 30.081 19.5679 30.6795C19.4481 31.376 19.4242 32.3791 18.3903 32.9779C17.8744 33.2766 17.6098 33.3336 17.4056 33.4286C17.3018 33.4769 17.1843 33.5288 17.2347 33.7091Z" fill="#FEFEFE"/>
<path fill-rule="evenodd" clip-rule="evenodd" d="M28.4088 29.9909C28.4088 29.9909 27.35 30.3497 26.8417 29.9697C26.3333 29.5899 26.291 28.8091 26.5875 27.6906C26.8841 26.572 27.6253 26.3821 27.9429 26.361C28.2606 26.3398 28.8578 26.4896 28.8578 26.4896L28.4088 29.9909ZM31.3407 24.5418C30.656 24.3712 29.5049 23.9962 27.6544 24.1313C25.947 24.256 24.0191 25.043 23.658 28.4018C23.2969 31.7605 24.8377 32.4084 27.0525 32.5044C28.6755 32.5747 29.9494 32.1297 30.5143 31.8869C30.711 31.8024 30.848 31.6212 30.8767 31.4097L31.6951 24.943C31.7272 24.6863 31.5984 24.606 31.3407 24.5418Z" fill="#FEFEFE"/>
<path fill-rule="evenodd" clip-rule="evenodd" d="M32.9211 29.3773L33.517 23.1849C33.5384 22.9631 33.7252 22.8726 33.9488 22.8726H36.0044C36.1959 22.8726 36.277 23.0174 36.2241 23.2546L34.9695 29.4553C34.9441 29.5753 34.8381 29.6611 34.715 29.6611H33.1799C33.0265 29.6611 32.9064 29.5294 32.9211 29.3773Z" fill="#FEFEFE"/>
<path fill-rule="evenodd" clip-rule="evenodd" d="M8.86566 40.7958C9.27272 41.02 9.74819 41.0852 10.2007 40.9783C12.0034 40.5527 15.9928 39.4069 24.4316 38.1912C35.0336 36.6639 42.8615 36.6702 42.8615 36.6702L42.882 36.6577C42.882 36.6577 35.9439 35.7078 24.557 36.8161C13.1699 37.9244 6.81445 39.6662 6.81445 39.6662L8.86566 40.7958Z" fill="#FEFEFE"/>
</svg>
