<svg width="12" height="12" viewBox="0 0 12 12" fill="none" xmlns="http://www.w3.org/2000/svg">
<path d="M10.5079 7.50016C10.9008 6.76275 11.1055 5.93973 11.1039 5.10419C11.1039 2.28518 8.81872 0 5.99971 0C3.18069 0 0.895516 2.28518 0.895516 5.10419C0.893397 6.30827 1.31903 7.47396 2.0965 8.39339L2.10251 8.4009L2.10791 8.4069H2.0965L5.12539 11.6225C5.23767 11.7417 5.37314 11.8367 5.52347 11.9016C5.6738 11.9665 5.83581 12 5.99956 12C6.1633 12 6.32532 11.9665 6.47565 11.9016C6.62597 11.8367 6.76144 11.7417 6.87372 11.6225L9.90291 8.4069H9.8915L9.89631 8.4012L9.8969 8.4006C9.91852 8.37478 9.94004 8.34875 9.96146 8.32253C10.1698 8.06662 10.3528 7.7914 10.5079 7.50016ZM6.00121 7.05549C5.52343 7.05549 5.06521 6.86569 4.72737 6.52785C4.38953 6.19001 4.19973 5.7318 4.19973 5.25401C4.19973 4.77623 4.38953 4.31802 4.72737 3.98018C5.06521 3.64233 5.52343 3.45253 6.00121 3.45253C6.47899 3.45253 6.9372 3.64233 7.27504 3.98018C7.61289 4.31802 7.80269 4.77623 7.80269 5.25401C7.80269 5.7318 7.61289 6.19001 7.27504 6.52785C6.9372 6.86569 6.47899 7.05549 6.00121 7.05549Z" fill="#902B29"/>
</svg>
