<svg width="79" height="49" viewBox="0 0 79 49" fill="none" xmlns="http://www.w3.org/2000/svg">
<path d="M48.8311 8.22656H30.1758V41.7067H48.8311V8.22656Z" fill="#FF5F00"/>
<path d="M31.3593 24.9667C31.3593 18.46 34.3797 12.249 39.4729 8.22663C30.234 0.950917 16.8496 2.54803 9.56512 11.8349C2.28066 21.0626 3.87969 34.431 13.1777 41.7067C20.936 47.7994 31.7738 47.7994 39.5321 41.7067C34.3797 37.6844 31.3593 31.4734 31.3593 24.9667Z" fill="#EB001B"/>
<path d="M73.9992 24.9667C73.9992 36.738 64.4642 46.2615 52.6788 46.2615C47.8817 46.2615 43.2623 44.6644 39.5312 41.7068C48.7701 34.431 50.3691 21.0626 43.0846 11.7758C42.0186 10.4744 40.8342 9.23222 39.5312 8.22663C48.7701 0.950917 62.2138 2.54803 69.439 11.8349C72.4002 15.5615 73.9992 20.1754 73.9992 24.9667Z" fill="#F79E1B"/>
<path d="M71.9868 38.1577V37.4479H72.2829V37.3296H71.5723V37.4479H71.8684V38.1577H71.9868ZM73.349 38.1577V37.3296H73.1121L72.8752 37.9211L72.6383 37.3296H72.4014V38.1577H72.5791V37.507L72.816 38.0394H72.9936L73.2305 37.507V38.1577H73.349Z" fill="#F79E1B"/>
</svg>
