<svg width="98" height="92" viewBox="0 0 98 92" fill="none" xmlns="http://www.w3.org/2000/svg">
<rect x="1" y="-1" width="29" height="29" rx="14.5" transform="matrix(1 0 0 -1 0.390991 89.7209)" stroke="#3F8044" stroke-width="2"/>
<rect x="-1" y="1" width="25" height="25" rx="12.5" transform="matrix(1 0 0 -1 4.39099 89.7209)" stroke="white" stroke-width="2"/>
<rect x="1" y="-1" width="21" height="21" rx="10.5" transform="matrix(1 0 0 -1 4.39099 85.7209)" stroke="#3F8044" stroke-width="2"/>
<rect x="1" y="-1" width="17" height="17" rx="8.5" transform="matrix(1 0 0 -1 6.39099 83.7209)" stroke="white" stroke-width="2"/>
<rect x="-1" y="1" width="13" height="13" rx="6.5" transform="matrix(1 0 0 -1 10.391 83.7209)" stroke="#3F8044" stroke-width="2"/>
<rect x="1" y="-1" width="9" height="9" rx="4.5" transform="matrix(1 0 0 -1 10.391 79.7209)" stroke="white" stroke-width="2"/>
<circle cx="2.5" cy="2.5" r="3.25" transform="matrix(1 0 0 -1 13.391 78.7209)" fill="white" stroke="#3F8044" stroke-width="1.5"/>
<rect x="1" y="-1" width="29" height="29" rx="14.5" transform="matrix(1 0 0 -1 0.390991 29.7209)" stroke="#3F8044" stroke-width="2"/>
<rect x="-1" y="1" width="25" height="25" rx="12.5" transform="matrix(1 0 0 -1 4.39099 29.7209)" stroke="white" stroke-width="2"/>
<rect x="1" y="-1" width="21" height="21" rx="10.5" transform="matrix(1 0 0 -1 4.39099 25.7209)" stroke="#3F8044" stroke-width="2"/>
<rect x="1" y="-1" width="17" height="17" rx="8.5" transform="matrix(1 0 0 -1 6.39099 23.7209)" stroke="white" stroke-width="2"/>
<rect x="-1" y="1" width="13" height="13" rx="6.5" transform="matrix(1 0 0 -1 10.391 23.7209)" stroke="#3F8044" stroke-width="2"/>
<rect x="1" y="-1" width="9" height="9" rx="4.5" transform="matrix(1 0 0 -1 10.391 19.7209)" stroke="white" stroke-width="2"/>
<circle cx="2.5" cy="2.5" r="3.25" transform="matrix(1 0 0 -1 13.391 18.7209)" fill="white" stroke="#3F8044" stroke-width="1.5"/>
<rect x="1" y="-1" width="29" height="29" rx="14.5" transform="matrix(1 0 0 -1 66.391 89.7209)" stroke="#3F8044" stroke-width="2"/>
<rect x="-1" y="1" width="25" height="25" rx="12.5" transform="matrix(1 0 0 -1 70.391 89.7209)" stroke="white" stroke-width="2"/>
<rect x="1" y="-1" width="21" height="21" rx="10.5" transform="matrix(1 0 0 -1 70.391 85.7209)" stroke="#3F8044" stroke-width="2"/>
<rect x="1" y="-1" width="17" height="17" rx="8.5" transform="matrix(1 0 0 -1 72.391 83.7209)" stroke="white" stroke-width="2"/>
<rect x="-1" y="1" width="13" height="13" rx="6.5" transform="matrix(1 0 0 -1 76.391 83.7209)" stroke="#3F8044" stroke-width="2"/>
<rect x="1" y="-1" width="9" height="9" rx="4.5" transform="matrix(1 0 0 -1 76.391 79.7209)" stroke="white" stroke-width="2"/>
<circle cx="2.5" cy="2.5" r="3.25" transform="matrix(1 0 0 -1 79.391 78.7209)" fill="white" stroke="#3F8044" stroke-width="1.5"/>
<rect x="1" y="-1" width="29" height="29" rx="14.5" transform="matrix(1 0 0 -1 66.391 29.7209)" stroke="#3F8044" stroke-width="2"/>
<rect x="-1" y="1" width="25" height="25" rx="12.5" transform="matrix(1 0 0 -1 70.391 29.7209)" stroke="white" stroke-width="2"/>
<rect x="1" y="-1" width="21" height="21" rx="10.5" transform="matrix(1 0 0 -1 70.391 25.7209)" stroke="#3F8044" stroke-width="2"/>
<rect x="1" y="-1" width="17" height="17" rx="8.5" transform="matrix(1 0 0 -1 72.391 23.7209)" stroke="white" stroke-width="2"/>
<rect x="-1" y="1" width="13" height="13" rx="6.5" transform="matrix(1 0 0 -1 76.391 23.7209)" stroke="#3F8044" stroke-width="2"/>
<rect x="1" y="-1" width="9" height="9" rx="4.5" transform="matrix(1 0 0 -1 76.391 19.7209)" stroke="white" stroke-width="2"/>
<circle cx="2.5" cy="2.5" r="3.25" transform="matrix(1 0 0 -1 79.391 18.7209)" fill="white" stroke="#3F8044" stroke-width="1.5"/>
<rect x="1" y="-1" width="29" height="29" rx="14.5" transform="matrix(1 0 0 -1 0.390991 59.7209)" stroke="#3F8044" stroke-width="2"/>
<rect x="-1" y="1" width="25" height="25" rx="12.5" transform="matrix(1 0 0 -1 4.39099 59.7209)" stroke="white" stroke-width="2"/>
<rect x="1" y="-1" width="21" height="21" rx="10.5" transform="matrix(1 0 0 -1 4.39099 55.7209)" stroke="#3F8044" stroke-width="2"/>
<rect x="1" y="-1" width="17" height="17" rx="8.5" transform="matrix(1 0 0 -1 6.39099 53.7209)" stroke="white" stroke-width="2"/>
<rect x="-1" y="1" width="13" height="13" rx="6.5" transform="matrix(1 0 0 -1 10.391 53.7209)" stroke="#3F8044" stroke-width="2"/>
<rect x="1" y="-1" width="9" height="9" rx="4.5" transform="matrix(1 0 0 -1 10.391 49.7209)" stroke="white" stroke-width="2"/>
<circle cx="2.5" cy="2.5" r="3.25" transform="matrix(1 0 0 -1 13.391 48.7209)" fill="white" stroke="#3F8044" stroke-width="1.5"/>
<rect x="1" y="-1" width="29" height="29" rx="14.5" transform="matrix(1 0 0 -1 25.391 47.7209)" stroke="#3F8044" stroke-width="2"/>
<rect x="-1" y="1" width="25" height="25" rx="12.5" transform="matrix(1 0 0 -1 29.391 47.7209)" stroke="white" stroke-width="2"/>
<rect x="1" y="-1" width="21" height="21" rx="10.5" transform="matrix(1 0 0 -1 29.391 43.7209)" stroke="#3F8044" stroke-width="2"/>
<rect x="1" y="-1" width="17" height="17" rx="8.5" transform="matrix(1 0 0 -1 31.391 41.7209)" stroke="white" stroke-width="2"/>
<rect x="-1" y="1" width="13" height="13" rx="6.5" transform="matrix(1 0 0 -1 35.391 41.7209)" stroke="#3F8044" stroke-width="2"/>
<rect x="1" y="-1" width="9" height="9" rx="4.5" transform="matrix(1 0 0 -1 35.391 37.7209)" stroke="white" stroke-width="2"/>
<circle cx="2.5" cy="2.5" r="3.25" transform="matrix(1 0 0 -1 38.391 36.7209)" fill="white" stroke="#3F8044" stroke-width="1.5"/>
<rect x="1" y="-1" width="29" height="29" rx="14.5" transform="matrix(1 0 0 -1 66 60)" stroke="#3F8044" stroke-width="2"/>
<rect x="-1" y="1" width="25" height="25" rx="12.5" transform="matrix(1 0 0 -1 70 60)" stroke="white" stroke-width="2"/>
<rect x="1" y="-1" width="21" height="21" rx="10.5" transform="matrix(1 0 0 -1 70 56)" stroke="#3F8044" stroke-width="2"/>
<rect x="1" y="-1" width="17" height="17" rx="8.5" transform="matrix(1 0 0 -1 72 54)" stroke="white" stroke-width="2"/>
<rect x="-1" y="1" width="13" height="13" rx="6.5" transform="matrix(1 0 0 -1 76 54)" stroke="#3F8044" stroke-width="2"/>
<rect x="1" y="-1" width="9" height="9" rx="4.5" transform="matrix(1 0 0 -1 76 50)" stroke="white" stroke-width="2"/>
<circle cx="2.5" cy="2.5" r="3.25" transform="matrix(1 0 0 -1 79 49)" fill="white" stroke="#3F8044" stroke-width="1.5"/>
<rect x="1" y="-1" width="29" height="29" rx="14.5" transform="matrix(1 0 0 -1 41.391 72.7209)" stroke="#3F8044" stroke-width="2"/>
<rect x="-1" y="1" width="25" height="25" rx="12.5" transform="matrix(1 0 0 -1 45.391 72.7209)" stroke="white" stroke-width="2"/>
<rect x="1" y="-1" width="21" height="21" rx="10.5" transform="matrix(1 0 0 -1 45.391 68.7209)" stroke="#3F8044" stroke-width="2"/>
<rect x="1" y="-1" width="17" height="17" rx="8.5" transform="matrix(1 0 0 -1 47.391 66.7209)" stroke="white" stroke-width="2"/>
<rect x="-1" y="1" width="13" height="13" rx="6.5" transform="matrix(1 0 0 -1 51.391 66.7209)" stroke="#3F8044" stroke-width="2"/>
<rect x="1" y="-1" width="9" height="9" rx="4.5" transform="matrix(1 0 0 -1 51.391 62.7209)" stroke="white" stroke-width="2"/>
<circle cx="2.5" cy="2.5" r="3.25" transform="matrix(1 0 0 -1 54.391 61.7209)" fill="white" stroke="#3F8044" stroke-width="1.5"/>
</svg>
