<svg width="31" height="37" viewBox="0 0 31 37" fill="none" xmlns="http://www.w3.org/2000/svg">
<path d="M30.5746 29.1022L30.2258 28.782C29.2364 27.8648 28.3702 26.8132 27.6506 25.6556C26.8641 24.0581 26.3931 22.313 26.2655 20.5232V15.2521C26.2722 12.4411 25.2918 9.72425 23.5083 7.61206C21.7249 5.49986 19.2612 4.13767 16.5801 3.78143V2.40496C16.5801 2.02716 16.4358 1.66484 16.1789 1.39769C15.922 1.13055 15.5736 0.980469 15.2104 0.980469C14.8471 0.980469 14.4987 1.13055 14.2418 1.39769C13.985 1.66484 13.8407 2.02716 13.8407 2.40496V3.80277C11.1836 4.1847 8.74965 5.55512 6.98962 7.66022C5.22958 9.76532 4.26273 12.4624 4.26814 15.2521V20.5232C4.14046 22.313 3.6695 24.0581 2.88304 25.6556C2.17601 26.8105 1.32373 27.862 0.348838 28.782L0 29.1022V32.1112H30.5746V29.1022Z" fill="#2C2C2C"/>
<path d="M12.5889 33.2314C12.6788 33.9078 13.0011 34.5275 13.4961 34.976C13.9912 35.4245 14.6256 35.6716 15.2821 35.6716C15.9387 35.6716 16.573 35.4245 17.0681 34.976C17.5631 34.5275 17.8854 33.9078 17.9753 33.2314H12.5889Z" fill="#2C2C2C"/>
</svg>
