<svg width="18" height="19" viewBox="0 0 18 19" fill="none" xmlns="http://www.w3.org/2000/svg">
<path fill-rule="evenodd" clip-rule="evenodd" d="M13.2414 16.6826C11.9432 16.6384 8.26404 16.1682 4.41092 12.6053C0.558713 9.04165 0.0511543 5.63973 0.00247198 4.43821C-0.0696499 2.60718 1.44671 0.828677 3.19837 0.134118C3.40931 0.0498764 3.6403 0.0178029 3.86869 0.0410452C4.09707 0.0642875 4.31499 0.142047 4.50108 0.266693C5.94351 1.23891 6.9388 2.70974 7.79344 3.86622C7.98149 4.12031 8.06189 4.4295 8.01933 4.73488C7.97676 5.04026 7.81422 5.32048 7.56265 5.52216L5.80378 6.73034C5.7188 6.78709 5.65899 6.87044 5.63544 6.96491C5.6119 7.05937 5.62622 7.15853 5.67576 7.24396C6.07424 7.91351 6.78283 8.91074 7.59421 9.66116C8.40558 10.4116 9.53519 11.1103 10.3096 11.5205C10.4067 11.571 10.521 11.585 10.629 11.5599C10.737 11.5348 10.8304 11.4724 10.8902 11.3855L12.0351 9.77372C12.2456 9.51512 12.5561 9.34187 12.9016 9.29027C13.2471 9.23867 13.6008 9.31272 13.8886 9.4969C15.1571 10.309 16.6374 11.2137 17.721 12.4969C17.8667 12.6703 17.9594 12.8766 17.9894 13.0945C18.0194 13.3123 17.9855 13.5335 17.8914 13.7351C17.1368 15.3635 15.2274 16.7502 13.2414 16.6826Z" fill="#FFF0B7"/>
</svg>
