<svg width="59" height="61" viewBox="0 0 59 61" fill="none" xmlns="http://www.w3.org/2000/svg">
<path fill-rule="evenodd" clip-rule="evenodd" d="M29.5742 0.5C33.3825 0.499982 37.1535 1.26663 40.672 2.75617C44.1904 4.2457 47.3874 6.42896 50.0803 9.18128C52.7732 11.9336 54.9093 15.2011 56.3667 18.7972C57.8241 22.3933 58.5742 26.2475 58.5742 30.1399C58.5742 46.5097 45.5904 59.78 29.5742 59.78C13.558 59.78 0.574219 46.5097 0.574219 30.1399C0.574219 13.7703 13.558 0.5 29.5742 0.5ZM32.4742 33.104H26.6742C19.4947 33.104 13.3309 37.5482 10.6723 43.8922C14.8788 49.9209 21.7773 53.852 29.5742 53.852C37.371 53.852 44.2695 49.9209 48.4761 43.8918C45.8176 37.5482 39.6538 33.104 32.4742 33.104ZM29.5742 9.39199C24.7693 9.39199 20.8742 13.3731 20.8742 18.284C20.8742 23.1949 24.7693 27.176 29.5742 27.176C34.379 27.176 38.2741 23.1949 38.2741 18.284C38.2741 13.3731 34.3791 9.39199 29.5742 9.39199Z" fill="#2C2C2C"/>
</svg>
