<svg width="70" height="70" viewBox="0 0 70 70" fill="none" xmlns="http://www.w3.org/2000/svg">
<rect x="9" y="9" width="52" height="52" rx="26" stroke="#3F8044" stroke-width="2"/>
<rect x="11" y="11" width="48" height="48" rx="24" fill="#C45B59"/>
<rect x="11" y="11" width="48" height="48" rx="24" stroke="#D9D9D9" stroke-width="2"/>
<path d="M24 36.5C23.4333 36.5 22.9587 36.356 22.576 36.068C22.1933 35.78 22.0013 35.424 22 35C21.9987 34.576 22.1907 34.22 22.576 33.932C22.9613 33.644 23.436 33.5 24 33.5H48C48.5667 33.5 49.042 33.644 49.426 33.932C49.81 34.22 50.0013 34.576 50 35C49.9987 35.424 49.8067 35.7805 49.424 36.0695C49.0413 36.3585 48.5667 36.502 48 36.5H24Z" fill="white"/>
</svg>
