<svg width="12" height="14" viewBox="0 0 12 14" fill="none" xmlns="http://www.w3.org/2000/svg">
<path d="M6.35579 12.7547L6.34919 12.7559L6.30659 12.7769L6.29459 12.7793L6.28619 12.7769L6.24359 12.7559C6.23719 12.7539 6.23239 12.7549 6.22919 12.7589L6.22679 12.7649L6.21659 13.0217L6.21959 13.0337L6.22559 13.0415L6.28799 13.0859L6.29699 13.0883L6.30419 13.0859L6.36659 13.0415L6.37379 13.0319L6.37619 13.0217L6.36599 12.7655C6.36439 12.7591 6.36099 12.7555 6.35579 12.7547ZM6.51479 12.6869L6.50699 12.6881L6.39599 12.7439L6.38999 12.7499L6.38819 12.7565L6.39899 13.0145L6.40199 13.0217L6.40679 13.0259L6.52739 13.0817C6.53499 13.0837 6.54079 13.0821 6.54479 13.0769L6.54719 13.0685L6.52679 12.7001C6.52479 12.6929 6.52079 12.6885 6.51479 12.6869ZM6.08579 12.6881C6.08315 12.6865 6.07999 12.686 6.07697 12.6867C6.07395 12.6874 6.07131 12.6892 6.06959 12.6917L6.06599 12.7001L6.04559 13.0685C6.04599 13.0757 6.04939 13.0805 6.05579 13.0829L6.06479 13.0817L6.18539 13.0259L6.19139 13.0211L6.19379 13.0145L6.20399 12.7565L6.20219 12.7493L6.19619 12.7433L6.08579 12.6881Z" fill="#902B29"/>
<path d="M6 0C6.5376 0 7.0584 0.0708 7.554 0.2034L6.2784 1.4784C6.18163 1.57556 6.09627 1.68346 6.024 1.8H6C5.16932 1.8 4.35729 2.04633 3.66661 2.50783C2.97592 2.96933 2.43759 3.62528 2.11971 4.39273C1.80182 5.16018 1.71864 6.00466 1.8807 6.81938C2.04276 7.6341 2.44277 8.38247 3.03015 8.96985C3.61753 9.55723 4.3659 9.95724 5.18062 10.1193C5.99534 10.2814 6.83982 10.1982 7.60727 9.88029C8.37472 9.56241 9.03067 9.02408 9.49217 8.3334C9.95367 7.64271 10.2 6.83068 10.2 6V5.976C10.316 5.904 10.423 5.819 10.521 5.721L11.7966 4.446C11.9292 4.9416 12 5.4624 12 6C12 9.3138 9.3138 12 6 12C2.6862 12 0 9.3138 0 6C0 2.6862 2.6862 0 6 0ZM5.7516 3.0102C5.7516 3.5208 5.7264 4.0386 5.754 4.5486L5.43 4.8726C5.31855 4.98405 5.23014 5.11637 5.16982 5.26199C5.1095 5.40761 5.07846 5.56368 5.07846 5.7213C5.07846 5.87892 5.1095 6.03499 5.16982 6.18061C5.23014 6.32623 5.31855 6.45855 5.43 6.57C5.54145 6.68145 5.67377 6.76986 5.81939 6.83018C5.96501 6.8905 6.12108 6.92154 6.2787 6.92154C6.43632 6.92154 6.59239 6.8905 6.73801 6.83018C6.88363 6.76986 7.01595 6.68145 7.1274 6.57L7.4514 6.246C7.9614 6.2736 8.4786 6.2484 8.9898 6.2484C8.9424 6.8186 8.73293 7.36336 8.3861 7.81843C8.03926 8.27349 7.56952 8.61988 7.03228 8.81674C6.49504 9.0136 5.91271 9.05271 5.35397 8.92948C4.79522 8.80624 4.28338 8.5258 3.87879 8.12121C3.4742 7.71662 3.19376 7.20478 3.07052 6.64603C2.94729 6.08729 2.9864 5.50496 3.18326 4.96772C3.38012 4.43048 3.72651 3.96074 4.18157 3.6139C4.63664 3.26707 5.1814 3.0576 5.7516 3.0102ZM9.9024 0.0762001C10.0119 0.121607 10.1055 0.198442 10.1714 0.297006C10.2373 0.395569 10.2725 0.511443 10.2726 0.63V1.728H11.37C11.4887 1.72803 11.6046 1.76323 11.7033 1.82916C11.8019 1.89509 11.8788 1.98879 11.9242 2.09841C11.9696 2.20803 11.9815 2.32865 11.9584 2.44502C11.9352 2.56139 11.8781 2.66829 11.7942 2.7522L9.672 4.872C9.55951 4.98453 9.40692 5.04777 9.2478 5.0478H7.8L6.7032 6.1452C6.59062 6.25778 6.43792 6.32103 6.2787 6.32103C6.11948 6.32103 5.96678 6.25778 5.8542 6.1452C5.74162 6.03262 5.67837 5.87992 5.67837 5.7207C5.67837 5.56148 5.74162 5.40878 5.8542 5.2962L6.9516 4.2V2.7516C6.95154 2.67271 6.96703 2.59459 6.9972 2.52169C7.02737 2.4488 7.07161 2.38257 7.1274 2.3268L9.2484 0.2058C9.33231 0.12184 9.43923 0.064655 9.55565 0.0414788C9.67206 0.0183026 9.79274 0.0301771 9.9024 0.0756" fill="#902B29"/>
</svg>
