<svg width="147" height="107" viewBox="0 0 147 107" fill="none" xmlns="http://www.w3.org/2000/svg">
<ellipse cx="73.5" cy="97.0879" rx="73.5" ry="9" fill="#902B29"/>
<path d="M73.8105 2.33203C106.538 2.33211 132.207 23.105 132.207 47.7861C132.207 72.4673 106.538 93.2402 73.8105 93.2402C41.083 93.2402 15.4141 72.4674 15.4141 47.7861C15.4142 23.105 41.083 2.33203 73.8105 2.33203Z" fill="#FFF7D9" stroke="#161A3A" stroke-width="4"/>
<path d="M60.8668 47.3808C60.8668 48.3542 59.386 47.7875 57.5594 47.7875C55.7327 47.7875 54.252 48.3542 54.252 47.3808C54.252 46.4073 55.7327 45.6182 57.5594 45.6182C59.386 45.6182 60.8668 46.4073 60.8668 47.3808Z" fill="#161A3A"/>
<path d="M93.6544 47.3808C93.6544 48.3542 92.1736 47.9231 90.347 47.9231C88.5203 47.9231 87.0396 48.3542 87.0396 47.3808C87.0396 46.4073 88.5203 45.6182 90.347 45.6182C92.1736 45.6182 93.6544 46.4073 93.6544 47.3808Z" fill="#161A3A"/>
<path d="M66.7705 53.0596C69.302 56.2431 74.5883 60.8738 80.8425 53.0596" stroke="#161A3A" stroke-width="4" stroke-linecap="round" stroke-linejoin="round"/>
</svg>
