<svg width="20" height="22" viewBox="0 0 20 22" fill="none" xmlns="http://www.w3.org/2000/svg">
<path d="M16.6664 8.31665L16.2064 15.2167C16.0294 17.8707 15.9414 19.1977 15.0764 20.0067C14.2114 20.8157 12.8804 20.8167 10.2204 20.8167H9.44643C6.78643 20.8167 5.45543 20.8167 4.59043 20.0067C3.72543 19.1977 3.63643 17.8707 3.46043 15.2167L3.00043 8.31665M7.33343 10.8167L7.83343 15.8167M12.3334 10.8167L11.8334 15.8167" stroke="#902B29" stroke-width="1.5" stroke-linecap="round"/>
<path d="M4.47537 5.38551L4.5837 5.3664C4.97824 5.28639 5.33946 5.08918 5.62011 4.80055C5.90075 4.51192 6.08776 4.14532 6.15668 3.74868L6.17228 3.64134L6.21727 3.33792C6.25577 3.07829 6.2756 2.94888 6.31136 2.83494C6.38187 2.61169 6.50366 2.40805 6.66698 2.24031C6.8303 2.07257 7.03062 1.94539 7.2519 1.86894C7.36383 1.82991 7.49284 1.80716 7.75086 1.76167L10.9909 1.19037C11.2489 1.14487 11.3779 1.12212 11.4964 1.12052C11.7305 1.11667 11.9622 1.16767 12.1731 1.26944C12.3839 1.3712 12.568 1.52091 12.7106 1.70657C12.7832 1.80141 12.8461 1.91624 12.9711 2.14704L13.1171 2.41678C13.3151 2.80964 13.6371 3.12628 14.0332 3.31766C14.4293 3.50903 14.8774 3.56447 15.3083 3.47538M18.2627 2.95443L1.52094 5.90645" stroke="#902B29" stroke-width="1.5" stroke-linecap="round" stroke-linejoin="round"/>
</svg>
