<svg width="122" height="198" viewBox="0 0 122 198" fill="none" xmlns="http://www.w3.org/2000/svg">
<circle cx="14" cy="14.5" r="13.5" fill="#3F8044"/>
<circle cx="14" cy="36.5" r="13.5" fill="#3F8044"/>
<circle cx="14" cy="59.5" r="13.5" fill="#3F8044"/>
<path d="M14.5 64L14.5 9" stroke="#FFF7D9" stroke-width="5" stroke-linecap="square"/>
<circle cx="108" cy="13.5" r="13.5" fill="#2C2C2C"/>
<circle cx="108" cy="35.5" r="13.5" fill="#2C2C2C"/>
<circle cx="108" cy="58.5" r="13.5" fill="#2C2C2C"/>
<path d="M108.5 63L108.5 8" stroke="#FFF7D9" stroke-width="5" stroke-linecap="square"/>
<circle cx="14" cy="91.5" r="13.5" fill="#3F8044"/>
<circle cx="14" cy="113.5" r="13.5" fill="#3F8044"/>
<circle cx="14" cy="136.5" r="13.5" fill="#3F8044"/>
<path d="M14.5 141L14.5 86" stroke="#FFF7D9" stroke-width="5" stroke-linecap="square"/>
<circle cx="108" cy="90.5" r="13.5" fill="#2C2C2C"/>
<circle cx="108" cy="112.5" r="13.5" fill="#2C2C2C"/>
<circle cx="108" cy="135.5" r="13.5" fill="#2C2C2C"/>
<path d="M108.5 140L108.5 85" stroke="#FFF7D9" stroke-width="5" stroke-linecap="square"/>
<circle cx="61" cy="139.5" r="13.5" fill="#902B29"/>
<circle cx="61" cy="161.5" r="13.5" fill="#902B29"/>
<circle cx="61" cy="184.5" r="13.5" fill="#902B29"/>
<path d="M61.5 189L61.5 134" stroke="#FFF7D9" stroke-width="5" stroke-linecap="square"/>
</svg>
