<svg xmlns="http://www.w3.org/2000/svg" xmlns:xlink="http://www.w3.org/1999/xlink" width="301" zoomAndPan="magnify" viewBox="0 0 225.75 169.5" height="226" preserveAspectRatio="xMidYMid meet" version="1.2"><defs><clipPath id="3d665d6d64"><path d="M 168 0.128906 L 224.546875 0.128906 L 224.546875 57 L 168 57 Z M 168 0.128906 "/></clipPath><clipPath id="4fc8a0da42"><path d="M 112 0.128906 L 169 0.128906 L 169 57 L 112 57 Z M 112 0.128906 "/></clipPath><clipPath id="9ab793299d"><path d="M 56 0.128906 L 113 0.128906 L 113 57 L 56 57 Z M 56 0.128906 "/></clipPath><clipPath id="b0839abe4e"><path d="M 0.371094 0.128906 L 57 0.128906 L 57 57 L 0.371094 57 Z M 0.371094 0.128906 "/></clipPath><clipPath id="e68700c8ee"><path d="M 196 28 L 224.546875 28 L 224.546875 57 L 196 57 Z M 196 28 "/></clipPath><clipPath id="1c19afe259"><path d="M 196 0.128906 L 224.546875 0.128906 L 224.546875 29 L 196 29 Z M 196 0.128906 "/></clipPath><clipPath id="a1a2cea276"><path d="M 168 0.128906 L 197 0.128906 L 197 29 L 168 29 Z M 168 0.128906 "/></clipPath><clipPath id="9590aabb6d"><path d="M 168 56 L 224.546875 56 L 224.546875 113 L 168 113 Z M 168 56 "/></clipPath><clipPath id="8b3a29ff5b"><path d="M 168 112 L 224.546875 112 L 224.546875 168.253906 L 168 168.253906 Z M 168 112 "/></clipPath><clipPath id="7328437bf8"><path d="M 69.261719 24.3125 L 86.460938 24.3125 L 86.460938 41.511719 L 69.261719 41.511719 Z M 69.261719 24.3125 "/></clipPath></defs><g id="a0cba78853"><g clip-rule="nonzero" clip-path="url(#3d665d6d64)"><path style=" stroke:none;fill-rule:evenodd;fill:#8cc342;fill-opacity:1;" d="M 224.710938 56.222656 L 168.628906 56.222656 L 168.628906 0.140625 L 224.710938 0.140625 Z M 224.710938 56.222656 "/></g><g clip-rule="nonzero" clip-path="url(#4fc8a0da42)"><path style=" stroke:none;fill-rule:evenodd;fill:#fff0b7;fill-opacity:1;" d="M 168.628906 56.222656 L 112.554688 56.222656 L 112.554688 0.140625 C 143.515625 0.140625 168.628906 25.25 168.628906 56.222656 Z M 168.628906 56.222656 "/></g><path style=" stroke:none;fill-rule:evenodd;fill:#8cc342;fill-opacity:1;" d="M 112.554688 56.222656 L 168.628906 56.222656 L 168.628906 112.296875 C 137.652344 112.296875 112.554688 87.195312 112.554688 56.222656 Z M 112.554688 56.222656 "/><g clip-rule="nonzero" clip-path="url(#9ab793299d)"><path style=" stroke:none;fill-rule:evenodd;fill:#393536;fill-opacity:1;" d="M 112.554688 0.140625 L 56.46875 0.140625 L 56.46875 56.222656 C 87.441406 56.222656 112.554688 31.113281 112.554688 0.140625 Z M 112.554688 0.140625 "/></g><path style=" stroke:none;fill-rule:evenodd;fill:#eff0ee;fill-opacity:1;" d="M 56.46875 56.222656 L 112.554688 56.222656 L 112.554688 112.296875 C 81.582031 112.296875 56.46875 87.195312 56.46875 56.222656 Z M 56.46875 56.222656 "/><g clip-rule="nonzero" clip-path="url(#b0839abe4e)"><path style=" stroke:none;fill-rule:evenodd;fill:#8cc342;fill-opacity:1;" d="M 0.382812 56.222656 C 0.382812 25.25 25.496094 0.140625 56.46875 0.140625 L 56.46875 23.269531 C 38.273438 23.269531 23.515625 38.015625 23.515625 56.222656 Z M 0.382812 56.222656 "/></g><path style=" stroke:none;fill-rule:evenodd;fill:#fff0b7;fill-opacity:1;" d="M 56.46875 33.75 C 44.054688 33.75 33.996094 43.808594 33.996094 56.222656 L 56.46875 56.222656 Z M 56.46875 33.75 "/><g clip-rule="nonzero" clip-path="url(#e68700c8ee)"><path style=" stroke:none;fill-rule:evenodd;fill:#eff0ee;fill-opacity:1;" d="M 196.667969 28.179688 C 197.5 46.046875 208.484375 53.75 224.710938 56.222656 C 222.25 39.996094 214.535156 29.011719 196.667969 28.179688 Z M 196.667969 28.179688 "/></g><g clip-rule="nonzero" clip-path="url(#1c19afe259)"><path style=" stroke:none;fill-rule:evenodd;fill:#eff0ee;fill-opacity:1;" d="M 196.667969 28.179688 C 197.5 10.3125 208.484375 2.601562 224.710938 0.140625 C 222.25 16.363281 214.535156 27.347656 196.667969 28.179688 Z M 196.667969 28.179688 "/></g><path style=" stroke:none;fill-rule:evenodd;fill:#eff0ee;fill-opacity:1;" d="M 196.667969 28.179688 C 195.835938 46.046875 184.851562 53.75 168.628906 56.222656 C 171.089844 39.996094 178.800781 29.011719 196.667969 28.179688 Z M 196.667969 28.179688 "/><g clip-rule="nonzero" clip-path="url(#a1a2cea276)"><path style=" stroke:none;fill-rule:evenodd;fill:#eff0ee;fill-opacity:1;" d="M 196.667969 28.179688 C 195.835938 10.3125 184.851562 2.601562 168.628906 0.140625 C 171.089844 16.363281 178.800781 27.347656 196.667969 28.179688 Z M 196.667969 28.179688 "/></g><g clip-rule="nonzero" clip-path="url(#9590aabb6d)"><path style=" stroke:none;fill-rule:evenodd;fill:#393536;fill-opacity:1;" d="M 224.710938 56.222656 L 168.628906 112.296875 L 224.710938 112.296875 Z M 224.710938 56.222656 "/></g><g clip-rule="nonzero" clip-path="url(#8b3a29ff5b)"><path style=" stroke:none;fill-rule:evenodd;fill:#fff0b7;fill-opacity:1;" d="M 224.710938 168.378906 L 168.628906 168.378906 L 168.628906 112.296875 L 224.710938 112.296875 Z M 224.710938 168.378906 "/></g><path style=" stroke:none;fill-rule:evenodd;fill:#902b29;fill-opacity:1;" d="M 196.667969 119 C 184.910156 119 175.332031 128.578125 175.332031 140.339844 C 175.332031 152.097656 184.910156 161.675781 196.667969 161.675781 C 208.425781 161.675781 218.003906 152.097656 218.003906 140.339844 C 218.003906 128.578125 208.425781 119 196.667969 119 Z M 196.667969 119 "/><path style=" stroke:none;fill-rule:evenodd;fill:#902b29;fill-opacity:1;" d="M 141.769531 56.222656 L 168.628906 56.222656 L 168.628906 83.070312 C 153.796875 83.070312 141.769531 71.054688 141.769531 56.222656 Z M 141.769531 56.222656 "/><g clip-rule="nonzero" clip-path="url(#7328437bf8)"><path style=" stroke:none;fill-rule:nonzero;fill:#eff0ee;fill-opacity:1;" d="M 77.863281 24.3125 C 76.855469 31.085938 76.039062 31.902344 69.261719 32.910156 C 76.039062 33.917969 76.855469 34.734375 77.863281 41.511719 C 78.871094 34.734375 79.6875 33.917969 86.460938 32.910156 C 79.6875 31.902344 78.871094 31.085938 77.863281 24.3125 Z M 77.863281 24.3125 "/></g><path style=" stroke:none;fill-rule:nonzero;fill:#f7941e;fill-opacity:1;" d="M 88.152344 79.449219 L 88.148438 79.449219 C 88.042969 79.34375 88.035156 79.230469 88.125 79.109375 C 96.332031 67.953125 77.160156 67.953125 85.367188 79.109375 C 85.457031 79.230469 85.449219 79.34375 85.339844 79.449219 C 85.234375 79.554688 85.121094 79.5625 85 79.472656 C 73.84375 71.265625 73.84375 90.4375 85 82.226562 C 85.121094 82.140625 85.234375 82.148438 85.339844 82.253906 L 85.339844 82.257812 C 85.445312 82.363281 85.453125 82.476562 85.363281 82.597656 C 77.15625 93.75 96.328125 93.75 88.121094 82.597656 C 88.03125 82.476562 88.042969 82.363281 88.148438 82.257812 L 88.152344 82.253906 C 88.253906 82.148438 88.367188 82.140625 88.488281 82.226562 C 99.644531 90.4375 99.644531 71.265625 88.488281 79.472656 C 88.371094 79.558594 88.257812 79.550781 88.152344 79.449219 Z M 88.152344 79.449219 "/></g></svg>