<svg xmlns="http://www.w3.org/2000/svg" xmlns:xlink="http://www.w3.org/1999/xlink" width="387" zoomAndPan="magnify" viewBox="0 0 290.25 254.250006" height="339" preserveAspectRatio="xMidYMid meet" version="1.2"><defs><clipPath id="7b87212c20"><path d="M 107 138.640625 L 142.046875 138.640625 L 142.046875 175 L 107 175 Z M 107 138.640625 "/></clipPath><clipPath id="f6788ff73a"><path d="M 71.277344 176 L 107 176 L 107 211.921875 L 71.277344 211.921875 Z M 71.277344 176 "/></clipPath><clipPath id="82da48e459"><path d="M 89 138.640625 L 107 138.640625 L 107 157 L 89 157 Z M 89 138.640625 "/></clipPath><clipPath id="134fb4ead9"><path d="M 71.277344 138.640625 L 90 138.640625 L 90 157 L 71.277344 157 Z M 71.277344 138.640625 "/></clipPath><clipPath id="81170363a4"><path d="M 71.277344 156 L 90 156 L 90 174 L 71.277344 174 Z M 71.277344 156 "/></clipPath><clipPath id="4e391d6bf0"><path d="M 122 176 L 126 176 L 126 211.921875 L 122 211.921875 Z M 122 176 "/></clipPath><clipPath id="1329f2d64d"><path d="M 117 176 L 120 176 L 120 211.921875 L 117 211.921875 Z M 117 176 "/></clipPath><clipPath id="a89ed359f5"><path d="M 111 176 L 114 176 L 114 211.921875 L 111 211.921875 Z M 111 176 "/></clipPath><clipPath id="894f61b472"><path d="M 139 175 L 142.046875 175 L 142.046875 211 L 139 211 Z M 139 175 "/></clipPath><clipPath id="3dfc359e58"><path d="M 36 138.640625 L 71.09375 138.640625 L 71.09375 175 L 36 175 Z M 36 138.640625 "/></clipPath><clipPath id="f6c07fec37"><path d="M 0.320312 176 L 36 176 L 36 211.921875 L 0.320312 211.921875 Z M 0.320312 176 "/></clipPath><clipPath id="f48d24e0e5"><path d="M 18 138.640625 L 36 138.640625 L 36 157 L 18 157 Z M 18 138.640625 "/></clipPath><clipPath id="8c897ba02c"><path d="M 0.320312 138.640625 L 19 138.640625 L 19 157 L 0.320312 157 Z M 0.320312 138.640625 "/></clipPath><clipPath id="c646500cb4"><path d="M 0.320312 156 L 19 156 L 19 174 L 0.320312 174 Z M 0.320312 156 "/></clipPath><clipPath id="ef688f5202"><path d="M 51 176 L 55 176 L 55 211.921875 L 51 211.921875 Z M 51 176 "/></clipPath><clipPath id="0ec5568306"><path d="M 46 176 L 49 176 L 49 211.921875 L 46 211.921875 Z M 46 176 "/></clipPath><clipPath id="c2a438cad0"><path d="M 40 176 L 43 176 L 43 211.921875 L 40 211.921875 Z M 40 176 "/></clipPath><clipPath id="6d4d8149c3"><path d="M 68 175 L 71.09375 175 L 71.09375 211 L 68 211 Z M 68 175 "/></clipPath><clipPath id="a81f1af9d8"><path d="M 216 101.929688 L 288.886719 101.929688 L 288.886719 176 L 216 176 Z M 216 101.929688 "/></clipPath><clipPath id="1344fdfe92"><path d="M 143 179 L 216 179 L 216 252.984375 L 143 252.984375 Z M 143 179 "/></clipPath><clipPath id="b8521da0c8"><path d="M 249 179 L 255 179 L 255 252.984375 L 249 252.984375 Z M 249 179 "/></clipPath><clipPath id="e883148a13"><path d="M 237 179 L 243 179 L 243 252.984375 L 237 252.984375 Z M 237 179 "/></clipPath><clipPath id="5973144a56"><path d="M 225 179 L 231 179 L 231 252.984375 L 225 252.984375 Z M 225 179 "/></clipPath><clipPath id="e7c90dd5c9"><path d="M 283 178 L 288.886719 178 L 288.886719 251 L 283 251 Z M 283 178 "/></clipPath><clipPath id="05ca87d78e"><path d="M 214 0 L 262.835938 0 L 262.835938 50 L 214 50 Z M 214 0 "/></clipPath><clipPath id="d9f85b0214"><path d="M 164.410156 52 L 214 52 L 214 101.699219 L 164.410156 101.699219 Z M 164.410156 52 "/></clipPath><clipPath id="a11877308c"><path d="M 164.410156 0 L 190 0 L 190 25 L 164.410156 25 Z M 164.410156 0 "/></clipPath><clipPath id="6172c01e84"><path d="M 164.410156 24 L 190 24 L 190 50 L 164.410156 50 Z M 164.410156 24 "/></clipPath><clipPath id="9a331aac97"><path d="M 236 52 L 240 52 L 240 101.699219 L 236 101.699219 Z M 236 52 "/></clipPath><clipPath id="ca7f9d622f"><path d="M 228 52 L 232 52 L 232 101.699219 L 228 101.699219 Z M 228 52 "/></clipPath><clipPath id="abadb3a4de"><path d="M 219 52 L 224 52 L 224 101.699219 L 219 101.699219 Z M 219 52 "/></clipPath><clipPath id="ec42db984d"><path d="M 259 51 L 262.835938 51 L 262.835938 101 L 259 101 Z M 259 51 "/></clipPath></defs><g id="b612ff9940"><g clip-rule="nonzero" clip-path="url(#7b87212c20)"><path style=" stroke:none;fill-rule:nonzero;fill:#000000;fill-opacity:1;" d="M 142.246094 138.640625 L 107.257812 138.640625 L 107.257812 174.117188 L 142.246094 174.117188 Z M 142.246094 138.640625 "/></g><g clip-rule="nonzero" clip-path="url(#f6788ff73a)"><path style=" stroke:none;fill-rule:nonzero;fill:#ffffff;fill-opacity:1;" d="M 83.683594 194.117188 C 75.300781 191.339844 71.28125 185.429688 71.632812 176.382812 C 80.753906 176.382812 86.59375 180.632812 89.148438 189.136719 C 91.703125 180.636719 97.539062 176.382812 106.660156 176.382812 C 107.015625 185.429688 102.996094 191.339844 94.609375 194.117188 C 102.84375 196.925781 106.78125 202.8125 106.433594 211.777344 C 97.574219 211.777344 91.808594 207.765625 89.148438 199.738281 C 86.488281 207.761719 80.726562 211.777344 71.863281 211.777344 C 71.507812 202.8125 75.453125 196.925781 83.683594 194.117188 Z M 83.683594 194.117188 "/></g><path style=" stroke:none;fill-rule:nonzero;fill:#000000;fill-opacity:1;" d="M 85.085938 155.917969 C 85.085938 156.195312 85.113281 156.46875 85.167969 156.742188 C 85.222656 157.015625 85.304688 157.28125 85.410156 157.535156 C 85.515625 157.792969 85.644531 158.039062 85.800781 158.269531 C 85.957031 158.5 86.128906 158.714844 86.328125 158.910156 C 86.523438 159.105469 86.738281 159.28125 86.96875 159.4375 C 87.199219 159.589844 87.445312 159.722656 87.699219 159.828125 C 87.957031 159.933594 88.222656 160.015625 88.496094 160.070312 C 88.769531 160.125 89.042969 160.152344 89.320312 160.152344 C 89.597656 160.152344 89.875 160.125 90.148438 160.070312 C 90.417969 160.015625 90.683594 159.933594 90.941406 159.828125 C 91.199219 159.722656 91.441406 159.589844 91.671875 159.4375 C 91.902344 159.28125 92.117188 159.105469 92.316406 158.910156 C 92.511719 158.714844 92.6875 158.5 92.839844 158.269531 C 92.996094 158.039062 93.125 157.792969 93.234375 157.535156 C 93.339844 157.28125 93.417969 157.015625 93.472656 156.742188 C 93.527344 156.46875 93.554688 156.195312 93.554688 155.917969 C 93.554688 155.640625 93.527344 155.363281 93.472656 155.089844 C 93.417969 154.816406 93.339844 154.554688 93.234375 154.296875 C 93.125 154.039062 92.996094 153.796875 92.839844 153.566406 C 92.6875 153.332031 92.511719 153.121094 92.316406 152.921875 C 92.117188 152.726562 91.902344 152.550781 91.671875 152.398438 C 91.441406 152.242188 91.199219 152.113281 90.941406 152.003906 C 90.683594 151.898438 90.417969 151.820312 90.148438 151.765625 C 89.875 151.710938 89.597656 151.683594 89.320312 151.683594 C 89.042969 151.683594 88.769531 151.710938 88.496094 151.765625 C 88.222656 151.820312 87.957031 151.898438 87.699219 152.003906 C 87.445312 152.113281 87.199219 152.242188 86.96875 152.398438 C 86.738281 152.550781 86.523438 152.726562 86.328125 152.921875 C 86.128906 153.121094 85.957031 153.332031 85.800781 153.566406 C 85.644531 153.796875 85.515625 154.039062 85.410156 154.296875 C 85.304688 154.554688 85.222656 154.816406 85.167969 155.089844 C 85.113281 155.363281 85.085938 155.640625 85.085938 155.917969 Z M 85.085938 155.917969 "/><g clip-rule="nonzero" clip-path="url(#82da48e459)"><path style=" stroke:none;fill-rule:nonzero;fill:#ffffff;fill-opacity:1;" d="M 106.929688 156.375 L 106.929688 138.765625 L 89.320312 138.765625 C 89.320312 140.222656 89.496094 141.632812 89.828125 142.988281 C 90.230469 144.617188 90.859375 146.160156 91.679688 147.578125 C 92.21875 148.507812 92.835938 149.382812 93.53125 150.195312 C 94.101562 150.863281 94.71875 151.484375 95.378906 152.0625 C 96.078125 152.667969 96.828125 153.222656 97.617188 153.714844 C 98.210938 154.085938 98.828125 154.421875 99.46875 154.722656 C 100.1875 155.058594 100.933594 155.347656 101.703125 155.589844 C 102.308594 155.777344 102.925781 155.929688 103.554688 156.054688 C 104.285156 156.195312 105.03125 156.292969 105.792969 156.339844 C 106.167969 156.367188 106.546875 156.375 106.929688 156.375 Z M 106.929688 156.375 "/></g><g clip-rule="nonzero" clip-path="url(#134fb4ead9)"><path style=" stroke:none;fill-rule:nonzero;fill:#ffffff;fill-opacity:1;" d="M 71.535156 156.375 L 71.535156 138.765625 L 89.144531 138.765625 C 89.144531 140.222656 88.96875 141.632812 88.636719 142.988281 C 88.234375 144.617188 87.605469 146.160156 86.785156 147.578125 C 86.246094 148.507812 85.628906 149.382812 84.933594 150.195312 C 84.363281 150.863281 83.746094 151.484375 83.085938 152.0625 C 82.386719 152.667969 81.640625 153.222656 80.847656 153.714844 C 80.253906 154.085938 79.636719 154.421875 78.996094 154.722656 C 78.277344 155.058594 77.53125 155.347656 76.761719 155.589844 C 76.15625 155.777344 75.542969 155.929688 74.910156 156.054688 C 74.179688 156.195312 73.433594 156.292969 72.675781 156.339844 C 72.300781 156.367188 71.917969 156.375 71.535156 156.375 Z M 71.535156 156.375 "/></g><g clip-rule="nonzero" clip-path="url(#81170363a4)"><path style=" stroke:none;fill-rule:nonzero;fill:#ffffff;fill-opacity:1;" d="M 71.535156 156.375 L 71.535156 173.984375 L 89.144531 173.984375 C 89.144531 172.53125 88.96875 171.117188 88.636719 169.765625 C 88.234375 168.132812 87.605469 166.589844 86.785156 165.171875 C 86.246094 164.242188 85.628906 163.367188 84.933594 162.558594 C 84.363281 161.890625 83.746094 161.265625 83.085938 160.691406 C 82.386719 160.082031 81.640625 159.527344 80.847656 159.035156 C 80.253906 158.667969 79.636719 158.328125 78.996094 158.03125 C 78.277344 157.695312 77.53125 157.402344 76.761719 157.164062 C 76.15625 156.976562 75.542969 156.820312 74.910156 156.699219 C 74.179688 156.558594 73.433594 156.460938 72.675781 156.410156 C 72.300781 156.390625 71.917969 156.375 71.535156 156.375 Z M 71.535156 156.375 "/></g><path style=" stroke:none;fill-rule:nonzero;fill:#ffffff;fill-opacity:1;" d="M 106.929688 156.375 L 106.929688 173.984375 L 89.320312 173.984375 C 89.320312 172.53125 89.496094 171.117188 89.828125 169.765625 C 90.230469 168.132812 90.859375 166.589844 91.679688 165.171875 C 92.21875 164.242188 92.835938 163.367188 93.53125 162.558594 C 94.101562 161.890625 94.71875 161.265625 95.378906 160.691406 C 96.078125 160.082031 96.828125 159.527344 97.617188 159.035156 C 98.210938 158.667969 98.828125 158.328125 99.46875 158.03125 C 100.1875 157.695312 100.933594 157.402344 101.703125 157.164062 C 102.308594 156.976562 102.925781 156.820312 103.554688 156.699219 C 104.285156 156.558594 105.03125 156.460938 105.792969 156.410156 C 106.167969 156.390625 106.546875 156.375 106.929688 156.375 Z M 106.929688 156.375 "/><g clip-rule="nonzero" clip-path="url(#4e391d6bf0)"><path style=" stroke:none;fill-rule:nonzero;fill:#004aad;fill-opacity:1;" d="M 125.496094 176.417969 L 122.867188 176.417969 L 122.867188 211.390625 L 125.496094 211.390625 Z M 125.496094 176.417969 "/></g><g clip-rule="nonzero" clip-path="url(#1329f2d64d)"><path style=" stroke:none;fill-rule:nonzero;fill:#004aad;fill-opacity:1;" d="M 119.691406 176.417969 L 117.0625 176.417969 L 117.0625 211.390625 L 119.691406 211.390625 Z M 119.691406 176.417969 "/></g><g clip-rule="nonzero" clip-path="url(#a89ed359f5)"><path style=" stroke:none;fill-rule:nonzero;fill:#004aad;fill-opacity:1;" d="M 113.886719 176.417969 L 111.257812 176.417969 L 111.257812 211.390625 L 113.886719 211.390625 Z M 113.886719 176.417969 "/></g><g clip-rule="nonzero" clip-path="url(#894f61b472)"><path style=" stroke:none;fill-rule:nonzero;fill:#004aad;fill-opacity:1;" d="M 142.3125 175.894531 L 139.683594 175.894531 L 139.683594 210.871094 L 142.3125 210.871094 Z M 142.3125 175.894531 "/></g><path style=" stroke:none;fill-rule:nonzero;fill:#004aad;fill-opacity:1;" d="M 136.507812 175.894531 L 133.878906 175.894531 L 133.878906 210.871094 L 136.507812 210.871094 Z M 136.507812 175.894531 "/><path style=" stroke:none;fill-rule:nonzero;fill:#004aad;fill-opacity:1;" d="M 130.707031 175.894531 L 128.078125 175.894531 L 128.078125 210.871094 L 130.707031 210.871094 Z M 130.707031 175.894531 "/><path style=" stroke:none;fill-rule:nonzero;fill:#ffffff;fill-opacity:1;" d="M 124.753906 167.800781 C 126.261719 167.800781 127.726562 167.503906 129.105469 166.921875 C 130.4375 166.359375 131.632812 165.554688 132.660156 164.527344 C 133.6875 163.5 134.492188 162.300781 135.058594 160.96875 C 135.640625 159.589844 135.933594 158.125 135.933594 156.617188 C 135.933594 155.105469 135.640625 153.640625 135.058594 152.261719 C 134.496094 150.929688 133.6875 149.734375 132.660156 148.707031 C 131.632812 147.679688 130.4375 146.875 129.105469 146.3125 C 127.730469 145.726562 126.265625 145.433594 124.753906 145.433594 C 123.242188 145.433594 121.78125 145.730469 120.398438 146.3125 C 119.066406 146.875 117.871094 147.679688 116.84375 148.707031 C 115.816406 149.734375 115.011719 150.929688 114.449219 152.261719 C 113.863281 153.640625 113.570312 155.105469 113.570312 156.617188 C 113.570312 158.125 113.867188 159.589844 114.449219 160.96875 C 115.011719 162.300781 115.816406 163.496094 116.84375 164.523438 C 117.871094 165.550781 119.066406 166.355469 120.398438 166.917969 C 121.777344 167.503906 123.242188 167.800781 124.753906 167.800781 Z M 124.753906 146.25 C 130.46875 146.25 135.121094 150.898438 135.121094 156.617188 C 135.121094 162.332031 130.46875 166.980469 124.753906 166.980469 C 119.035156 166.980469 114.386719 162.332031 114.386719 156.617188 C 114.386719 150.898438 119.035156 146.25 124.753906 146.25 Z M 124.753906 146.25 "/><path style=" stroke:none;fill-rule:nonzero;fill:#ffffff;fill-opacity:1;" d="M 124.753906 170.445312 C 126.621094 170.445312 128.433594 170.078125 130.136719 169.359375 C 131.78125 168.664062 133.261719 167.667969 134.53125 166.394531 C 135.804688 165.125 136.800781 163.644531 137.496094 162 C 138.21875 160.292969 138.585938 158.480469 138.585938 156.617188 C 138.585938 154.75 138.21875 152.9375 137.496094 151.230469 C 136.800781 149.585938 135.804688 148.105469 134.53125 146.835938 C 133.265625 145.566406 131.78125 144.570312 130.136719 143.871094 C 128.429688 143.152344 126.621094 142.785156 124.753906 142.785156 C 122.886719 142.785156 121.074219 143.152344 119.371094 143.871094 C 117.722656 144.566406 116.246094 145.5625 114.972656 146.835938 C 113.703125 148.105469 112.707031 149.585938 112.007812 151.230469 C 111.289062 152.9375 110.921875 154.75 110.921875 156.617188 C 110.921875 158.480469 111.289062 160.292969 112.007812 162 C 112.703125 163.644531 113.703125 165.125 114.972656 166.394531 C 116.246094 167.667969 117.722656 168.660156 119.371094 169.359375 C 121.074219 170.082031 122.886719 170.445312 124.753906 170.445312 Z M 124.753906 143.601562 C 131.929688 143.601562 137.769531 149.441406 137.769531 156.617188 C 137.769531 163.792969 131.929688 169.632812 124.753906 169.632812 C 117.578125 169.632812 111.738281 163.792969 111.738281 156.617188 C 111.738281 149.441406 117.578125 143.601562 124.753906 143.601562 Z M 124.753906 143.601562 "/><path style=" stroke:none;fill-rule:nonzero;fill:#ffffff;fill-opacity:1;" d="M 124.753906 172.894531 C 126.953125 172.894531 129.082031 172.464844 131.089844 171.617188 C 133.027344 170.792969 134.769531 169.621094 136.265625 168.125 C 137.757812 166.632812 138.933594 164.890625 139.753906 162.953125 C 140.601562 160.945312 141.03125 158.8125 141.03125 156.617188 C 141.03125 154.417969 140.601562 152.285156 139.753906 150.277344 C 138.933594 148.339844 137.757812 146.597656 136.265625 145.105469 C 134.769531 143.609375 133.027344 142.4375 131.089844 141.617188 C 129.082031 140.765625 126.953125 140.335938 124.753906 140.335938 C 122.554688 140.335938 120.425781 140.765625 118.417969 141.617188 C 116.480469 142.4375 114.738281 143.609375 113.242188 145.105469 C 111.746094 146.597656 110.574219 148.339844 109.753906 150.277344 C 108.90625 152.285156 108.472656 154.417969 108.472656 156.617188 C 108.472656 158.8125 108.902344 160.945312 109.753906 162.953125 C 110.574219 164.890625 111.746094 166.632812 113.242188 168.125 C 114.738281 169.621094 116.480469 170.792969 118.417969 171.617188 C 120.421875 172.464844 122.554688 172.894531 124.753906 172.894531 Z M 124.753906 141.152344 C 133.28125 141.152344 140.21875 148.089844 140.21875 156.617188 C 140.21875 165.144531 133.28125 172.082031 124.753906 172.082031 C 116.226562 172.082031 109.289062 165.140625 109.289062 156.617188 C 109.289062 148.089844 116.226562 141.152344 124.753906 141.152344 Z M 124.753906 141.152344 "/><path style=" stroke:none;fill-rule:nonzero;fill:#ffffff;fill-opacity:1;" d="M 124.753906 165.285156 C 127.066406 165.285156 129.246094 164.382812 130.882812 162.746094 C 132.523438 161.105469 133.425781 158.929688 133.425781 156.617188 C 133.425781 154.300781 132.523438 152.121094 130.882812 150.484375 C 129.246094 148.847656 127.066406 147.945312 124.753906 147.945312 C 122.4375 147.945312 120.257812 148.847656 118.621094 150.484375 C 116.984375 152.125 116.082031 154.300781 116.082031 156.617188 C 116.082031 158.929688 116.984375 161.109375 118.621094 162.746094 C 120.257812 164.382812 122.433594 165.285156 124.753906 165.285156 Z M 124.753906 148.761719 C 129.085938 148.761719 132.609375 152.285156 132.609375 156.617188 C 132.609375 160.949219 129.085938 164.472656 124.753906 164.472656 C 120.421875 164.472656 116.898438 160.945312 116.898438 156.617188 C 116.898438 152.285156 120.421875 148.761719 124.753906 148.761719 Z M 124.753906 148.761719 "/><path style=" stroke:none;fill-rule:nonzero;fill:#ffffff;fill-opacity:1;" d="M 124.753906 162.277344 C 127.875 162.277344 130.414062 159.738281 130.414062 156.617188 C 130.414062 153.5 127.875 150.953125 124.753906 150.953125 C 121.628906 150.953125 119.09375 153.496094 119.09375 156.617188 C 119.09375 159.734375 121.628906 162.277344 124.753906 162.277344 Z M 124.753906 151.769531 C 127.425781 151.769531 129.597656 153.945312 129.597656 156.617188 C 129.597656 159.285156 127.425781 161.460938 124.753906 161.460938 C 122.082031 161.460938 119.90625 159.285156 119.90625 156.617188 C 119.90625 153.945312 122.078125 151.769531 124.753906 151.769531 Z M 124.753906 151.769531 "/><path style=" stroke:none;fill-rule:nonzero;fill:#ffffff;fill-opacity:1;" d="M 124.753906 162.277344 C 127.875 162.277344 130.414062 159.738281 130.414062 156.617188 C 130.414062 153.5 127.875 150.953125 124.753906 150.953125 C 121.628906 150.953125 119.09375 153.496094 119.09375 156.617188 C 119.09375 159.734375 121.628906 162.277344 124.753906 162.277344 Z M 124.753906 151.769531 C 127.425781 151.769531 129.597656 153.945312 129.597656 156.617188 C 129.597656 159.285156 127.425781 161.460938 124.753906 161.460938 C 122.082031 161.460938 119.90625 159.285156 119.90625 156.617188 C 119.90625 153.945312 122.078125 151.769531 124.753906 151.769531 Z M 124.753906 151.769531 "/><path style=" stroke:none;fill-rule:nonzero;fill:#ffffff;fill-opacity:1;" d="M 124.753906 159.652344 C 126.425781 159.652344 127.789062 158.289062 127.789062 156.617188 C 127.789062 154.941406 126.425781 153.578125 124.753906 153.578125 C 123.078125 153.578125 121.71875 154.941406 121.71875 156.617188 C 121.71875 158.289062 123.078125 159.652344 124.753906 159.652344 Z M 124.753906 154.398438 C 125.976562 154.398438 126.972656 155.390625 126.972656 156.617188 C 126.972656 157.84375 125.980469 158.839844 124.753906 158.839844 C 123.527344 158.839844 122.53125 157.84375 122.53125 156.617188 C 122.53125 155.390625 123.527344 154.398438 124.753906 154.398438 Z M 124.753906 154.398438 "/><path style=" stroke:none;fill-rule:nonzero;fill:#000000;fill-opacity:1;" d="M 118.898438 193.382812 C 118.898438 193.929688 118.953125 194.476562 119.0625 195.015625 C 119.167969 195.554688 119.328125 196.078125 119.539062 196.585938 C 119.746094 197.097656 120.007812 197.578125 120.3125 198.035156 C 120.617188 198.492188 120.964844 198.917969 121.355469 199.304688 C 121.742188 199.695312 122.164062 200.042969 122.625 200.347656 C 123.082031 200.652344 123.5625 200.910156 124.070312 201.121094 C 124.578125 201.332031 125.105469 201.492188 125.644531 201.597656 C 126.183594 201.707031 126.726562 201.757812 127.277344 201.757812 C 127.828125 201.757812 128.371094 201.707031 128.910156 201.597656 C 129.453125 201.492188 129.976562 201.332031 130.484375 201.121094 C 130.992188 200.910156 131.472656 200.652344 131.933594 200.347656 C 132.390625 200.042969 132.8125 199.695312 133.203125 199.304688 C 133.589844 198.917969 133.9375 198.492188 134.242188 198.035156 C 134.550781 197.578125 134.808594 197.097656 135.015625 196.585938 C 135.226562 196.078125 135.386719 195.554688 135.496094 195.015625 C 135.601562 194.476562 135.65625 193.929688 135.65625 193.382812 C 135.65625 192.832031 135.601562 192.285156 135.496094 191.746094 C 135.386719 191.207031 135.226562 190.683594 135.015625 190.175781 C 134.808594 189.667969 134.550781 189.183594 134.242188 188.726562 C 133.9375 188.269531 133.589844 187.847656 133.203125 187.457031 C 132.8125 187.070312 132.390625 186.722656 131.933594 186.414062 C 131.472656 186.109375 130.992188 185.851562 130.484375 185.640625 C 129.976562 185.429688 129.453125 185.273438 128.910156 185.164062 C 128.371094 185.058594 127.828125 185.003906 127.277344 185.003906 C 126.726562 185.003906 126.183594 185.058594 125.644531 185.164062 C 125.105469 185.273438 124.578125 185.429688 124.070312 185.640625 C 123.5625 185.851562 123.082031 186.109375 122.625 186.414062 C 122.164062 186.722656 121.742188 187.070312 121.355469 187.457031 C 120.964844 187.847656 120.617188 188.269531 120.3125 188.726562 C 120.007812 189.183594 119.746094 189.667969 119.539062 190.175781 C 119.328125 190.683594 119.167969 191.207031 119.0625 191.746094 C 118.953125 192.285156 118.898438 192.832031 118.898438 193.382812 Z M 118.898438 193.382812 "/><g clip-rule="nonzero" clip-path="url(#3dfc359e58)"><path style=" stroke:none;fill-rule:nonzero;fill:#fff0b7;fill-opacity:1;" d="M 71.289062 138.640625 L 36.304688 138.640625 L 36.304688 174.117188 L 71.289062 174.117188 Z M 71.289062 138.640625 "/></g><g clip-rule="nonzero" clip-path="url(#f6c07fec37)"><path style=" stroke:none;fill-rule:nonzero;fill:#902b29;fill-opacity:1;" d="M 12.730469 194.117188 C 4.34375 191.339844 0.324219 185.429688 0.679688 176.382812 C 9.800781 176.382812 15.636719 180.632812 18.191406 189.136719 C 20.746094 180.636719 26.582031 176.382812 35.707031 176.382812 C 36.058594 185.429688 32.039062 191.339844 23.65625 194.117188 C 31.886719 196.925781 35.828125 202.8125 35.480469 211.777344 C 26.617188 211.777344 20.855469 207.765625 18.195312 199.738281 C 15.53125 207.761719 9.769531 211.777344 0.910156 211.777344 C 0.554688 202.8125 4.496094 196.925781 12.730469 194.117188 Z M 12.730469 194.117188 "/></g><path style=" stroke:none;fill-rule:nonzero;fill:#fff0b7;fill-opacity:1;" d="M 14.132812 155.917969 C 14.132812 156.195312 14.160156 156.46875 14.214844 156.742188 C 14.269531 157.015625 14.347656 157.28125 14.453125 157.535156 C 14.5625 157.792969 14.691406 158.039062 14.847656 158.269531 C 15 158.5 15.175781 158.714844 15.371094 158.910156 C 15.570312 159.105469 15.78125 159.28125 16.015625 159.4375 C 16.246094 159.589844 16.488281 159.722656 16.746094 159.828125 C 17.003906 159.933594 17.269531 160.015625 17.539062 160.070312 C 17.8125 160.125 18.089844 160.152344 18.367188 160.152344 C 18.644531 160.152344 18.917969 160.125 19.191406 160.070312 C 19.464844 160.015625 19.730469 159.933594 19.988281 159.828125 C 20.242188 159.722656 20.488281 159.589844 20.71875 159.4375 C 20.949219 159.28125 21.164062 159.105469 21.359375 158.910156 C 21.554688 158.714844 21.730469 158.5 21.886719 158.269531 C 22.042969 158.039062 22.171875 157.792969 22.277344 157.535156 C 22.382812 157.28125 22.464844 157.015625 22.519531 156.742188 C 22.574219 156.46875 22.601562 156.195312 22.601562 155.917969 C 22.601562 155.640625 22.574219 155.363281 22.519531 155.089844 C 22.464844 154.816406 22.382812 154.554688 22.277344 154.296875 C 22.171875 154.039062 22.042969 153.796875 21.886719 153.566406 C 21.730469 153.332031 21.554688 153.121094 21.359375 152.921875 C 21.164062 152.726562 20.949219 152.550781 20.71875 152.398438 C 20.488281 152.242188 20.242188 152.113281 19.988281 152.003906 C 19.730469 151.898438 19.464844 151.820312 19.191406 151.765625 C 18.917969 151.710938 18.644531 151.683594 18.367188 151.683594 C 18.089844 151.683594 17.8125 151.710938 17.539062 151.765625 C 17.269531 151.820312 17.003906 151.898438 16.746094 152.003906 C 16.488281 152.113281 16.246094 152.242188 16.015625 152.398438 C 15.78125 152.550781 15.570312 152.726562 15.371094 152.921875 C 15.175781 153.121094 15 153.332031 14.847656 153.566406 C 14.691406 153.796875 14.5625 154.039062 14.453125 154.296875 C 14.347656 154.554688 14.269531 154.816406 14.214844 155.089844 C 14.160156 155.363281 14.132812 155.640625 14.132812 155.917969 Z M 14.132812 155.917969 "/><g clip-rule="nonzero" clip-path="url(#f48d24e0e5)"><path style=" stroke:none;fill-rule:nonzero;fill:#8cc342;fill-opacity:1;" d="M 35.976562 156.375 L 35.976562 138.765625 L 18.367188 138.765625 C 18.367188 140.222656 18.542969 141.632812 18.875 142.988281 C 19.277344 144.617188 19.90625 146.160156 20.726562 147.578125 C 21.261719 148.507812 21.882812 149.382812 22.574219 150.195312 C 23.144531 150.863281 23.761719 151.484375 24.425781 152.0625 C 25.125 152.667969 25.871094 153.222656 26.664062 153.714844 C 27.257812 154.085938 27.875 154.421875 28.511719 154.722656 C 29.234375 155.058594 29.980469 155.347656 30.75 155.589844 C 31.351562 155.777344 31.96875 155.929688 32.601562 156.054688 C 33.332031 156.195312 34.074219 156.292969 34.835938 156.339844 C 35.210938 156.367188 35.59375 156.375 35.976562 156.375 Z M 35.976562 156.375 "/></g><g clip-rule="nonzero" clip-path="url(#8c897ba02c)"><path style=" stroke:none;fill-rule:nonzero;fill:#8cc342;fill-opacity:1;" d="M 0.582031 156.375 L 0.582031 138.765625 L 18.191406 138.765625 C 18.191406 140.222656 18.011719 141.632812 17.679688 142.988281 C 17.28125 144.617188 16.652344 146.160156 15.832031 147.578125 C 15.292969 148.507812 14.671875 149.382812 13.980469 150.195312 C 13.410156 150.863281 12.792969 151.484375 12.128906 152.0625 C 11.429688 152.667969 10.683594 153.222656 9.894531 153.714844 C 9.296875 154.085938 8.679688 154.421875 8.042969 154.722656 C 7.324219 155.058594 6.574219 155.347656 5.804688 155.589844 C 5.203125 155.777344 4.585938 155.929688 3.957031 156.054688 C 3.226562 156.195312 2.480469 156.292969 1.71875 156.339844 C 1.34375 156.367188 0.964844 156.375 0.582031 156.375 Z M 0.582031 156.375 "/></g><g clip-rule="nonzero" clip-path="url(#c646500cb4)"><path style=" stroke:none;fill-rule:nonzero;fill:#8cc342;fill-opacity:1;" d="M 0.582031 156.375 L 0.582031 173.984375 L 18.191406 173.984375 C 18.191406 172.53125 18.011719 171.117188 17.679688 169.765625 C 17.28125 168.132812 16.652344 166.589844 15.832031 165.171875 C 15.292969 164.242188 14.671875 163.367188 13.980469 162.558594 C 13.410156 161.890625 12.792969 161.265625 12.128906 160.691406 C 11.429688 160.082031 10.683594 159.527344 9.894531 159.035156 C 9.296875 158.667969 8.679688 158.328125 8.042969 158.03125 C 7.324219 157.695312 6.574219 157.402344 5.804688 157.164062 C 5.203125 156.976562 4.585938 156.820312 3.957031 156.699219 C 3.226562 156.558594 2.480469 156.460938 1.71875 156.410156 C 1.34375 156.390625 0.964844 156.375 0.582031 156.375 Z M 0.582031 156.375 "/></g><path style=" stroke:none;fill-rule:nonzero;fill:#8cc342;fill-opacity:1;" d="M 35.976562 156.375 L 35.976562 173.984375 L 18.367188 173.984375 C 18.367188 172.53125 18.542969 171.117188 18.875 169.765625 C 19.277344 168.132812 19.90625 166.589844 20.726562 165.171875 C 21.261719 164.242188 21.882812 163.367188 22.574219 162.558594 C 23.144531 161.890625 23.761719 161.265625 24.425781 160.691406 C 25.125 160.082031 25.871094 159.527344 26.664062 159.035156 C 27.257812 158.667969 27.875 158.328125 28.511719 158.03125 C 29.234375 157.695312 29.980469 157.402344 30.75 157.164062 C 31.351562 156.976562 31.96875 156.820312 32.601562 156.699219 C 33.332031 156.558594 34.074219 156.460938 34.835938 156.410156 C 35.210938 156.390625 35.59375 156.375 35.976562 156.375 Z M 35.976562 156.375 "/><g clip-rule="nonzero" clip-path="url(#ef688f5202)"><path style=" stroke:none;fill-rule:nonzero;fill:#004aad;fill-opacity:1;" d="M 54.539062 176.417969 L 51.914062 176.417969 L 51.914062 211.390625 L 54.539062 211.390625 Z M 54.539062 176.417969 "/></g><g clip-rule="nonzero" clip-path="url(#0ec5568306)"><path style=" stroke:none;fill-rule:nonzero;fill:#004aad;fill-opacity:1;" d="M 48.734375 176.417969 L 46.109375 176.417969 L 46.109375 211.390625 L 48.734375 211.390625 Z M 48.734375 176.417969 "/></g><g clip-rule="nonzero" clip-path="url(#c2a438cad0)"><path style=" stroke:none;fill-rule:nonzero;fill:#004aad;fill-opacity:1;" d="M 42.929688 176.417969 L 40.304688 176.417969 L 40.304688 211.390625 L 42.929688 211.390625 Z M 42.929688 176.417969 "/></g><g clip-rule="nonzero" clip-path="url(#6d4d8149c3)"><path style=" stroke:none;fill-rule:nonzero;fill:#004aad;fill-opacity:1;" d="M 71.359375 175.894531 L 68.730469 175.894531 L 68.730469 210.871094 L 71.359375 210.871094 Z M 71.359375 175.894531 "/></g><path style=" stroke:none;fill-rule:nonzero;fill:#004aad;fill-opacity:1;" d="M 65.554688 175.894531 L 62.925781 175.894531 L 62.925781 210.871094 L 65.554688 210.871094 Z M 65.554688 175.894531 "/><path style=" stroke:none;fill-rule:nonzero;fill:#004aad;fill-opacity:1;" d="M 59.753906 175.894531 L 57.125 175.894531 L 57.125 210.871094 L 59.753906 210.871094 Z M 59.753906 175.894531 "/><path style=" stroke:none;fill-rule:nonzero;fill:#902b29;fill-opacity:1;" d="M 53.796875 167.800781 C 55.304688 167.800781 56.769531 167.503906 58.152344 166.921875 C 59.484375 166.359375 60.679688 165.554688 61.707031 164.527344 C 62.734375 163.5 63.539062 162.300781 64.101562 160.96875 C 64.6875 159.589844 64.980469 158.125 64.980469 156.617188 C 64.980469 155.105469 64.683594 153.640625 64.101562 152.261719 C 63.539062 150.929688 62.734375 149.734375 61.707031 148.707031 C 60.679688 147.679688 59.484375 146.875 58.152344 146.3125 C 56.773438 145.726562 55.308594 145.433594 53.796875 145.433594 C 52.289062 145.433594 50.824219 145.730469 49.445312 146.3125 C 48.113281 146.875 46.917969 147.679688 45.890625 148.707031 C 44.863281 149.734375 44.054688 150.929688 43.492188 152.261719 C 42.910156 153.640625 42.617188 155.105469 42.617188 156.617188 C 42.617188 158.125 42.914062 159.589844 43.492188 160.96875 C 44.054688 162.300781 44.863281 163.496094 45.890625 164.523438 C 46.917969 165.550781 48.113281 166.355469 49.445312 166.917969 C 50.824219 167.503906 52.289062 167.800781 53.796875 167.800781 Z M 53.796875 146.25 C 59.515625 146.25 64.164062 150.898438 64.164062 156.617188 C 64.164062 162.332031 59.515625 166.980469 53.796875 166.980469 C 48.082031 166.980469 43.429688 162.332031 43.429688 156.617188 C 43.429688 150.898438 48.082031 146.25 53.796875 146.25 Z M 53.796875 146.25 "/><path style=" stroke:none;fill-rule:nonzero;fill:#902b29;fill-opacity:1;" d="M 53.796875 170.445312 C 55.664062 170.445312 57.476562 170.078125 59.179688 169.359375 C 60.828125 168.664062 62.304688 167.667969 63.578125 166.394531 C 64.851562 165.125 65.84375 163.644531 66.542969 162 C 67.261719 160.292969 67.628906 158.480469 67.628906 156.617188 C 67.628906 154.75 67.261719 152.9375 66.542969 151.230469 C 65.847656 149.585938 64.851562 148.105469 63.578125 146.835938 C 62.308594 145.566406 60.828125 144.570312 59.179688 143.871094 C 57.476562 143.152344 55.664062 142.785156 53.796875 142.785156 C 51.929688 142.785156 50.117188 143.152344 48.414062 143.871094 C 46.769531 144.566406 45.289062 145.5625 44.019531 146.835938 C 42.75 148.105469 41.753906 149.585938 41.054688 151.230469 C 40.332031 152.9375 39.96875 154.75 39.96875 156.617188 C 39.96875 158.480469 40.332031 160.292969 41.054688 162 C 41.75 163.644531 42.746094 165.125 44.019531 166.394531 C 45.289062 167.667969 46.769531 168.660156 48.414062 169.359375 C 50.117188 170.082031 51.929688 170.445312 53.796875 170.445312 Z M 53.796875 143.601562 C 60.976562 143.601562 66.816406 149.441406 66.816406 156.617188 C 66.816406 163.792969 60.976562 169.632812 53.796875 169.632812 C 46.621094 169.632812 40.78125 163.792969 40.78125 156.617188 C 40.78125 149.441406 46.621094 143.601562 53.796875 143.601562 Z M 53.796875 143.601562 "/><path style=" stroke:none;fill-rule:nonzero;fill:#902b29;fill-opacity:1;" d="M 53.796875 172.894531 C 55.996094 172.894531 58.128906 172.464844 60.136719 171.617188 C 62.074219 170.792969 63.816406 169.621094 65.308594 168.125 C 66.804688 166.632812 67.976562 164.890625 68.796875 162.953125 C 69.644531 160.945312 70.078125 158.8125 70.078125 156.617188 C 70.078125 154.417969 69.648438 152.285156 68.796875 150.277344 C 67.976562 148.339844 66.804688 146.597656 65.308594 145.105469 C 63.816406 143.609375 62.074219 142.4375 60.136719 141.617188 C 58.128906 140.765625 55.996094 140.335938 53.796875 140.335938 C 51.601562 140.335938 49.46875 140.765625 47.460938 141.617188 C 45.523438 142.4375 43.78125 143.609375 42.289062 145.105469 C 40.792969 146.597656 39.617188 148.339844 38.796875 150.277344 C 37.949219 152.285156 37.519531 154.417969 37.519531 156.617188 C 37.519531 158.8125 37.949219 160.945312 38.796875 162.953125 C 39.617188 164.890625 40.792969 166.632812 42.289062 168.125 C 43.78125 169.621094 45.523438 170.792969 47.460938 171.617188 C 49.46875 172.464844 51.601562 172.894531 53.796875 172.894531 Z M 53.796875 141.152344 C 62.324219 141.152344 69.261719 148.089844 69.261719 156.617188 C 69.261719 165.144531 62.324219 172.082031 53.796875 172.082031 C 45.269531 172.082031 38.332031 165.140625 38.332031 156.617188 C 38.332031 148.089844 45.269531 141.152344 53.796875 141.152344 Z M 53.796875 141.152344 "/><path style=" stroke:none;fill-rule:nonzero;fill:#902b29;fill-opacity:1;" d="M 53.796875 165.285156 C 56.113281 165.285156 58.292969 164.382812 59.929688 162.746094 C 61.566406 161.105469 62.46875 158.929688 62.46875 156.617188 C 62.46875 154.300781 61.566406 152.121094 59.929688 150.484375 C 58.289062 148.847656 56.113281 147.945312 53.796875 147.945312 C 51.484375 147.945312 49.304688 148.847656 47.667969 150.484375 C 46.03125 152.125 45.128906 154.300781 45.128906 156.617188 C 45.128906 158.929688 46.03125 161.109375 47.667969 162.746094 C 49.304688 164.382812 51.480469 165.285156 53.796875 165.285156 Z M 53.796875 148.761719 C 58.128906 148.761719 61.65625 152.285156 61.65625 156.617188 C 61.65625 160.949219 58.128906 164.472656 53.796875 164.472656 C 49.46875 164.472656 45.941406 160.945312 45.941406 156.617188 C 45.941406 152.285156 49.46875 148.761719 53.796875 148.761719 Z M 53.796875 148.761719 "/><path style=" stroke:none;fill-rule:nonzero;fill:#902b29;fill-opacity:1;" d="M 53.796875 162.277344 C 56.921875 162.277344 59.457031 159.738281 59.457031 156.617188 C 59.457031 153.5 56.921875 150.953125 53.796875 150.953125 C 50.675781 150.953125 48.136719 153.496094 48.136719 156.617188 C 48.136719 159.734375 50.675781 162.277344 53.796875 162.277344 Z M 53.796875 151.769531 C 56.46875 151.769531 58.644531 153.945312 58.644531 156.617188 C 58.644531 159.285156 56.46875 161.460938 53.796875 161.460938 C 51.128906 161.460938 48.953125 159.285156 48.953125 156.617188 C 48.953125 153.945312 51.125 151.769531 53.796875 151.769531 Z M 53.796875 151.769531 "/><path style=" stroke:none;fill-rule:nonzero;fill:#902b29;fill-opacity:1;" d="M 53.796875 162.277344 C 56.921875 162.277344 59.457031 159.738281 59.457031 156.617188 C 59.457031 153.5 56.921875 150.953125 53.796875 150.953125 C 50.675781 150.953125 48.136719 153.496094 48.136719 156.617188 C 48.136719 159.734375 50.675781 162.277344 53.796875 162.277344 Z M 53.796875 151.769531 C 56.46875 151.769531 58.644531 153.945312 58.644531 156.617188 C 58.644531 159.285156 56.46875 161.460938 53.796875 161.460938 C 51.128906 161.460938 48.953125 159.285156 48.953125 156.617188 C 48.953125 153.945312 51.125 151.769531 53.796875 151.769531 Z M 53.796875 151.769531 "/><path style=" stroke:none;fill-rule:nonzero;fill:#902b29;fill-opacity:1;" d="M 53.796875 159.652344 C 55.472656 159.652344 56.832031 158.289062 56.832031 156.617188 C 56.832031 154.941406 55.472656 153.578125 53.796875 153.578125 C 52.125 153.578125 50.761719 154.941406 50.761719 156.617188 C 50.761719 158.289062 52.125 159.652344 53.796875 159.652344 Z M 53.796875 154.398438 C 55.019531 154.398438 56.019531 155.390625 56.019531 156.617188 C 56.019531 157.84375 55.023438 158.839844 53.796875 158.839844 C 52.574219 158.839844 51.578125 157.84375 51.578125 156.617188 C 51.578125 155.390625 52.574219 154.398438 53.796875 154.398438 Z M 53.796875 154.398438 "/><path style=" stroke:none;fill-rule:nonzero;fill:#fff0b7;fill-opacity:1;" d="M 47.945312 193.382812 C 47.945312 193.929688 48 194.476562 48.105469 195.015625 C 48.214844 195.554688 48.371094 196.078125 48.582031 196.585938 C 48.792969 197.097656 49.050781 197.578125 49.355469 198.035156 C 49.664062 198.492188 50.011719 198.917969 50.398438 199.304688 C 50.789062 199.695312 51.210938 200.042969 51.667969 200.347656 C 52.125 200.652344 52.609375 200.910156 53.117188 201.121094 C 53.625 201.332031 54.148438 201.492188 54.6875 201.597656 C 55.226562 201.707031 55.773438 201.757812 56.324219 201.757812 C 56.871094 201.757812 57.417969 201.707031 57.957031 201.597656 C 58.496094 201.492188 59.019531 201.332031 59.527344 201.121094 C 60.035156 200.910156 60.519531 200.652344 60.976562 200.347656 C 61.433594 200.042969 61.859375 199.695312 62.246094 199.304688 C 62.636719 198.917969 62.984375 198.492188 63.289062 198.035156 C 63.59375 197.578125 63.851562 197.097656 64.0625 196.585938 C 64.273438 196.078125 64.433594 195.554688 64.539062 195.015625 C 64.648438 194.476562 64.699219 193.929688 64.699219 193.382812 C 64.699219 192.832031 64.648438 192.285156 64.539062 191.746094 C 64.433594 191.207031 64.273438 190.683594 64.0625 190.175781 C 63.851562 189.667969 63.59375 189.183594 63.289062 188.726562 C 62.984375 188.269531 62.636719 187.847656 62.246094 187.457031 C 61.859375 187.070312 61.433594 186.722656 60.976562 186.414062 C 60.519531 186.109375 60.035156 185.851562 59.527344 185.640625 C 59.019531 185.429688 58.496094 185.273438 57.957031 185.164062 C 57.417969 185.058594 56.871094 185.003906 56.324219 185.003906 C 55.773438 185.003906 55.226562 185.058594 54.6875 185.164062 C 54.148438 185.273438 53.625 185.429688 53.117188 185.640625 C 52.609375 185.851562 52.125 186.109375 51.667969 186.414062 C 51.210938 186.722656 50.789062 187.070312 50.398438 187.457031 C 50.011719 187.847656 49.664062 188.269531 49.355469 188.726562 C 49.050781 189.183594 48.792969 189.667969 48.582031 190.175781 C 48.371094 190.683594 48.214844 191.207031 48.105469 191.746094 C 48 192.285156 47.945312 192.832031 47.945312 193.382812 Z M 47.945312 193.382812 "/><g clip-rule="nonzero" clip-path="url(#a81f1af9d8)"><path style=" stroke:none;fill-rule:nonzero;fill:#ffffff;fill-opacity:1;" d="M 289.105469 101.933594 L 216.917969 101.933594 L 216.917969 175.132812 L 289.105469 175.132812 Z M 289.105469 101.933594 "/></g><g clip-rule="nonzero" clip-path="url(#1344fdfe92)"><path style=" stroke:none;fill-rule:nonzero;fill:#004aad;fill-opacity:1;" d="M 168.277344 216.40625 C 150.972656 210.675781 142.679688 198.480469 143.410156 179.816406 C 162.230469 179.816406 174.273438 188.585938 179.546875 206.128906 C 184.816406 188.589844 196.859375 179.816406 215.683594 179.816406 C 216.410156 198.480469 208.121094 210.675781 190.816406 216.40625 C 207.804688 222.199219 215.933594 234.34375 215.21875 252.839844 C 196.933594 252.839844 185.039062 244.566406 179.550781 228.007812 C 174.054688 244.558594 162.167969 252.839844 143.886719 252.839844 C 143.152344 234.34375 151.285156 222.199219 168.277344 216.40625 Z M 168.277344 216.40625 "/></g><path style=" stroke:none;fill-rule:nonzero;fill:#ffffff;fill-opacity:1;" d="M 171.167969 137.582031 C 171.167969 138.15625 171.226562 138.722656 171.335938 139.285156 C 171.449219 139.847656 171.613281 140.394531 171.832031 140.925781 C 172.054688 141.457031 172.324219 141.960938 172.640625 142.4375 C 172.960938 142.914062 173.320312 143.355469 173.726562 143.761719 C 174.132812 144.164062 174.574219 144.527344 175.050781 144.847656 C 175.527344 145.164062 176.03125 145.433594 176.5625 145.652344 C 177.089844 145.871094 177.636719 146.039062 178.199219 146.152344 C 178.761719 146.261719 179.332031 146.320312 179.90625 146.320312 C 180.476562 146.320312 181.046875 146.261719 181.609375 146.152344 C 182.171875 146.039062 182.71875 145.871094 183.246094 145.652344 C 183.777344 145.433594 184.28125 145.164062 184.757812 144.847656 C 185.234375 144.527344 185.675781 144.164062 186.082031 143.761719 C 186.488281 143.355469 186.847656 142.914062 187.167969 142.4375 C 187.488281 141.960938 187.757812 141.457031 187.976562 140.925781 C 188.195312 140.394531 188.359375 139.847656 188.472656 139.285156 C 188.585938 138.722656 188.640625 138.15625 188.640625 137.582031 C 188.640625 137.007812 188.585938 136.441406 188.472656 135.878906 C 188.359375 135.316406 188.195312 134.769531 187.976562 134.238281 C 187.757812 133.710938 187.488281 133.207031 187.167969 132.730469 C 186.847656 132.253906 186.488281 131.8125 186.082031 131.40625 C 185.675781 131 185.234375 130.636719 184.757812 130.320312 C 184.28125 130 183.777344 129.730469 183.246094 129.511719 C 182.71875 129.292969 182.171875 129.125 181.609375 129.015625 C 181.046875 128.902344 180.476562 128.847656 179.90625 128.847656 C 179.332031 128.847656 178.761719 128.902344 178.199219 129.015625 C 177.636719 129.125 177.089844 129.292969 176.5625 129.511719 C 176.03125 129.730469 175.527344 130 175.050781 130.320312 C 174.574219 130.636719 174.132812 131 173.726562 131.40625 C 173.320312 131.8125 172.960938 132.253906 172.640625 132.730469 C 172.324219 133.207031 172.054688 133.710938 171.832031 134.238281 C 171.613281 134.769531 171.449219 135.316406 171.335938 135.878906 C 171.226562 136.441406 171.167969 137.007812 171.167969 137.582031 Z M 171.167969 137.582031 "/><path style=" stroke:none;fill-rule:nonzero;fill:#8cc342;fill-opacity:1;" d="M 216.238281 138.53125 L 216.238281 102.195312 L 179.90625 102.195312 C 179.90625 105.195312 180.269531 108.113281 180.953125 110.90625 C 181.78125 114.269531 183.078125 117.453125 184.773438 120.378906 C 185.882812 122.296875 187.160156 124.101562 188.589844 125.773438 C 189.765625 127.152344 191.039062 128.4375 192.410156 129.625 C 193.847656 130.882812 195.390625 132.027344 197.023438 133.039062 C 198.25 133.804688 199.523438 134.5 200.839844 135.117188 C 202.328125 135.8125 203.871094 136.410156 205.457031 136.902344 C 206.699219 137.292969 207.972656 137.609375 209.273438 137.863281 C 210.78125 138.15625 212.320312 138.355469 213.890625 138.457031 C 214.664062 138.507812 215.449219 138.53125 216.238281 138.53125 Z M 216.238281 138.53125 "/><path style=" stroke:none;fill-rule:nonzero;fill:#8cc342;fill-opacity:1;" d="M 143.207031 138.53125 L 143.207031 102.195312 L 179.539062 102.195312 C 179.539062 105.195312 179.175781 108.113281 178.492188 110.90625 C 177.660156 114.269531 176.367188 117.453125 174.671875 120.378906 C 173.5625 122.296875 172.285156 124.101562 170.855469 125.773438 C 169.675781 127.152344 168.40625 128.4375 167.035156 129.625 C 165.59375 130.882812 164.054688 132.027344 162.421875 133.039062 C 161.195312 133.804688 159.921875 134.5 158.605469 135.117188 C 157.117188 135.8125 155.574219 136.410156 153.988281 136.902344 C 152.746094 137.292969 151.472656 137.609375 150.171875 137.863281 C 148.664062 138.15625 147.125 138.355469 145.554688 138.457031 C 144.78125 138.507812 143.996094 138.53125 143.207031 138.53125 Z M 143.207031 138.53125 "/><path style=" stroke:none;fill-rule:nonzero;fill:#8cc342;fill-opacity:1;" d="M 143.207031 138.53125 L 143.207031 174.863281 L 179.539062 174.863281 C 179.539062 171.863281 179.175781 168.949219 178.492188 166.15625 C 177.660156 162.792969 176.367188 159.605469 174.671875 156.679688 C 173.5625 154.761719 172.285156 152.957031 170.855469 151.285156 C 169.675781 149.90625 168.40625 148.621094 167.035156 147.433594 C 165.59375 146.179688 164.054688 145.035156 162.421875 144.019531 C 161.195312 143.257812 159.921875 142.5625 158.605469 141.945312 C 157.117188 141.25 155.574219 140.648438 153.988281 140.15625 C 152.746094 139.769531 151.472656 139.449219 150.171875 139.199219 C 148.664062 138.90625 147.125 138.703125 145.554688 138.601562 C 144.78125 138.558594 143.996094 138.53125 143.207031 138.53125 Z M 143.207031 138.53125 "/><path style=" stroke:none;fill-rule:nonzero;fill:#8cc342;fill-opacity:1;" d="M 216.238281 138.53125 L 216.238281 174.863281 L 179.90625 174.863281 C 179.90625 171.863281 180.269531 168.949219 180.953125 166.15625 C 181.78125 162.792969 183.078125 159.605469 184.773438 156.679688 C 185.882812 154.761719 187.160156 152.957031 188.589844 151.285156 C 189.765625 149.90625 191.039062 148.621094 192.410156 147.433594 C 193.847656 146.179688 195.390625 145.035156 197.023438 144.019531 C 198.25 143.257812 199.523438 142.5625 200.839844 141.945312 C 202.328125 141.25 203.871094 140.648438 205.457031 140.15625 C 206.699219 139.769531 207.972656 139.449219 209.273438 139.199219 C 210.78125 138.90625 212.320312 138.703125 213.890625 138.601562 C 214.664062 138.558594 215.449219 138.53125 216.238281 138.53125 Z M 216.238281 138.53125 "/><g clip-rule="nonzero" clip-path="url(#b8521da0c8)"><path style=" stroke:none;fill-rule:nonzero;fill:#676b61;fill-opacity:1;" d="M 254.546875 179.882812 L 249.125 179.882812 L 249.125 252.050781 L 254.546875 252.050781 Z M 254.546875 179.882812 "/></g><g clip-rule="nonzero" clip-path="url(#e883148a13)"><path style=" stroke:none;fill-rule:nonzero;fill:#676b61;fill-opacity:1;" d="M 242.570312 179.882812 L 237.148438 179.882812 L 237.148438 252.050781 L 242.570312 252.050781 Z M 242.570312 179.882812 "/></g><g clip-rule="nonzero" clip-path="url(#5973144a56)"><path style=" stroke:none;fill-rule:nonzero;fill:#676b61;fill-opacity:1;" d="M 230.59375 179.882812 L 225.171875 179.882812 L 225.171875 252.050781 L 230.59375 252.050781 Z M 230.59375 179.882812 "/></g><g clip-rule="nonzero" clip-path="url(#e7c90dd5c9)"><path style=" stroke:none;fill-rule:nonzero;fill:#676b61;fill-opacity:1;" d="M 289.246094 178.804688 L 283.824219 178.804688 L 283.824219 250.972656 L 289.246094 250.972656 Z M 289.246094 178.804688 "/></g><path style=" stroke:none;fill-rule:nonzero;fill:#676b61;fill-opacity:1;" d="M 277.269531 178.804688 L 271.847656 178.804688 L 271.847656 250.972656 L 277.269531 250.972656 Z M 277.269531 178.804688 "/><path style=" stroke:none;fill-rule:nonzero;fill:#676b61;fill-opacity:1;" d="M 265.300781 178.804688 L 259.878906 178.804688 L 259.878906 250.972656 L 265.300781 250.972656 Z M 265.300781 178.804688 "/><path style=" stroke:none;fill-rule:nonzero;fill:#004aad;fill-opacity:1;" d="M 253.015625 162.101562 C 256.125 162.101562 259.148438 161.492188 261.996094 160.292969 C 264.746094 159.128906 267.210938 157.464844 269.332031 155.347656 C 271.449219 153.226562 273.109375 150.753906 274.277344 148.007812 C 275.480469 145.164062 276.085938 142.140625 276.085938 139.023438 C 276.085938 135.90625 275.476562 132.890625 274.277344 130.042969 C 273.117188 127.292969 271.449219 124.828125 269.332031 122.707031 C 267.210938 120.585938 264.746094 118.921875 261.996094 117.761719 C 259.15625 116.554688 256.132812 115.949219 253.015625 115.949219 C 249.898438 115.949219 246.878906 116.5625 244.03125 117.761719 C 241.285156 118.921875 238.816406 120.585938 236.699219 122.707031 C 234.578125 124.828125 232.914062 127.292969 231.753906 130.042969 C 230.546875 132.882812 229.941406 135.90625 229.941406 139.023438 C 229.941406 142.140625 230.554688 145.15625 231.753906 148.007812 C 232.914062 150.753906 234.578125 153.21875 236.699219 155.339844 C 238.816406 157.460938 241.285156 159.125 244.03125 160.285156 C 246.875 161.492188 249.898438 162.101562 253.015625 162.101562 Z M 253.015625 117.632812 C 264.8125 117.632812 274.40625 127.226562 274.40625 139.023438 C 274.40625 150.820312 264.8125 160.414062 253.015625 160.414062 C 241.21875 160.414062 231.625 150.820312 231.625 139.023438 C 231.625 127.226562 241.21875 117.632812 253.015625 117.632812 Z M 253.015625 117.632812 "/><path style=" stroke:none;fill-rule:nonzero;fill:#004aad;fill-opacity:1;" d="M 253.015625 167.5625 C 256.867188 167.5625 260.605469 166.804688 264.121094 165.320312 C 267.519531 163.886719 270.570312 161.828125 273.195312 159.203125 C 275.820312 156.578125 277.871094 153.527344 279.3125 150.132812 C 280.796875 146.609375 281.554688 142.875 281.554688 139.023438 C 281.554688 135.171875 280.796875 131.433594 279.3125 127.917969 C 277.875 124.519531 275.820312 121.46875 273.195312 118.84375 C 270.574219 116.226562 267.519531 114.167969 264.121094 112.726562 C 260.601562 111.242188 256.867188 110.484375 253.015625 110.484375 C 249.164062 110.484375 245.421875 111.242188 241.90625 112.726562 C 238.507812 114.164062 235.460938 116.21875 232.835938 118.84375 C 230.214844 121.460938 228.160156 124.519531 226.71875 127.917969 C 225.230469 131.4375 224.476562 135.171875 224.476562 139.023438 C 224.476562 142.875 225.230469 146.617188 226.71875 150.132812 C 228.152344 153.527344 230.210938 156.578125 232.835938 159.203125 C 235.460938 161.828125 238.507812 163.878906 241.90625 165.320312 C 245.421875 166.8125 249.164062 167.5625 253.015625 167.5625 Z M 253.015625 112.171875 C 267.824219 112.171875 279.871094 124.222656 279.871094 139.03125 C 279.871094 153.835938 267.824219 165.886719 253.015625 165.886719 C 238.207031 165.886719 226.15625 153.835938 226.15625 139.03125 C 226.15625 124.222656 238.207031 112.171875 253.015625 112.171875 Z M 253.015625 112.171875 "/><path style=" stroke:none;fill-rule:nonzero;fill:#004aad;fill-opacity:1;" d="M 253.015625 172.617188 C 257.550781 172.617188 261.945312 171.730469 266.089844 169.972656 C 270.089844 168.28125 273.683594 165.859375 276.765625 162.773438 C 279.851562 159.691406 282.273438 156.097656 283.964844 152.097656 C 285.714844 147.957031 286.605469 143.558594 286.605469 139.023438 C 286.605469 134.488281 285.71875 130.089844 283.964844 125.949219 C 282.273438 121.949219 279.851562 118.355469 276.765625 115.273438 C 273.683594 112.1875 270.089844 109.765625 266.089844 108.074219 C 261.945312 106.324219 257.550781 105.433594 253.015625 105.433594 C 248.480469 105.433594 244.082031 106.316406 239.9375 108.074219 C 235.941406 109.765625 232.347656 112.1875 229.261719 115.273438 C 226.179688 118.355469 223.757812 121.949219 222.0625 125.949219 C 220.316406 130.089844 219.421875 134.488281 219.421875 139.023438 C 219.421875 143.558594 220.308594 147.957031 222.0625 152.097656 C 223.757812 156.097656 226.179688 159.691406 229.261719 162.773438 C 232.347656 165.859375 235.941406 168.28125 239.9375 169.972656 C 244.078125 171.730469 248.480469 172.617188 253.015625 172.617188 Z M 253.015625 107.121094 C 270.609375 107.121094 284.925781 121.433594 284.925781 139.03125 C 284.925781 156.625 270.609375 170.9375 253.015625 170.9375 C 235.417969 170.9375 221.105469 156.617188 221.105469 139.023438 C 221.105469 121.429688 235.417969 107.121094 253.015625 107.121094 Z M 253.015625 107.121094 "/><path style=" stroke:none;fill-rule:nonzero;fill:#004aad;fill-opacity:1;" d="M 253.015625 156.914062 C 257.792969 156.914062 262.289062 155.054688 265.664062 151.671875 C 269.046875 148.292969 270.90625 143.800781 270.90625 139.023438 C 270.90625 134.246094 269.046875 129.75 265.664062 126.375 C 262.28125 122.992188 257.792969 121.132812 253.015625 121.132812 C 248.238281 121.132812 243.742188 122.992188 240.367188 126.375 C 236.984375 129.753906 235.121094 134.246094 235.121094 139.023438 C 235.121094 143.800781 236.984375 148.296875 240.367188 151.671875 C 243.742188 155.054688 248.230469 156.914062 253.015625 156.914062 Z M 253.015625 122.820312 C 261.953125 122.820312 269.226562 130.089844 269.226562 139.03125 C 269.226562 147.96875 261.953125 155.238281 253.015625 155.238281 C 244.078125 155.238281 236.804688 147.960938 236.804688 139.023438 C 236.804688 130.085938 244.078125 122.820312 253.015625 122.820312 Z M 253.015625 122.820312 "/><path style=" stroke:none;fill-rule:nonzero;fill:#004aad;fill-opacity:1;" d="M 253.015625 150.707031 C 259.457031 150.707031 264.695312 145.464844 264.695312 139.03125 C 264.695312 132.59375 259.457031 127.34375 253.015625 127.34375 C 246.574219 127.34375 241.335938 132.585938 241.335938 139.023438 C 241.335938 145.460938 246.574219 150.707031 253.015625 150.707031 Z M 253.015625 129.027344 C 258.527344 129.027344 263.011719 133.511719 263.011719 139.023438 C 263.011719 144.535156 258.527344 149.019531 253.015625 149.019531 C 247.503906 149.019531 243.015625 144.535156 243.015625 139.023438 C 243.015625 133.511719 247.496094 129.027344 253.015625 129.027344 Z M 253.015625 129.027344 "/><path style=" stroke:none;fill-rule:nonzero;fill:#004aad;fill-opacity:1;" d="M 253.015625 150.707031 C 259.457031 150.707031 264.695312 145.464844 264.695312 139.03125 C 264.695312 132.59375 259.457031 127.34375 253.015625 127.34375 C 246.574219 127.34375 241.335938 132.585938 241.335938 139.023438 C 241.335938 145.460938 246.574219 150.707031 253.015625 150.707031 Z M 253.015625 129.027344 C 258.527344 129.027344 263.011719 133.511719 263.011719 139.023438 C 263.011719 144.535156 258.527344 149.019531 253.015625 149.019531 C 247.503906 149.019531 243.015625 144.535156 243.015625 139.023438 C 243.015625 133.511719 247.496094 129.027344 253.015625 129.027344 Z M 253.015625 129.027344 "/><path style=" stroke:none;fill-rule:nonzero;fill:#004aad;fill-opacity:1;" d="M 253.015625 145.285156 C 256.46875 145.285156 259.277344 142.476562 259.277344 139.023438 C 259.277344 135.570312 256.46875 132.761719 253.015625 132.761719 C 249.5625 132.761719 246.75 135.570312 246.75 139.023438 C 246.75 142.476562 249.5625 145.285156 253.015625 145.285156 Z M 253.015625 134.449219 C 255.539062 134.449219 257.59375 136.5 257.59375 139.03125 C 257.59375 141.558594 255.542969 143.609375 253.015625 143.609375 C 250.484375 143.609375 248.433594 141.558594 248.433594 139.03125 C 248.433594 136.5 250.484375 134.449219 253.015625 134.449219 Z M 253.015625 134.449219 "/><path style=" stroke:none;fill-rule:nonzero;fill:#ffffff;fill-opacity:1;" d="M 240.9375 214.886719 C 240.9375 215.453125 240.964844 216.019531 241.019531 216.582031 C 241.074219 217.144531 241.160156 217.703125 241.269531 218.257812 C 241.378906 218.816406 241.515625 219.363281 241.679688 219.90625 C 241.847656 220.445312 242.035156 220.980469 242.253906 221.503906 C 242.46875 222.023438 242.710938 222.535156 242.976562 223.035156 C 243.246094 223.535156 243.535156 224.019531 243.851562 224.492188 C 244.164062 224.960938 244.5 225.414062 244.859375 225.851562 C 245.21875 226.289062 245.601562 226.710938 246 227.109375 C 246.402344 227.511719 246.820312 227.890625 247.257812 228.25 C 247.695312 228.609375 248.148438 228.945312 248.621094 229.261719 C 249.089844 229.574219 249.574219 229.863281 250.074219 230.132812 C 250.574219 230.398438 251.085938 230.640625 251.609375 230.855469 C 252.132812 231.074219 252.664062 231.265625 253.207031 231.429688 C 253.746094 231.59375 254.296875 231.730469 254.851562 231.839844 C 255.40625 231.953125 255.964844 232.035156 256.53125 232.089844 C 257.09375 232.144531 257.65625 232.171875 258.222656 232.171875 C 258.789062 232.171875 259.355469 232.144531 259.917969 232.089844 C 260.480469 232.035156 261.039062 231.953125 261.597656 231.839844 C 262.152344 231.730469 262.699219 231.59375 263.242188 231.429688 C 263.785156 231.265625 264.316406 231.074219 264.839844 230.855469 C 265.363281 230.640625 265.875 230.398438 266.371094 230.132812 C 266.871094 229.863281 267.355469 229.574219 267.828125 229.261719 C 268.296875 228.945312 268.753906 228.609375 269.191406 228.25 C 269.628906 227.890625 270.046875 227.511719 270.445312 227.109375 C 270.847656 226.710938 271.226562 226.289062 271.585938 225.851562 C 271.945312 225.414062 272.28125 224.960938 272.597656 224.492188 C 272.910156 224.019531 273.203125 223.535156 273.46875 223.035156 C 273.734375 222.535156 273.976562 222.023438 274.195312 221.503906 C 274.410156 220.980469 274.601562 220.445312 274.765625 219.90625 C 274.929688 219.363281 275.066406 218.816406 275.179688 218.257812 C 275.289062 217.703125 275.371094 217.144531 275.425781 216.582031 C 275.480469 216.019531 275.511719 215.453125 275.511719 214.886719 C 275.511719 214.320312 275.480469 213.753906 275.425781 213.191406 C 275.371094 212.628906 275.289062 212.070312 275.179688 211.515625 C 275.066406 210.960938 274.929688 210.410156 274.765625 209.867188 C 274.601562 209.328125 274.410156 208.792969 274.195312 208.273438 C 273.976562 207.75 273.734375 207.238281 273.46875 206.738281 C 273.203125 206.238281 272.910156 205.753906 272.597656 205.28125 C 272.28125 204.8125 271.945312 204.359375 271.585938 203.921875 C 271.226562 203.484375 270.847656 203.0625 270.445312 202.664062 C 270.046875 202.261719 269.628906 201.882812 269.191406 201.523438 C 268.753906 201.164062 268.296875 200.828125 267.828125 200.511719 C 267.355469 200.199219 266.871094 199.910156 266.371094 199.640625 C 265.875 199.375 265.363281 199.132812 264.839844 198.917969 C 264.316406 198.699219 263.785156 198.507812 263.242188 198.34375 C 262.699219 198.179688 262.152344 198.042969 261.597656 197.933594 C 261.039062 197.820312 260.480469 197.738281 259.917969 197.683594 C 259.355469 197.628906 258.789062 197.601562 258.222656 197.601562 C 257.65625 197.601562 257.09375 197.628906 256.53125 197.683594 C 255.964844 197.738281 255.40625 197.820312 254.851562 197.933594 C 254.296875 198.042969 253.746094 198.179688 253.207031 198.34375 C 252.664062 198.507812 252.132812 198.699219 251.609375 198.917969 C 251.085938 199.132812 250.574219 199.375 250.074219 199.640625 C 249.574219 199.910156 249.089844 200.199219 248.621094 200.511719 C 248.148438 200.828125 247.695312 201.164062 247.257812 201.523438 C 246.820312 201.882812 246.402344 202.261719 246 202.664062 C 245.601562 203.0625 245.21875 203.484375 244.859375 203.921875 C 244.5 204.359375 244.164062 204.8125 243.851562 205.28125 C 243.535156 205.753906 243.246094 206.238281 242.976562 206.738281 C 242.710938 207.238281 242.46875 207.75 242.253906 208.273438 C 242.035156 208.792969 241.847656 209.328125 241.679688 209.867188 C 241.515625 210.410156 241.378906 210.960938 241.269531 211.515625 C 241.160156 212.070312 241.074219 212.628906 241.019531 213.191406 C 240.964844 213.753906 240.9375 214.320312 240.9375 214.886719 Z M 240.9375 214.886719 "/><g clip-rule="nonzero" clip-path="url(#05ca87d78e)"><path style=" stroke:none;fill-rule:nonzero;fill:#fff0b7;fill-opacity:1;" d="M 263.023438 0 L 214.40625 0 L 214.40625 49.296875 L 263.023438 49.296875 Z M 263.023438 0 "/></g><g clip-rule="nonzero" clip-path="url(#d9f85b0214)"><path style=" stroke:none;fill-rule:nonzero;fill:#fff0b7;fill-opacity:1;" d="M 181.648438 77.09375 C 169.992188 73.234375 164.410156 65.023438 164.898438 52.453125 C 177.574219 52.453125 185.6875 58.359375 189.238281 70.171875 C 192.785156 58.363281 200.898438 52.453125 213.574219 52.453125 C 214.066406 65.023438 208.480469 73.234375 196.828125 77.09375 C 208.269531 80.996094 213.742188 89.175781 213.261719 101.632812 C 200.945312 101.632812 192.9375 96.058594 189.242188 84.90625 C 185.539062 96.054688 177.535156 101.632812 165.21875 101.632812 C 164.726562 89.175781 170.203125 80.996094 181.648438 77.09375 Z M 181.648438 77.09375 "/></g><path style=" stroke:none;fill-rule:nonzero;fill:#fff0b7;fill-opacity:1;" d="M 183.59375 24.007812 C 183.59375 24.394531 183.632812 24.777344 183.707031 25.15625 C 183.785156 25.535156 183.894531 25.902344 184.042969 26.261719 C 184.191406 26.617188 184.371094 26.957031 184.585938 27.277344 C 184.800781 27.597656 185.046875 27.898438 185.316406 28.167969 C 185.589844 28.441406 185.886719 28.6875 186.210938 28.902344 C 186.53125 29.117188 186.871094 29.296875 187.226562 29.445312 C 187.582031 29.59375 187.953125 29.703125 188.332031 29.78125 C 188.710938 29.855469 189.09375 29.894531 189.476562 29.894531 C 189.863281 29.894531 190.246094 29.855469 190.625 29.78125 C 191.003906 29.703125 191.371094 29.59375 191.730469 29.445312 C 192.085938 29.296875 192.425781 29.117188 192.746094 28.902344 C 193.066406 28.6875 193.363281 28.441406 193.636719 28.167969 C 193.910156 27.898438 194.15625 27.597656 194.371094 27.277344 C 194.585938 26.957031 194.765625 26.617188 194.914062 26.261719 C 195.0625 25.902344 195.171875 25.535156 195.25 25.15625 C 195.324219 24.777344 195.363281 24.394531 195.363281 24.007812 C 195.363281 23.625 195.324219 23.242188 195.25 22.863281 C 195.171875 22.484375 195.0625 22.113281 194.914062 21.757812 C 194.765625 21.402344 194.585938 21.0625 194.371094 20.742188 C 194.15625 20.417969 193.910156 20.121094 193.636719 19.847656 C 193.363281 19.578125 193.066406 19.332031 192.746094 19.117188 C 192.425781 18.902344 192.085938 18.722656 191.730469 18.574219 C 191.371094 18.425781 191.003906 18.316406 190.625 18.238281 C 190.246094 18.164062 189.863281 18.125 189.476562 18.125 C 189.09375 18.125 188.710938 18.164062 188.332031 18.238281 C 187.953125 18.316406 187.582031 18.425781 187.226562 18.574219 C 186.871094 18.722656 186.53125 18.902344 186.210938 19.117188 C 185.886719 19.332031 185.589844 19.578125 185.316406 19.847656 C 185.046875 20.121094 184.800781 20.421875 184.585938 20.742188 C 184.371094 21.0625 184.191406 21.402344 184.042969 21.757812 C 183.894531 22.113281 183.785156 22.484375 183.707031 22.863281 C 183.632812 23.242188 183.59375 23.625 183.59375 24.007812 Z M 183.59375 24.007812 "/><path style=" stroke:none;fill-rule:nonzero;fill:#8cc342;fill-opacity:1;" d="M 213.949219 24.648438 L 213.949219 0.179688 L 189.476562 0.179688 C 189.476562 2.199219 189.722656 4.164062 190.183594 6.042969 C 190.742188 8.308594 191.617188 10.453125 192.757812 12.425781 C 193.503906 13.714844 194.363281 14.933594 195.328125 16.058594 C 196.121094 16.984375 196.976562 17.851562 197.898438 18.652344 C 198.871094 19.496094 199.90625 20.265625 201.007812 20.949219 C 201.832031 21.464844 202.691406 21.933594 203.578125 22.347656 C 204.578125 22.816406 205.617188 23.21875 206.6875 23.554688 C 207.523438 23.8125 208.382812 24.027344 209.257812 24.199219 C 210.273438 24.394531 211.308594 24.53125 212.367188 24.597656 C 212.886719 24.632812 213.414062 24.648438 213.949219 24.648438 Z M 213.949219 24.648438 "/><g clip-rule="nonzero" clip-path="url(#a11877308c)"><path style=" stroke:none;fill-rule:nonzero;fill:#8cc342;fill-opacity:1;" d="M 164.761719 24.648438 L 164.761719 0.179688 L 189.234375 0.179688 C 189.234375 2.199219 188.988281 4.164062 188.527344 6.042969 C 187.96875 8.308594 187.09375 10.453125 185.957031 12.425781 C 185.207031 13.714844 184.347656 14.933594 183.382812 16.058594 C 182.589844 16.984375 181.734375 17.851562 180.8125 18.652344 C 179.839844 19.496094 178.804688 20.265625 177.703125 20.949219 C 176.878906 21.464844 176.019531 21.933594 175.132812 22.347656 C 174.132812 22.816406 173.09375 23.21875 172.023438 23.554688 C 171.1875 23.8125 170.328125 24.027344 169.453125 24.199219 C 168.4375 24.394531 167.402344 24.53125 166.34375 24.597656 C 165.824219 24.632812 165.296875 24.648438 164.761719 24.648438 Z M 164.761719 24.648438 "/></g><g clip-rule="nonzero" clip-path="url(#6172c01e84)"><path style=" stroke:none;fill-rule:nonzero;fill:#8cc342;fill-opacity:1;" d="M 164.761719 24.648438 L 164.761719 49.117188 L 189.234375 49.117188 C 189.234375 47.097656 188.988281 45.132812 188.527344 43.253906 C 187.96875 40.988281 187.09375 38.84375 185.957031 36.871094 C 185.207031 35.578125 184.347656 34.363281 183.382812 33.238281 C 182.589844 32.308594 181.734375 31.445312 180.8125 30.644531 C 179.839844 29.796875 178.804688 29.027344 177.703125 28.34375 C 176.878906 27.832031 176.019531 27.363281 175.132812 26.949219 C 174.132812 26.480469 173.09375 26.074219 172.023438 25.742188 C 171.1875 25.480469 170.328125 25.265625 169.453125 25.097656 C 168.4375 24.902344 167.402344 24.765625 166.34375 24.695312 C 165.824219 24.667969 165.296875 24.648438 164.761719 24.648438 Z M 164.761719 24.648438 "/></g><path style=" stroke:none;fill-rule:nonzero;fill:#8cc342;fill-opacity:1;" d="M 213.949219 24.648438 L 213.949219 49.117188 L 189.476562 49.117188 C 189.476562 47.097656 189.722656 45.132812 190.183594 43.253906 C 190.742188 40.988281 191.617188 38.84375 192.757812 36.871094 C 193.503906 35.578125 194.363281 34.363281 195.328125 33.238281 C 196.121094 32.308594 196.976562 31.445312 197.898438 30.644531 C 198.871094 29.796875 199.90625 29.027344 201.007812 28.34375 C 201.832031 27.832031 202.691406 27.363281 203.578125 26.949219 C 204.578125 26.480469 205.617188 26.074219 206.6875 25.742188 C 207.523438 25.480469 208.382812 25.265625 209.257812 25.097656 C 210.273438 24.902344 211.308594 24.765625 212.367188 24.695312 C 212.886719 24.667969 213.414062 24.648438 213.949219 24.648438 Z M 213.949219 24.648438 "/><g clip-rule="nonzero" clip-path="url(#9a331aac97)"><path style=" stroke:none;fill-rule:nonzero;fill:#f7941e;fill-opacity:1;" d="M 239.746094 52.496094 L 236.09375 52.496094 L 236.09375 101.101562 L 239.746094 101.101562 Z M 239.746094 52.496094 "/></g><g clip-rule="nonzero" clip-path="url(#ca7f9d622f)"><path style=" stroke:none;fill-rule:nonzero;fill:#f7941e;fill-opacity:1;" d="M 231.679688 52.496094 L 228.027344 52.496094 L 228.027344 101.101562 L 231.679688 101.101562 Z M 231.679688 52.496094 "/></g><g clip-rule="nonzero" clip-path="url(#abadb3a4de)"><path style=" stroke:none;fill-rule:nonzero;fill:#f7941e;fill-opacity:1;" d="M 223.613281 52.496094 L 219.964844 52.496094 L 219.964844 101.101562 L 223.613281 101.101562 Z M 223.613281 52.496094 "/></g><g clip-rule="nonzero" clip-path="url(#ec42db984d)"><path style=" stroke:none;fill-rule:nonzero;fill:#f7941e;fill-opacity:1;" d="M 263.117188 51.773438 L 259.464844 51.773438 L 259.464844 100.375 L 263.117188 100.375 Z M 263.117188 51.773438 "/></g><path style=" stroke:none;fill-rule:nonzero;fill:#f7941e;fill-opacity:1;" d="M 255.050781 51.773438 L 251.398438 51.773438 L 251.398438 100.375 L 255.050781 100.375 Z M 255.050781 51.773438 "/><path style=" stroke:none;fill-rule:nonzero;fill:#f7941e;fill-opacity:1;" d="M 246.988281 51.773438 L 243.335938 51.773438 L 243.335938 100.375 L 246.988281 100.375 Z M 246.988281 51.773438 "/><path style=" stroke:none;fill-rule:nonzero;fill:#fff0b7;fill-opacity:1;" d="M 238.714844 40.523438 C 240.8125 40.523438 242.847656 40.109375 244.765625 39.304688 C 246.617188 38.519531 248.277344 37.398438 249.703125 35.972656 C 251.132812 34.546875 252.25 32.878906 253.035156 31.03125 C 253.847656 29.113281 254.253906 27.078125 254.253906 24.980469 C 254.253906 22.878906 253.84375 20.847656 253.035156 18.929688 C 252.253906 17.082031 251.132812 15.417969 249.703125 13.992188 C 248.277344 12.5625 246.617188 11.441406 244.765625 10.660156 C 242.851562 9.847656 240.816406 9.441406 238.714844 9.441406 C 236.617188 9.441406 234.585938 9.851562 232.667969 10.660156 C 230.816406 11.441406 229.15625 12.5625 227.726562 13.992188 C 226.300781 15.417969 225.179688 17.082031 224.394531 18.929688 C 223.585938 20.84375 223.175781 22.878906 223.175781 24.980469 C 223.175781 27.078125 223.589844 29.109375 224.394531 31.03125 C 225.179688 32.878906 226.300781 34.542969 227.726562 35.96875 C 229.15625 37.394531 230.816406 38.519531 232.667969 39.300781 C 234.582031 40.109375 236.617188 40.523438 238.714844 40.523438 Z M 238.714844 10.574219 C 246.660156 10.574219 253.121094 17.035156 253.121094 24.980469 C 253.121094 32.925781 246.660156 39.386719 238.714844 39.386719 C 230.769531 39.386719 224.308594 32.925781 224.308594 24.980469 C 224.308594 17.035156 230.769531 10.574219 238.714844 10.574219 Z M 238.714844 10.574219 "/><path style=" stroke:none;fill-rule:nonzero;fill:#fff0b7;fill-opacity:1;" d="M 238.714844 44.199219 C 241.308594 44.199219 243.828125 43.691406 246.195312 42.691406 C 248.484375 41.722656 250.539062 40.335938 252.304688 38.570312 C 254.074219 36.804688 255.457031 34.75 256.425781 32.460938 C 257.425781 30.089844 257.9375 27.574219 257.9375 24.980469 C 257.9375 22.386719 257.425781 19.867188 256.425781 17.5 C 255.460938 15.210938 254.074219 13.15625 252.304688 11.390625 C 250.542969 9.625 248.484375 8.242188 246.195312 7.269531 C 243.824219 6.269531 241.308594 5.757812 238.714844 5.757812 C 236.121094 5.757812 233.601562 6.269531 231.234375 7.269531 C 228.945312 8.238281 226.890625 9.621094 225.125 11.390625 C 223.363281 13.152344 221.976562 15.210938 221.003906 17.5 C 220.003906 19.871094 219.496094 22.386719 219.496094 24.980469 C 219.496094 27.574219 220.003906 30.09375 221.003906 32.460938 C 221.972656 34.75 223.359375 36.804688 225.125 38.570312 C 226.890625 40.335938 228.945312 41.71875 231.234375 42.691406 C 233.601562 43.695312 236.121094 44.199219 238.714844 44.199219 Z M 238.714844 6.894531 C 248.6875 6.894531 256.804688 15.011719 256.804688 24.984375 C 256.804688 34.957031 248.6875 43.070312 238.714844 43.070312 C 228.742188 43.070312 220.628906 34.957031 220.628906 24.984375 C 220.628906 15.011719 228.742188 6.894531 238.714844 6.894531 Z M 238.714844 6.894531 "/><path style=" stroke:none;fill-rule:nonzero;fill:#fff0b7;fill-opacity:1;" d="M 238.714844 47.601562 C 241.769531 47.601562 244.730469 47.007812 247.523438 45.824219 C 250.214844 44.683594 252.632812 43.054688 254.710938 40.976562 C 256.789062 38.898438 258.417969 36.480469 259.558594 33.785156 C 260.738281 30.996094 261.339844 28.035156 261.339844 24.980469 C 261.339844 21.925781 260.742188 18.964844 259.558594 16.175781 C 258.417969 13.480469 256.789062 11.0625 254.710938 8.984375 C 252.632812 6.90625 250.214844 5.277344 247.523438 4.136719 C 244.730469 2.957031 241.769531 2.355469 238.714844 2.355469 C 235.660156 2.355469 232.699219 2.953125 229.910156 4.136719 C 227.21875 5.277344 224.796875 6.90625 222.71875 8.984375 C 220.644531 11.0625 219.011719 13.480469 217.871094 16.175781 C 216.691406 18.964844 216.09375 21.925781 216.09375 24.980469 C 216.09375 28.035156 216.6875 30.996094 217.871094 33.785156 C 219.011719 36.480469 220.644531 38.898438 222.71875 40.976562 C 224.796875 43.054688 227.21875 44.683594 229.910156 45.824219 C 232.695312 47.007812 235.660156 47.601562 238.714844 47.601562 Z M 238.714844 3.492188 C 250.566406 3.492188 260.207031 13.132812 260.207031 24.984375 C 260.207031 36.832031 250.566406 46.472656 238.714844 46.472656 C 226.867188 46.472656 217.226562 36.828125 217.226562 24.980469 C 217.226562 13.128906 226.867188 3.492188 238.714844 3.492188 Z M 238.714844 3.492188 "/><path style=" stroke:none;fill-rule:nonzero;fill:#fff0b7;fill-opacity:1;" d="M 238.714844 37.03125 C 241.933594 37.03125 244.960938 35.777344 247.234375 33.5 C 249.511719 31.222656 250.765625 28.199219 250.765625 24.980469 C 250.765625 21.761719 249.511719 18.734375 247.234375 16.460938 C 244.957031 14.183594 241.933594 12.929688 238.714844 12.929688 C 235.5 12.929688 232.46875 14.183594 230.195312 16.460938 C 227.917969 18.738281 226.664062 21.761719 226.664062 24.980469 C 226.664062 28.199219 227.917969 31.226562 230.195312 33.5 C 232.46875 35.777344 235.496094 37.03125 238.714844 37.03125 Z M 238.714844 14.066406 C 244.734375 14.066406 249.632812 18.964844 249.632812 24.984375 C 249.632812 31.003906 244.734375 35.902344 238.714844 35.902344 C 232.695312 35.902344 227.796875 31 227.796875 24.980469 C 227.796875 18.960938 232.695312 14.066406 238.714844 14.066406 Z M 238.714844 14.066406 "/><path style=" stroke:none;fill-rule:nonzero;fill:#fff0b7;fill-opacity:1;" d="M 238.714844 32.851562 C 243.054688 32.851562 246.582031 29.320312 246.582031 24.984375 C 246.582031 20.648438 243.054688 17.113281 238.714844 17.113281 C 234.375 17.113281 230.851562 20.644531 230.851562 24.980469 C 230.851562 29.316406 234.375 32.851562 238.714844 32.851562 Z M 238.714844 18.246094 C 242.425781 18.246094 245.449219 21.269531 245.449219 24.980469 C 245.449219 28.691406 242.425781 31.714844 238.714844 31.714844 C 235.003906 31.714844 231.984375 28.691406 231.984375 24.980469 C 231.984375 21.269531 235 18.246094 238.714844 18.246094 Z M 238.714844 18.246094 "/><path style=" stroke:none;fill-rule:nonzero;fill:#fff0b7;fill-opacity:1;" d="M 238.714844 32.851562 C 243.054688 32.851562 246.582031 29.320312 246.582031 24.984375 C 246.582031 20.648438 243.054688 17.113281 238.714844 17.113281 C 234.375 17.113281 230.851562 20.644531 230.851562 24.980469 C 230.851562 29.316406 234.375 32.851562 238.714844 32.851562 Z M 238.714844 18.246094 C 242.425781 18.246094 245.449219 21.269531 245.449219 24.980469 C 245.449219 28.691406 242.425781 31.714844 238.714844 31.714844 C 235.003906 31.714844 231.984375 28.691406 231.984375 24.980469 C 231.984375 21.269531 235 18.246094 238.714844 18.246094 Z M 238.714844 18.246094 "/><path style=" stroke:none;fill-rule:nonzero;fill:#fff0b7;fill-opacity:1;" d="M 238.714844 29.199219 C 241.042969 29.199219 242.933594 27.304688 242.933594 24.980469 C 242.933594 22.652344 241.042969 20.761719 238.714844 20.761719 C 236.390625 20.761719 234.496094 22.652344 234.496094 24.980469 C 234.496094 27.304688 236.390625 29.199219 238.714844 29.199219 Z M 238.714844 21.898438 C 240.414062 21.898438 241.800781 23.28125 241.800781 24.984375 C 241.800781 26.6875 240.417969 28.070312 238.714844 28.070312 C 237.011719 28.070312 235.628906 26.6875 235.628906 24.984375 C 235.628906 23.28125 237.011719 21.898438 238.714844 21.898438 Z M 238.714844 21.898438 "/><path style=" stroke:none;fill-rule:nonzero;fill:#fff0b7;fill-opacity:1;" d="M 230.582031 76.070312 C 230.582031 76.835938 230.65625 77.59375 230.804688 78.34375 C 230.953125 79.09375 231.175781 79.820312 231.46875 80.527344 C 231.761719 81.234375 232.117188 81.902344 232.542969 82.539062 C 232.96875 83.175781 233.449219 83.761719 233.992188 84.304688 C 234.53125 84.84375 235.121094 85.328125 235.753906 85.75 C 236.390625 86.175781 237.0625 86.535156 237.769531 86.828125 C 238.476562 87.121094 239.203125 87.339844 239.953125 87.488281 C 240.703125 87.640625 241.460938 87.714844 242.222656 87.714844 C 242.988281 87.714844 243.746094 87.640625 244.496094 87.488281 C 245.246094 87.339844 245.972656 87.121094 246.679688 86.828125 C 247.386719 86.535156 248.054688 86.175781 248.691406 85.75 C 249.328125 85.328125 249.914062 84.84375 250.457031 84.304688 C 250.996094 83.761719 251.480469 83.175781 251.902344 82.539062 C 252.328125 81.902344 252.6875 81.234375 252.980469 80.527344 C 253.273438 79.820312 253.492188 79.09375 253.640625 78.34375 C 253.792969 77.59375 253.867188 76.835938 253.867188 76.070312 C 253.867188 75.308594 253.792969 74.550781 253.640625 73.800781 C 253.492188 73.050781 253.273438 72.324219 252.980469 71.617188 C 252.6875 70.910156 252.328125 70.238281 251.902344 69.605469 C 251.480469 68.96875 250.996094 68.378906 250.457031 67.839844 C 249.914062 67.300781 249.328125 66.816406 248.691406 66.390625 C 248.054688 65.96875 247.386719 65.609375 246.679688 65.316406 C 245.972656 65.023438 245.246094 64.800781 244.496094 64.652344 C 243.746094 64.503906 242.988281 64.429688 242.222656 64.429688 C 241.460938 64.429688 240.703125 64.503906 239.953125 64.652344 C 239.203125 64.800781 238.476562 65.023438 237.769531 65.316406 C 237.0625 65.609375 236.390625 65.96875 235.753906 66.390625 C 235.121094 66.816406 234.53125 67.300781 233.992188 67.839844 C 233.449219 68.378906 232.96875 68.96875 232.542969 69.605469 C 232.117188 70.238281 231.761719 70.910156 231.46875 71.617188 C 231.175781 72.324219 230.953125 73.050781 230.804688 73.800781 C 230.65625 74.550781 230.582031 75.308594 230.582031 76.070312 Z M 230.582031 76.070312 "/></g></svg>