<svg xmlns="http://www.w3.org/2000/svg" xmlns:xlink="http://www.w3.org/1999/xlink" width="398" zoomAndPan="magnify" viewBox="0 0 298.5 262.499992" height="350" preserveAspectRatio="xMidYMid meet" version="1.2"><defs><clipPath id="acc8dea6e4"><path d="M 0.0351562 82 L 77 82 L 77 159.445312 L 0.0351562 159.445312 Z M 0.0351562 82 "/></clipPath><clipPath id="484936cef7"><path d="M 77 0.269531 L 154.988281 0.269531 L 154.988281 78 L 77 78 Z M 77 0.269531 "/></clipPath><clipPath id="28dc89b69b"><path d="M 77 121 L 116 121 L 116 159.445312 L 77 159.445312 Z M 77 121 "/></clipPath><clipPath id="a56dfcff08"><path d="M 115 121 L 154.988281 121 L 154.988281 159.445312 L 115 159.445312 Z M 115 121 "/></clipPath><clipPath id="b5d4018696"><path d="M 115 82 L 154.988281 82 L 154.988281 122 L 115 122 Z M 115 82 "/></clipPath><clipPath id="60e746252b"><path d="M 0.0351562 2 L 6 2 L 6 79 L 0.0351562 79 Z M 0.0351562 2 "/></clipPath><clipPath id="1492c5e8d8"><path d="M 34.226562 212 L 83 212 L 83 261.527344 L 34.226562 261.527344 Z M 34.226562 212 "/></clipPath><clipPath id="dd37a191cb"><path d="M 83 237 L 108 237 L 108 261.527344 L 83 261.527344 Z M 83 237 "/></clipPath><clipPath id="421bd1e2ee"><path d="M 108 237 L 133 237 L 133 261.527344 L 108 261.527344 Z M 108 237 "/></clipPath><clipPath id="78c55e410a"><path d="M 34.226562 161 L 38 161 L 38 210 L 34.226562 210 Z M 34.226562 161 "/></clipPath><clipPath id="0b15d1da21"><path d="M 155.164062 83 L 191 83 L 191 118.566406 L 155.164062 118.566406 Z M 155.164062 83 "/></clipPath><clipPath id="4433487125"><path d="M 190 45.335938 L 226 45.335938 L 226 81 L 190 81 Z M 190 45.335938 "/></clipPath><clipPath id="4eef6e90b3"><path d="M 190 100 L 209 100 L 209 118.566406 L 190 118.566406 Z M 190 100 "/></clipPath><clipPath id="f4b50cd1fc"><path d="M 208 100 L 226.277344 100 L 226.277344 118.566406 L 208 118.566406 Z M 208 100 "/></clipPath><clipPath id="fe13864038"><path d="M 208 83 L 226.277344 83 L 226.277344 101 L 208 101 Z M 208 83 "/></clipPath><clipPath id="d2ca486782"><path d="M 172 45.335938 L 175 45.335938 L 175 81 L 172 81 Z M 172 45.335938 "/></clipPath><clipPath id="edc88eda5d"><path d="M 177 45.335938 L 181 45.335938 L 181 81 L 177 81 Z M 177 45.335938 "/></clipPath><clipPath id="17615095df"><path d="M 183 45.335938 L 187 45.335938 L 187 81 L 183 81 Z M 183 45.335938 "/></clipPath><clipPath id="edac75554b"><path d="M 155.164062 46 L 158 46 L 158 82 L 155.164062 82 Z M 155.164062 46 "/></clipPath><clipPath id="69f5da9f12"><path d="M 226.546875 83 L 262 83 L 262 118.566406 L 226.546875 118.566406 Z M 226.546875 83 "/></clipPath><clipPath id="1eb6c309ef"><path d="M 262 45.335938 L 297.660156 45.335938 L 297.660156 81 L 262 81 Z M 262 45.335938 "/></clipPath><clipPath id="c332912da7"><path d="M 261 100 L 280 100 L 280 118.566406 L 261 118.566406 Z M 261 100 "/></clipPath><clipPath id="365647b42f"><path d="M 279 100 L 297.660156 100 L 297.660156 118.566406 L 279 118.566406 Z M 279 100 "/></clipPath><clipPath id="524316506f"><path d="M 279 83 L 297.660156 83 L 297.660156 101 L 279 101 Z M 279 83 "/></clipPath><clipPath id="cb443b67fd"><path d="M 243 45.335938 L 247 45.335938 L 247 81 L 243 81 Z M 243 45.335938 "/></clipPath><clipPath id="61b552ce32"><path d="M 249 45.335938 L 252 45.335938 L 252 81 L 249 81 Z M 249 45.335938 "/></clipPath><clipPath id="d93fb66f49"><path d="M 255 45.335938 L 258 45.335938 L 258 81 L 255 81 Z M 255 45.335938 "/></clipPath><clipPath id="76faa6855f"><path d="M 226.546875 46 L 230 46 L 230 82 L 226.546875 82 Z M 226.546875 46 "/></clipPath></defs><g id="513a1e2351"><g clip-rule="nonzero" clip-path="url(#acc8dea6e4)"><path style=" stroke:none;fill-rule:nonzero;fill:#ffffff;fill-opacity:1;" d="M 0.183594 159.714844 L 76.457031 159.714844 L 76.457031 82.375 L 0.183594 82.375 Z M 0.183594 159.714844 "/></g><g clip-rule="nonzero" clip-path="url(#484936cef7)"><path style=" stroke:none;fill-rule:nonzero;fill:#23aaec;fill-opacity:1;" d="M 127.847656 38.765625 C 146.128906 44.820312 154.890625 57.707031 154.121094 77.425781 C 134.234375 77.425781 121.507812 68.160156 115.941406 49.625 C 110.371094 68.15625 97.644531 77.425781 77.757812 77.425781 C 76.988281 57.707031 85.75 44.820312 104.03125 38.765625 C 86.082031 32.644531 77.492188 19.816406 78.25 0.269531 C 97.570312 0.269531 110.132812 9.015625 115.933594 26.507812 C 121.738281 9.019531 134.300781 0.269531 153.617188 0.269531 C 154.394531 19.816406 145.796875 32.644531 127.847656 38.765625 Z M 127.847656 38.765625 "/></g><path style=" stroke:none;fill-rule:nonzero;fill:#ffffff;fill-opacity:1;" d="M 124.789062 122.046875 C 124.789062 121.441406 124.730469 120.839844 124.613281 120.246094 C 124.496094 119.652344 124.320312 119.074219 124.089844 118.515625 C 123.855469 117.957031 123.570312 117.421875 123.234375 116.917969 C 122.898438 116.414062 122.515625 115.949219 122.085938 115.519531 C 121.660156 115.09375 121.191406 114.710938 120.6875 114.375 C 120.183594 114.035156 119.652344 113.753906 119.09375 113.519531 C 118.535156 113.289062 117.957031 113.113281 117.363281 112.996094 C 116.765625 112.878906 116.167969 112.816406 115.5625 112.816406 C 114.953125 112.816406 114.355469 112.878906 113.761719 112.996094 C 113.167969 113.113281 112.589844 113.289062 112.027344 113.519531 C 111.46875 113.753906 110.9375 114.035156 110.433594 114.375 C 109.929688 114.710938 109.464844 115.09375 109.035156 115.519531 C 108.605469 115.949219 108.222656 116.414062 107.886719 116.917969 C 107.550781 117.421875 107.265625 117.957031 107.035156 118.515625 C 106.800781 119.074219 106.625 119.652344 106.507812 120.246094 C 106.390625 120.839844 106.332031 121.441406 106.332031 122.046875 C 106.332031 122.652344 106.390625 123.253906 106.507812 123.847656 C 106.625 124.441406 106.800781 125.019531 107.035156 125.578125 C 107.265625 126.140625 107.550781 126.671875 107.886719 127.175781 C 108.222656 127.679688 108.605469 128.144531 109.035156 128.574219 C 109.464844 129.003906 109.929688 129.386719 110.433594 129.722656 C 110.9375 130.058594 111.46875 130.34375 112.027344 130.574219 C 112.589844 130.808594 113.167969 130.980469 113.761719 131.101562 C 114.355469 131.21875 114.953125 131.277344 115.5625 131.277344 C 116.167969 131.277344 116.765625 131.21875 117.363281 131.101562 C 117.957031 130.980469 118.535156 130.808594 119.09375 130.574219 C 119.652344 130.34375 120.183594 130.058594 120.6875 129.722656 C 121.191406 129.386719 121.660156 129.003906 122.085938 128.574219 C 122.515625 128.144531 122.898438 127.679688 123.234375 127.175781 C 123.570312 126.671875 123.855469 126.140625 124.089844 125.578125 C 124.320312 125.019531 124.496094 124.441406 124.613281 123.847656 C 124.730469 123.253906 124.789062 122.652344 124.789062 122.046875 Z M 124.789062 122.046875 "/><g clip-rule="nonzero" clip-path="url(#28dc89b69b)"><path style=" stroke:none;fill-rule:nonzero;fill:#8cc342;fill-opacity:1;" d="M 77.171875 121.046875 L 77.171875 159.433594 L 115.5625 159.433594 C 115.5625 156.265625 115.175781 153.183594 114.453125 150.234375 C 113.578125 146.679688 112.207031 143.316406 110.417969 140.222656 C 109.246094 138.195312 107.894531 136.289062 106.382812 134.523438 C 105.140625 133.066406 103.796875 131.710938 102.351562 130.453125 C 100.828125 129.128906 99.199219 127.917969 97.476562 126.847656 C 96.175781 126.039062 94.832031 125.304688 93.441406 124.65625 C 91.871094 123.917969 90.242188 123.285156 88.566406 122.765625 C 87.25 122.355469 85.90625 122.019531 84.53125 121.75 C 82.9375 121.445312 81.3125 121.230469 79.65625 121.125 C 78.835938 121.070312 78.007812 121.046875 77.171875 121.046875 Z M 77.171875 121.046875 "/></g><g clip-rule="nonzero" clip-path="url(#a56dfcff08)"><path style=" stroke:none;fill-rule:nonzero;fill:#8cc342;fill-opacity:1;" d="M 154.335938 121.046875 L 154.335938 159.433594 L 115.945312 159.433594 C 115.945312 156.265625 116.332031 153.183594 117.054688 150.234375 C 117.929688 146.679688 119.300781 143.316406 121.089844 140.222656 C 122.261719 138.195312 123.613281 136.289062 125.121094 134.523438 C 126.367188 133.066406 127.710938 131.710938 129.15625 130.453125 C 130.679688 129.128906 132.308594 127.917969 134.03125 126.847656 C 135.328125 126.039062 136.675781 125.304688 138.066406 124.65625 C 139.636719 123.917969 141.265625 123.285156 142.941406 122.765625 C 144.257812 122.355469 145.601562 122.019531 146.976562 121.75 C 148.570312 121.445312 150.195312 121.230469 151.851562 121.125 C 152.671875 121.070312 153.5 121.046875 154.335938 121.046875 Z M 154.335938 121.046875 "/></g><g clip-rule="nonzero" clip-path="url(#b5d4018696)"><path style=" stroke:none;fill-rule:nonzero;fill:#8cc342;fill-opacity:1;" d="M 154.335938 121.046875 L 154.335938 82.65625 L 115.945312 82.65625 C 115.945312 85.828125 116.332031 88.90625 117.054688 91.859375 C 117.929688 95.414062 119.300781 98.777344 121.089844 101.871094 C 122.261719 103.894531 123.613281 105.804688 125.121094 107.570312 C 126.367188 109.027344 127.710938 110.382812 129.15625 111.640625 C 130.679688 112.964844 132.308594 114.175781 134.03125 115.246094 C 135.328125 116.050781 136.675781 116.785156 138.066406 117.4375 C 139.636719 118.171875 141.265625 118.808594 142.941406 119.328125 C 144.257812 119.738281 145.601562 120.074219 146.976562 120.339844 C 148.570312 120.648438 150.195312 120.863281 151.851562 120.96875 C 152.671875 121.015625 153.5 121.046875 154.335938 121.046875 Z M 154.335938 121.046875 "/></g><path style=" stroke:none;fill-rule:nonzero;fill:#8cc342;fill-opacity:1;" d="M 77.171875 121.046875 L 77.171875 82.65625 L 115.5625 82.65625 C 115.5625 85.828125 115.175781 88.90625 114.453125 91.859375 C 113.578125 95.414062 112.207031 98.777344 110.417969 101.871094 C 109.246094 103.894531 107.894531 105.804688 106.382812 107.570312 C 105.140625 109.027344 103.796875 110.382812 102.351562 111.640625 C 100.828125 112.964844 99.199219 114.175781 97.476562 115.246094 C 96.175781 116.050781 94.832031 116.785156 93.441406 117.4375 C 91.871094 118.171875 90.242188 118.808594 88.566406 119.328125 C 87.25 119.738281 85.90625 120.074219 84.53125 120.339844 C 82.9375 120.648438 81.3125 120.863281 79.65625 120.96875 C 78.835938 121.015625 78.007812 121.046875 77.171875 121.046875 Z M 77.171875 121.046875 "/><path style=" stroke:none;fill-rule:nonzero;fill:#20d0a5;fill-opacity:1;" d="M 36.699219 77.355469 L 42.425781 77.355469 L 42.425781 1.105469 L 36.699219 1.105469 Z M 36.699219 77.355469 "/><path style=" stroke:none;fill-rule:nonzero;fill:#20d0a5;fill-opacity:1;" d="M 49.351562 77.355469 L 55.082031 77.355469 L 55.082031 1.105469 L 49.351562 1.105469 Z M 49.351562 77.355469 "/><path style=" stroke:none;fill-rule:nonzero;fill:#20d0a5;fill-opacity:1;" d="M 62.007812 77.355469 L 67.734375 77.355469 L 67.734375 1.105469 L 62.007812 1.105469 Z M 62.007812 77.355469 "/><g clip-rule="nonzero" clip-path="url(#60e746252b)"><path style=" stroke:none;fill-rule:nonzero;fill:#20d0a5;fill-opacity:1;" d="M 0.0351562 78.492188 L 5.761719 78.492188 L 5.761719 2.242188 L 0.0351562 2.242188 Z M 0.0351562 78.492188 "/></g><path style=" stroke:none;fill-rule:nonzero;fill:#20d0a5;fill-opacity:1;" d="M 12.6875 78.492188 L 18.417969 78.492188 L 18.417969 2.242188 L 12.6875 2.242188 Z M 12.6875 78.492188 "/><path style=" stroke:none;fill-rule:nonzero;fill:#20d0a5;fill-opacity:1;" d="M 25.335938 78.492188 L 31.066406 78.492188 L 31.066406 2.242188 L 25.335938 2.242188 Z M 25.335938 78.492188 "/><path style=" stroke:none;fill-rule:nonzero;fill:#23aaec;fill-opacity:1;" d="M 38.316406 96.140625 C 35.027344 96.140625 31.835938 96.789062 28.824219 98.054688 C 25.921875 99.28125 23.316406 101.039062 21.078125 103.28125 C 18.835938 105.519531 17.082031 108.132812 15.851562 111.035156 C 14.578125 114.039062 13.9375 117.230469 13.9375 120.523438 C 13.9375 123.820312 14.582031 127.007812 15.851562 130.015625 C 17.078125 132.917969 18.835938 135.523438 21.078125 137.765625 C 23.316406 140.003906 25.921875 141.761719 28.824219 142.988281 C 31.828125 144.261719 35.023438 144.902344 38.316406 144.902344 C 41.609375 144.902344 44.796875 144.257812 47.804688 142.988281 C 50.710938 141.761719 53.316406 140.003906 55.554688 137.765625 C 57.792969 135.523438 59.554688 132.917969 60.78125 130.015625 C 62.054688 127.011719 62.695312 123.820312 62.695312 120.523438 C 62.695312 117.230469 62.046875 114.042969 60.78125 111.035156 C 59.554688 108.132812 57.792969 105.523438 55.554688 103.285156 C 53.316406 101.046875 50.710938 99.289062 47.804688 98.0625 C 44.804688 96.789062 41.609375 96.140625 38.316406 96.140625 Z M 38.316406 143.125 C 25.851562 143.125 15.714844 132.988281 15.714844 120.523438 C 15.714844 108.0625 25.851562 97.925781 38.316406 97.925781 C 50.78125 97.925781 60.917969 108.0625 60.917969 120.523438 C 60.917969 132.988281 50.78125 143.125 38.316406 143.125 Z M 38.316406 143.125 "/><path style=" stroke:none;fill-rule:nonzero;fill:#23aaec;fill-opacity:1;" d="M 38.316406 90.371094 C 34.246094 90.371094 30.292969 91.171875 26.582031 92.742188 C 22.992188 94.257812 19.765625 96.433594 16.996094 99.203125 C 14.222656 101.976562 12.054688 105.199219 10.53125 108.789062 C 8.960938 112.511719 8.164062 116.457031 8.164062 120.523438 C 8.164062 124.59375 8.960938 128.546875 10.53125 132.261719 C 12.046875 135.851562 14.222656 139.074219 16.996094 141.847656 C 19.761719 144.613281 22.992188 146.785156 26.582031 148.308594 C 30.300781 149.878906 34.246094 150.679688 38.316406 150.679688 C 42.386719 150.679688 46.335938 149.878906 50.050781 148.308594 C 53.640625 146.792969 56.863281 144.617188 59.636719 141.847656 C 62.402344 139.078125 64.578125 135.851562 66.101562 132.261719 C 67.671875 128.539062 68.46875 124.59375 68.46875 120.523438 C 68.46875 116.457031 67.671875 112.503906 66.101562 108.789062 C 64.582031 105.199219 62.410156 101.976562 59.636719 99.203125 C 56.863281 96.433594 53.640625 94.261719 50.050781 92.742188 C 46.335938 91.164062 42.386719 90.371094 38.316406 90.371094 Z M 38.316406 148.894531 C 22.671875 148.894531 9.9375 136.164062 9.9375 120.519531 C 9.9375 104.875 22.671875 92.144531 38.316406 92.144531 C 53.960938 92.144531 66.691406 104.875 66.691406 120.519531 C 66.691406 136.164062 53.960938 148.894531 38.316406 148.894531 Z M 38.316406 148.894531 "/><path style=" stroke:none;fill-rule:nonzero;fill:#23aaec;fill-opacity:1;" d="M 38.316406 85.035156 C 33.523438 85.035156 28.878906 85.96875 24.5 87.824219 C 20.277344 89.613281 16.480469 92.171875 13.222656 95.429688 C 9.964844 98.6875 7.402344 102.484375 5.613281 106.710938 C 3.765625 111.089844 2.824219 115.734375 2.824219 120.523438 C 2.824219 125.316406 3.761719 129.960938 5.613281 134.339844 C 7.402344 138.5625 9.964844 142.363281 13.222656 145.621094 C 16.480469 148.878906 20.277344 151.4375 24.5 153.226562 C 28.878906 155.074219 33.523438 156.015625 38.316406 156.015625 C 43.109375 156.015625 47.753906 155.082031 52.132812 153.226562 C 56.355469 151.4375 60.152344 148.878906 63.410156 145.621094 C 66.667969 142.363281 69.226562 138.5625 71.015625 134.339844 C 72.867188 129.960938 73.808594 125.316406 73.808594 120.523438 C 73.808594 115.734375 72.871094 111.089844 71.015625 106.710938 C 69.226562 102.484375 66.667969 98.6875 63.410156 95.429688 C 60.152344 92.171875 56.355469 89.613281 52.132812 87.824219 C 47.757812 85.96875 43.109375 85.035156 38.316406 85.035156 Z M 38.316406 154.234375 C 19.726562 154.234375 4.601562 139.109375 4.601562 120.519531 C 4.601562 101.929688 19.726562 86.804688 38.316406 86.804688 C 56.90625 86.804688 72.03125 101.933594 72.03125 120.523438 C 72.03125 139.113281 56.90625 154.234375 38.316406 154.234375 Z M 38.316406 154.234375 "/><path style=" stroke:none;fill-rule:nonzero;fill:#23aaec;fill-opacity:1;" d="M 38.316406 101.621094 C 33.269531 101.621094 28.515625 103.589844 24.953125 107.160156 C 21.378906 110.734375 19.414062 115.476562 19.414062 120.523438 C 19.414062 125.574219 21.378906 130.324219 24.953125 133.890625 C 28.523438 137.460938 33.269531 139.429688 38.316406 139.429688 C 43.363281 139.429688 48.113281 137.460938 51.679688 133.890625 C 55.253906 130.316406 57.21875 125.574219 57.21875 120.523438 C 57.21875 115.476562 55.253906 110.726562 51.679688 107.160156 C 48.113281 103.589844 43.371094 101.621094 38.316406 101.621094 Z M 38.316406 137.644531 C 28.871094 137.644531 21.1875 129.960938 21.1875 120.519531 C 21.1875 111.078125 28.871094 103.390625 38.316406 103.390625 C 47.757812 103.390625 55.441406 111.082031 55.441406 120.523438 C 55.441406 129.96875 47.757812 137.644531 38.316406 137.644531 Z M 38.316406 137.644531 "/><path style=" stroke:none;fill-rule:nonzero;fill:#23aaec;fill-opacity:1;" d="M 38.316406 108.179688 C 31.507812 108.179688 25.976562 113.71875 25.976562 120.519531 C 25.976562 127.320312 31.507812 132.863281 38.316406 132.863281 C 45.121094 132.863281 50.65625 127.324219 50.65625 120.523438 C 50.65625 113.722656 45.121094 108.179688 38.316406 108.179688 Z M 38.316406 131.089844 C 32.492188 131.089844 27.753906 126.347656 27.753906 120.523438 C 27.753906 114.703125 32.492188 109.960938 38.316406 109.960938 C 44.140625 109.960938 48.878906 114.703125 48.878906 120.523438 C 48.878906 126.347656 44.144531 131.089844 38.316406 131.089844 Z M 38.316406 131.089844 "/><path style=" stroke:none;fill-rule:nonzero;fill:#23aaec;fill-opacity:1;" d="M 38.316406 108.179688 C 31.507812 108.179688 25.976562 113.71875 25.976562 120.519531 C 25.976562 127.320312 31.507812 132.863281 38.316406 132.863281 C 45.121094 132.863281 50.65625 127.324219 50.65625 120.523438 C 50.65625 113.722656 45.121094 108.179688 38.316406 108.179688 Z M 38.316406 131.089844 C 32.492188 131.089844 27.753906 126.347656 27.753906 120.523438 C 27.753906 114.703125 32.492188 109.960938 38.316406 109.960938 C 44.140625 109.960938 48.878906 114.703125 48.878906 120.523438 C 48.878906 126.347656 44.144531 131.089844 38.316406 131.089844 Z M 38.316406 131.089844 "/><path style=" stroke:none;fill-rule:nonzero;fill:#23aaec;fill-opacity:1;" d="M 38.316406 113.90625 C 34.667969 113.90625 31.699219 116.875 31.699219 120.523438 C 31.699219 124.175781 34.667969 127.140625 38.316406 127.140625 C 41.964844 127.140625 44.933594 124.175781 44.933594 120.523438 C 44.933594 116.875 41.964844 113.90625 38.316406 113.90625 Z M 38.316406 125.359375 C 35.648438 125.359375 33.476562 123.191406 33.476562 120.519531 C 33.476562 117.847656 35.644531 115.679688 38.316406 115.679688 C 40.988281 115.679688 43.15625 117.847656 43.15625 120.519531 C 43.15625 123.191406 40.988281 125.359375 38.316406 125.359375 Z M 38.316406 125.359375 "/><path style=" stroke:none;fill-rule:nonzero;fill:#ffffff;fill-opacity:1;" d="M 51.078125 40.371094 C 51.078125 39.773438 51.046875 39.175781 50.988281 38.582031 C 50.929688 37.984375 50.84375 37.394531 50.726562 36.808594 C 50.609375 36.222656 50.464844 35.640625 50.289062 35.070312 C 50.117188 34.496094 49.914062 33.933594 49.6875 33.382812 C 49.457031 32.828125 49.203125 32.289062 48.921875 31.761719 C 48.636719 31.234375 48.332031 30.722656 48 30.222656 C 47.667969 29.726562 47.308594 29.246094 46.929688 28.785156 C 46.550781 28.324219 46.148438 27.878906 45.726562 27.457031 C 45.304688 27.035156 44.863281 26.632812 44.398438 26.253906 C 43.9375 25.875 43.457031 25.519531 42.960938 25.183594 C 42.460938 24.851562 41.949219 24.546875 41.421875 24.265625 C 40.894531 23.980469 40.355469 23.726562 39.800781 23.496094 C 39.25 23.269531 38.6875 23.066406 38.113281 22.894531 C 37.542969 22.71875 36.960938 22.574219 36.375 22.457031 C 35.789062 22.339844 35.199219 22.253906 34.601562 22.195312 C 34.007812 22.136719 33.410156 22.105469 32.8125 22.105469 C 32.214844 22.105469 31.617188 22.136719 31.023438 22.195312 C 30.425781 22.253906 29.835938 22.339844 29.25 22.457031 C 28.664062 22.574219 28.082031 22.71875 27.511719 22.894531 C 26.9375 23.066406 26.375 23.269531 25.824219 23.496094 C 25.269531 23.726562 24.730469 23.980469 24.203125 24.265625 C 23.675781 24.546875 23.164062 24.851562 22.664062 25.183594 C 22.167969 25.519531 21.6875 25.875 21.226562 26.253906 C 20.761719 26.632812 20.320312 27.035156 19.898438 27.457031 C 19.476562 27.878906 19.074219 28.324219 18.695312 28.785156 C 18.316406 29.246094 17.957031 29.726562 17.625 30.222656 C 17.292969 30.722656 16.988281 31.234375 16.703125 31.761719 C 16.421875 32.289062 16.167969 32.828125 15.9375 33.382812 C 15.710938 33.933594 15.507812 34.496094 15.335938 35.070312 C 15.160156 35.640625 15.015625 36.222656 14.898438 36.808594 C 14.78125 37.394531 14.695312 37.984375 14.636719 38.582031 C 14.578125 39.175781 14.546875 39.773438 14.546875 40.371094 C 14.546875 40.96875 14.578125 41.566406 14.636719 42.160156 C 14.695312 42.757812 14.78125 43.347656 14.898438 43.933594 C 15.015625 44.519531 15.160156 45.101562 15.335938 45.671875 C 15.507812 46.246094 15.710938 46.808594 15.9375 47.359375 C 16.167969 47.914062 16.421875 48.453125 16.703125 48.980469 C 16.988281 49.507812 17.292969 50.019531 17.625 50.519531 C 17.957031 51.015625 18.316406 51.496094 18.695312 51.957031 C 19.074219 52.421875 19.476562 52.863281 19.898438 53.285156 C 20.320312 53.710938 20.761719 54.109375 21.226562 54.488281 C 21.6875 54.871094 22.167969 55.226562 22.664062 55.558594 C 23.164062 55.890625 23.675781 56.195312 24.203125 56.480469 C 24.730469 56.761719 25.269531 57.015625 25.824219 57.246094 C 26.375 57.472656 26.9375 57.675781 27.511719 57.847656 C 28.082031 58.023438 28.664062 58.167969 29.25 58.285156 C 29.835938 58.402344 30.425781 58.488281 31.023438 58.546875 C 31.617188 58.605469 32.214844 58.636719 32.8125 58.636719 C 33.410156 58.636719 34.007812 58.605469 34.601562 58.546875 C 35.199219 58.488281 35.789062 58.402344 36.375 58.285156 C 36.960938 58.167969 37.542969 58.023438 38.113281 57.847656 C 38.6875 57.675781 39.25 57.472656 39.800781 57.246094 C 40.355469 57.015625 40.894531 56.761719 41.421875 56.480469 C 41.949219 56.195312 42.460938 55.890625 42.960938 55.558594 C 43.457031 55.226562 43.9375 54.871094 44.398438 54.488281 C 44.863281 54.109375 45.304688 53.710938 45.726562 53.285156 C 46.148438 52.863281 46.550781 52.421875 46.929688 51.957031 C 47.308594 51.496094 47.667969 51.015625 48 50.519531 C 48.332031 50.019531 48.636719 49.507812 48.921875 48.980469 C 49.203125 48.453125 49.457031 47.914062 49.6875 47.359375 C 49.914062 46.808594 50.117188 46.246094 50.289062 45.671875 C 50.464844 45.101562 50.609375 44.519531 50.726562 43.933594 C 50.84375 43.347656 50.929688 42.757812 50.988281 42.160156 C 51.046875 41.566406 51.078125 40.96875 51.078125 40.371094 Z M 51.078125 40.371094 "/><g clip-rule="nonzero" clip-path="url(#1492c5e8d8)"><path style=" stroke:none;fill-rule:nonzero;fill:#fff0b7;fill-opacity:1;" d="M 34.320312 261.75 L 82.992188 261.75 L 82.992188 212.398438 L 34.320312 212.398438 Z M 34.320312 261.75 "/></g><path style=" stroke:none;fill-rule:nonzero;fill:#fff0b7;fill-opacity:1;" d="M 115.785156 184.574219 C 127.449219 188.4375 133.039062 196.660156 132.546875 209.242188 C 119.859375 209.242188 111.738281 203.332031 108.183594 191.503906 C 104.632812 203.328125 96.511719 209.242188 83.824219 209.242188 C 83.332031 196.660156 88.921875 188.4375 100.585938 184.574219 C 89.132812 180.667969 83.652344 172.480469 84.136719 160.011719 C 96.464844 160.011719 104.480469 165.589844 108.179688 176.753906 C 111.886719 165.59375 119.898438 160.011719 132.226562 160.011719 C 132.722656 172.480469 127.238281 180.667969 115.785156 184.574219 Z M 115.785156 184.574219 "/><path style=" stroke:none;fill-rule:nonzero;fill:#fff0b7;fill-opacity:1;" d="M 113.832031 237.714844 C 113.832031 237.328125 113.796875 236.945312 113.71875 236.566406 C 113.644531 236.1875 113.53125 235.816406 113.382812 235.460938 C 113.238281 235.101562 113.054688 234.765625 112.839844 234.441406 C 112.625 234.121094 112.382812 233.824219 112.109375 233.550781 C 111.835938 233.277344 111.535156 233.03125 111.214844 232.816406 C 110.894531 232.601562 110.554688 232.421875 110.195312 232.273438 C 109.839844 232.125 109.472656 232.011719 109.09375 231.9375 C 108.714844 231.863281 108.332031 231.824219 107.945312 231.824219 C 107.558594 231.824219 107.171875 231.863281 106.792969 231.9375 C 106.414062 232.011719 106.046875 232.125 105.691406 232.273438 C 105.332031 232.421875 104.992188 232.601562 104.671875 232.816406 C 104.351562 233.03125 104.050781 233.277344 103.777344 233.550781 C 103.503906 233.824219 103.261719 234.121094 103.046875 234.441406 C 102.832031 234.765625 102.648438 235.101562 102.503906 235.460938 C 102.355469 235.816406 102.242188 236.1875 102.167969 236.566406 C 102.089844 236.945312 102.054688 237.328125 102.054688 237.714844 C 102.054688 238.101562 102.089844 238.484375 102.167969 238.863281 C 102.242188 239.242188 102.355469 239.609375 102.503906 239.96875 C 102.648438 240.324219 102.832031 240.664062 103.046875 240.988281 C 103.261719 241.308594 103.503906 241.605469 103.777344 241.878906 C 104.050781 242.152344 104.351562 242.394531 104.671875 242.609375 C 104.992188 242.824219 105.332031 243.007812 105.691406 243.15625 C 106.046875 243.304688 106.414062 243.414062 106.792969 243.492188 C 107.171875 243.566406 107.558594 243.605469 107.945312 243.605469 C 108.332031 243.605469 108.714844 243.566406 109.09375 243.492188 C 109.472656 243.414062 109.839844 243.304688 110.195312 243.15625 C 110.554688 243.007812 110.894531 242.824219 111.214844 242.609375 C 111.535156 242.394531 111.835938 242.152344 112.109375 241.878906 C 112.382812 241.605469 112.625 241.308594 112.839844 240.988281 C 113.054688 240.664062 113.238281 240.324219 113.382812 239.96875 C 113.53125 239.609375 113.644531 239.242188 113.71875 238.863281 C 113.796875 238.484375 113.832031 238.101562 113.832031 237.714844 Z M 113.832031 237.714844 "/><g clip-rule="nonzero" clip-path="url(#dd37a191cb)"><path style=" stroke:none;fill-rule:nonzero;fill:#8cc342;fill-opacity:1;" d="M 83.449219 237.074219 L 83.449219 261.570312 L 107.945312 261.570312 C 107.945312 259.546875 107.699219 257.582031 107.238281 255.699219 C 106.675781 253.433594 105.804688 251.285156 104.664062 249.3125 C 103.914062 248.019531 103.050781 246.800781 102.089844 245.675781 C 101.292969 244.746094 100.4375 243.878906 99.515625 243.078125 C 98.542969 242.230469 97.503906 241.460938 96.402344 240.777344 C 95.574219 240.261719 94.71875 239.792969 93.828125 239.378906 C 92.828125 238.910156 91.789062 238.503906 90.71875 238.171875 C 89.878906 237.910156 89.019531 237.695312 88.144531 237.527344 C 87.125 237.328125 86.089844 237.191406 85.03125 237.125 C 84.511719 237.089844 83.980469 237.074219 83.449219 237.074219 Z M 83.449219 237.074219 "/></g><g clip-rule="nonzero" clip-path="url(#421bd1e2ee)"><path style=" stroke:none;fill-rule:nonzero;fill:#8cc342;fill-opacity:1;" d="M 132.683594 237.074219 L 132.683594 261.570312 L 108.1875 261.570312 C 108.1875 259.546875 108.433594 257.582031 108.894531 255.699219 C 109.457031 253.433594 110.328125 251.285156 111.46875 249.3125 C 112.21875 248.019531 113.082031 246.800781 114.042969 245.675781 C 114.839844 244.746094 115.695312 243.878906 116.617188 243.078125 C 117.589844 242.230469 118.628906 241.460938 119.730469 240.777344 C 120.558594 240.261719 121.414062 239.792969 122.304688 239.378906 C 123.304688 238.910156 124.34375 238.503906 125.414062 238.171875 C 126.253906 237.910156 127.113281 237.695312 127.988281 237.527344 C 129.007812 237.328125 130.042969 237.191406 131.101562 237.125 C 131.621094 237.089844 132.152344 237.074219 132.683594 237.074219 Z M 132.683594 237.074219 "/></g><path style=" stroke:none;fill-rule:nonzero;fill:#8cc342;fill-opacity:1;" d="M 132.683594 237.074219 L 132.683594 212.582031 L 108.1875 212.582031 C 108.1875 214.601562 108.433594 216.570312 108.894531 218.449219 C 109.457031 220.71875 110.328125 222.867188 111.46875 224.839844 C 112.21875 226.132812 113.082031 227.347656 114.042969 228.476562 C 114.839844 229.40625 115.695312 230.269531 116.617188 231.074219 C 117.589844 231.917969 118.628906 232.691406 119.730469 233.375 C 120.558594 233.890625 121.414062 234.359375 122.304688 234.773438 C 123.304688 235.242188 124.34375 235.648438 125.414062 235.980469 C 126.253906 236.238281 127.113281 236.457031 127.988281 236.625 C 129.007812 236.824219 130.042969 236.957031 131.101562 237.027344 C 131.621094 237.058594 132.152344 237.074219 132.683594 237.074219 Z M 132.683594 237.074219 "/><path style=" stroke:none;fill-rule:nonzero;fill:#8cc342;fill-opacity:1;" d="M 83.449219 237.074219 L 83.449219 212.582031 L 107.945312 212.582031 C 107.945312 214.601562 107.699219 216.570312 107.238281 218.449219 C 106.675781 220.71875 105.804688 222.867188 104.664062 224.839844 C 103.914062 226.132812 103.050781 227.347656 102.089844 228.476562 C 101.292969 229.40625 100.4375 230.269531 99.515625 231.074219 C 98.542969 231.917969 97.503906 232.691406 96.402344 233.375 C 95.574219 233.890625 94.71875 234.359375 93.828125 234.773438 C 92.828125 235.242188 91.789062 235.648438 90.71875 235.980469 C 89.878906 236.238281 89.019531 236.457031 88.144531 236.625 C 87.125 236.824219 86.089844 236.957031 85.03125 237.027344 C 84.511719 237.058594 83.980469 237.074219 83.449219 237.074219 Z M 83.449219 237.074219 "/><path style=" stroke:none;fill-rule:nonzero;fill:#004aad;fill-opacity:1;" d="M 57.621094 209.199219 L 61.277344 209.199219 L 61.277344 160.542969 L 57.621094 160.542969 Z M 57.621094 209.199219 "/><path style=" stroke:none;fill-rule:nonzero;fill:#004aad;fill-opacity:1;" d="M 65.695312 209.199219 L 69.351562 209.199219 L 69.351562 160.542969 L 65.695312 160.542969 Z M 65.695312 209.199219 "/><path style=" stroke:none;fill-rule:nonzero;fill:#004aad;fill-opacity:1;" d="M 73.769531 209.199219 L 77.425781 209.199219 L 77.425781 160.542969 L 73.769531 160.542969 Z M 73.769531 209.199219 "/><g clip-rule="nonzero" clip-path="url(#78c55e410a)"><path style=" stroke:none;fill-rule:nonzero;fill:#004aad;fill-opacity:1;" d="M 34.226562 209.921875 L 37.882812 209.921875 L 37.882812 161.269531 L 34.226562 161.269531 Z M 34.226562 209.921875 "/></g><path style=" stroke:none;fill-rule:nonzero;fill:#004aad;fill-opacity:1;" d="M 42.300781 209.921875 L 45.957031 209.921875 L 45.957031 161.269531 L 42.300781 161.269531 Z M 42.300781 209.921875 "/><path style=" stroke:none;fill-rule:nonzero;fill:#004aad;fill-opacity:1;" d="M 50.371094 209.921875 L 54.027344 209.921875 L 54.027344 161.269531 L 50.371094 161.269531 Z M 50.371094 209.921875 "/><path style=" stroke:none;fill-rule:nonzero;fill:#fff0b7;fill-opacity:1;" d="M 58.65625 221.183594 C 56.558594 221.183594 54.519531 221.597656 52.597656 222.40625 C 50.746094 223.1875 49.082031 224.308594 47.65625 225.738281 C 46.226562 227.167969 45.105469 228.835938 44.320312 230.6875 C 43.507812 232.605469 43.097656 234.640625 43.097656 236.742188 C 43.097656 238.84375 43.511719 240.878906 44.320312 242.796875 C 45.101562 244.652344 46.226562 246.3125 47.65625 247.742188 C 49.082031 249.171875 50.746094 250.292969 52.597656 251.078125 C 54.515625 251.890625 56.554688 252.296875 58.65625 252.296875 C 60.757812 252.296875 62.789062 251.886719 64.710938 251.078125 C 66.5625 250.292969 68.226562 249.171875 69.65625 247.742188 C 71.082031 246.3125 72.207031 244.652344 72.988281 242.796875 C 73.800781 240.882812 74.210938 238.84375 74.210938 236.742188 C 74.210938 234.640625 73.796875 232.609375 72.988281 230.6875 C 72.207031 228.835938 71.082031 227.171875 69.65625 225.742188 C 68.226562 224.3125 66.5625 223.191406 64.710938 222.410156 C 62.792969 221.597656 60.757812 221.183594 58.65625 221.183594 Z M 58.65625 251.164062 C 50.703125 251.164062 44.234375 244.695312 44.234375 236.742188 C 44.234375 228.789062 50.703125 222.320312 58.65625 222.320312 C 66.609375 222.320312 73.074219 228.789062 73.074219 236.742188 C 73.074219 244.695312 66.609375 251.164062 58.65625 251.164062 Z M 58.65625 251.164062 "/><path style=" stroke:none;fill-rule:nonzero;fill:#fff0b7;fill-opacity:1;" d="M 58.65625 217.503906 C 56.058594 217.503906 53.535156 218.011719 51.167969 219.015625 C 48.875 219.980469 46.820312 221.371094 45.050781 223.136719 C 43.28125 224.90625 41.898438 226.964844 40.925781 229.253906 C 39.925781 231.628906 39.414062 234.144531 39.414062 236.742188 C 39.414062 239.339844 39.925781 241.859375 40.925781 244.230469 C 41.894531 246.523438 43.28125 248.578125 45.050781 250.347656 C 46.816406 252.113281 48.875 253.5 51.167969 254.472656 C 53.539062 255.472656 56.058594 255.984375 58.65625 255.984375 C 61.25 255.984375 63.773438 255.472656 66.144531 254.472656 C 68.433594 253.503906 70.488281 252.117188 72.257812 250.347656 C 74.023438 248.582031 75.410156 246.523438 76.382812 244.230469 C 77.386719 241.855469 77.894531 239.339844 77.894531 236.742188 C 77.894531 234.144531 77.386719 231.625 76.382812 229.253906 C 75.414062 226.964844 74.027344 224.90625 72.257812 223.136719 C 70.488281 221.371094 68.433594 219.984375 66.144531 219.015625 C 63.773438 218.007812 61.25 217.503906 58.65625 217.503906 Z M 58.65625 254.847656 C 48.671875 254.847656 40.546875 246.722656 40.546875 236.738281 C 40.546875 226.757812 48.671875 218.632812 58.65625 218.632812 C 68.636719 218.632812 76.761719 226.757812 76.761719 236.738281 C 76.761719 246.722656 68.636719 254.847656 58.65625 254.847656 Z M 58.65625 254.847656 "/><path style=" stroke:none;fill-rule:nonzero;fill:#fff0b7;fill-opacity:1;" d="M 58.65625 214.097656 C 55.597656 214.097656 52.632812 214.695312 49.839844 215.875 C 47.144531 217.019531 44.722656 218.652344 42.640625 220.730469 C 40.5625 222.808594 38.929688 225.234375 37.789062 227.929688 C 36.609375 230.722656 36.007812 233.683594 36.007812 236.742188 C 36.007812 239.800781 36.605469 242.765625 37.789062 245.558594 C 38.929688 248.253906 40.5625 250.675781 42.640625 252.753906 C 44.722656 254.835938 47.144531 256.46875 49.839844 257.609375 C 52.632812 258.789062 55.597656 259.390625 58.65625 259.390625 C 61.710938 259.390625 64.675781 258.792969 67.46875 257.609375 C 70.164062 256.46875 72.589844 254.835938 74.667969 252.753906 C 76.746094 250.675781 78.378906 248.253906 79.519531 245.558594 C 80.699219 242.765625 81.300781 239.800781 81.300781 236.742188 C 81.300781 233.683594 80.703125 230.722656 79.519531 227.929688 C 78.378906 225.234375 76.746094 222.808594 74.667969 220.730469 C 72.589844 218.652344 70.164062 217.019531 67.46875 215.875 C 64.679688 214.695312 61.710938 214.097656 58.65625 214.097656 Z M 58.65625 258.25 C 46.792969 258.25 37.140625 248.601562 37.140625 236.738281 C 37.140625 224.878906 46.792969 215.226562 58.65625 215.226562 C 70.515625 215.226562 80.167969 224.882812 80.167969 236.742188 C 80.167969 248.605469 70.515625 258.25 58.65625 258.25 Z M 58.65625 258.25 "/><path style=" stroke:none;fill-rule:nonzero;fill:#fff0b7;fill-opacity:1;" d="M 58.65625 224.679688 C 55.433594 224.679688 52.402344 225.9375 50.125 228.214844 C 47.847656 230.496094 46.59375 233.523438 46.59375 236.742188 C 46.59375 239.964844 47.847656 242.996094 50.125 245.269531 C 52.40625 247.550781 55.433594 248.804688 58.65625 248.804688 C 61.875 248.804688 64.90625 247.550781 67.183594 245.269531 C 69.460938 242.992188 70.71875 239.964844 70.71875 236.742188 C 70.71875 233.523438 69.460938 230.492188 67.183594 228.214844 C 64.90625 225.9375 61.878906 224.679688 58.65625 224.679688 Z M 58.65625 247.667969 C 52.628906 247.667969 47.726562 242.765625 47.726562 236.738281 C 47.726562 230.714844 52.628906 225.8125 58.65625 225.8125 C 64.679688 225.8125 69.582031 230.71875 69.582031 236.742188 C 69.582031 242.769531 64.679688 247.667969 58.65625 247.667969 Z M 58.65625 247.667969 "/><path style=" stroke:none;fill-rule:nonzero;fill:#fff0b7;fill-opacity:1;" d="M 58.65625 228.863281 C 54.3125 228.863281 50.78125 232.398438 50.78125 236.738281 C 50.78125 241.078125 54.3125 244.617188 58.65625 244.617188 C 62.996094 244.617188 66.527344 241.082031 66.527344 236.742188 C 66.527344 232.402344 62.996094 228.863281 58.65625 228.863281 Z M 58.65625 243.484375 C 54.9375 243.484375 51.914062 240.457031 51.914062 236.742188 C 51.914062 233.027344 54.9375 230.003906 58.65625 230.003906 C 62.371094 230.003906 65.394531 233.027344 65.394531 236.742188 C 65.394531 240.457031 62.375 243.484375 58.65625 243.484375 Z M 58.65625 243.484375 "/><path style=" stroke:none;fill-rule:nonzero;fill:#fff0b7;fill-opacity:1;" d="M 58.65625 228.863281 C 54.3125 228.863281 50.78125 232.398438 50.78125 236.738281 C 50.78125 241.078125 54.3125 244.617188 58.65625 244.617188 C 62.996094 244.617188 66.527344 241.082031 66.527344 236.742188 C 66.527344 232.402344 62.996094 228.863281 58.65625 228.863281 Z M 58.65625 243.484375 C 54.9375 243.484375 51.914062 240.457031 51.914062 236.742188 C 51.914062 233.027344 54.9375 230.003906 58.65625 230.003906 C 62.371094 230.003906 65.394531 233.027344 65.394531 236.742188 C 65.394531 240.457031 62.375 243.484375 58.65625 243.484375 Z M 58.65625 243.484375 "/><path style=" stroke:none;fill-rule:nonzero;fill:#fff0b7;fill-opacity:1;" d="M 58.65625 232.519531 C 56.324219 232.519531 54.433594 234.414062 54.433594 236.742188 C 54.433594 239.070312 56.324219 240.964844 58.65625 240.964844 C 60.984375 240.964844 62.878906 239.070312 62.878906 236.742188 C 62.878906 234.414062 60.984375 232.519531 58.65625 232.519531 Z M 58.65625 239.828125 C 56.953125 239.828125 55.566406 238.445312 55.566406 236.738281 C 55.566406 235.035156 56.949219 233.652344 58.65625 233.652344 C 60.359375 233.652344 61.742188 235.035156 61.742188 236.738281 C 61.742188 238.445312 60.359375 239.828125 58.65625 239.828125 Z M 58.65625 239.828125 "/><path style=" stroke:none;fill-rule:nonzero;fill:#fff0b7;fill-opacity:1;" d="M 66.796875 185.597656 C 66.796875 184.832031 66.722656 184.074219 66.574219 183.324219 C 66.421875 182.574219 66.203125 181.84375 65.910156 181.136719 C 65.617188 180.429688 65.257812 179.761719 64.832031 179.125 C 64.40625 178.488281 63.925781 177.898438 63.382812 177.359375 C 62.84375 176.816406 62.253906 176.332031 61.617188 175.910156 C 60.980469 175.484375 60.308594 175.125 59.601562 174.832031 C 58.894531 174.539062 58.167969 174.316406 57.417969 174.167969 C 56.667969 174.019531 55.90625 173.945312 55.144531 173.945312 C 54.378906 173.945312 53.621094 174.019531 52.871094 174.167969 C 52.117188 174.316406 51.390625 174.539062 50.683594 174.832031 C 49.976562 175.125 49.304688 175.484375 48.667969 175.910156 C 48.03125 176.332031 47.445312 176.816406 46.902344 177.359375 C 46.359375 177.898438 45.878906 178.488281 45.453125 179.125 C 45.027344 179.761719 44.667969 180.429688 44.375 181.136719 C 44.082031 181.84375 43.863281 182.574219 43.710938 183.324219 C 43.5625 184.074219 43.488281 184.832031 43.488281 185.597656 C 43.488281 186.363281 43.5625 187.121094 43.710938 187.871094 C 43.863281 188.621094 44.082031 189.351562 44.375 190.058594 C 44.667969 190.765625 45.027344 191.4375 45.453125 192.074219 C 45.878906 192.710938 46.359375 193.296875 46.902344 193.839844 C 47.445312 194.378906 48.03125 194.863281 48.667969 195.289062 C 49.304688 195.714844 49.976562 196.074219 50.683594 196.363281 C 51.390625 196.65625 52.117188 196.878906 52.871094 197.027344 C 53.621094 197.175781 54.378906 197.253906 55.144531 197.253906 C 55.90625 197.253906 56.667969 197.175781 57.417969 197.027344 C 58.167969 196.878906 58.894531 196.65625 59.601562 196.363281 C 60.308594 196.074219 60.980469 195.714844 61.617188 195.289062 C 62.253906 194.863281 62.84375 194.378906 63.382812 193.839844 C 63.925781 193.296875 64.40625 192.710938 64.832031 192.074219 C 65.257812 191.4375 65.617188 190.765625 65.910156 190.058594 C 66.203125 189.351562 66.421875 188.621094 66.574219 187.871094 C 66.722656 187.121094 66.796875 186.363281 66.796875 185.597656 Z M 66.796875 185.597656 "/><g clip-rule="nonzero" clip-path="url(#0b15d1da21)"><path style=" stroke:none;fill-rule:nonzero;fill:#393536;fill-opacity:1;" d="M 155.234375 118.695312 L 190.257812 118.695312 L 190.257812 83.183594 L 155.234375 83.183594 Z M 155.234375 118.695312 "/></g><g clip-rule="nonzero" clip-path="url(#4433487125)"><path style=" stroke:none;fill-rule:nonzero;fill:#ffffff;fill-opacity:1;" d="M 213.855469 63.160156 C 222.25 65.941406 226.273438 71.855469 225.921875 80.914062 C 216.789062 80.914062 210.945312 76.660156 208.386719 68.148438 C 205.832031 76.65625 199.988281 80.914062 190.855469 80.914062 C 190.503906 71.855469 194.527344 65.941406 202.921875 63.160156 C 194.679688 60.351562 190.734375 54.457031 191.082031 45.484375 C 199.953125 45.484375 205.722656 49.5 208.386719 57.53125 C 211.050781 49.503906 216.816406 45.484375 225.6875 45.484375 C 226.046875 54.457031 222.097656 60.351562 213.855469 63.160156 Z M 213.855469 63.160156 "/></g><path style=" stroke:none;fill-rule:nonzero;fill:#393536;fill-opacity:1;" d="M 212.453125 101.402344 C 212.453125 101.125 212.425781 100.847656 212.371094 100.574219 C 212.316406 100.300781 212.234375 100.035156 212.128906 99.78125 C 212.023438 99.523438 211.890625 99.277344 211.738281 99.046875 C 211.582031 98.816406 211.40625 98.601562 211.210938 98.40625 C 211.015625 98.207031 210.800781 98.03125 210.570312 97.878906 C 210.335938 97.722656 210.09375 97.59375 209.835938 97.484375 C 209.578125 97.378906 209.3125 97.300781 209.039062 97.246094 C 208.769531 97.191406 208.492188 97.164062 208.214844 97.164062 C 207.9375 97.164062 207.660156 97.191406 207.386719 97.246094 C 207.113281 97.300781 206.847656 97.378906 206.59375 97.484375 C 206.335938 97.59375 206.089844 97.722656 205.859375 97.878906 C 205.628906 98.03125 205.414062 98.207031 205.21875 98.40625 C 205.019531 98.601562 204.84375 98.816406 204.691406 99.046875 C 204.535156 99.277344 204.40625 99.523438 204.296875 99.78125 C 204.191406 100.035156 204.113281 100.300781 204.058594 100.574219 C 204.003906 100.847656 203.976562 101.125 203.976562 101.402344 C 203.976562 101.679688 204.003906 101.957031 204.058594 102.226562 C 204.113281 102.5 204.191406 102.765625 204.296875 103.023438 C 204.40625 103.28125 204.535156 103.523438 204.691406 103.757812 C 204.84375 103.988281 205.019531 104.203125 205.21875 104.398438 C 205.414062 104.59375 205.628906 104.769531 205.859375 104.925781 C 206.089844 105.078125 206.335938 105.210938 206.59375 105.316406 C 206.847656 105.421875 207.113281 105.503906 207.386719 105.558594 C 207.660156 105.613281 207.9375 105.640625 208.214844 105.640625 C 208.492188 105.640625 208.769531 105.613281 209.039062 105.558594 C 209.3125 105.503906 209.578125 105.421875 209.835938 105.316406 C 210.09375 105.210938 210.335938 105.078125 210.570312 104.925781 C 210.800781 104.769531 211.015625 104.59375 211.210938 104.398438 C 211.40625 104.203125 211.582031 103.988281 211.738281 103.757812 C 211.890625 103.523438 212.023438 103.28125 212.128906 103.023438 C 212.234375 102.765625 212.316406 102.5 212.371094 102.226562 C 212.425781 101.957031 212.453125 101.679688 212.453125 101.402344 Z M 212.453125 101.402344 "/><g clip-rule="nonzero" clip-path="url(#4eef6e90b3)"><path style=" stroke:none;fill-rule:nonzero;fill:#ffffff;fill-opacity:1;" d="M 190.585938 100.941406 L 190.585938 118.570312 L 208.214844 118.570312 C 208.214844 117.113281 208.039062 115.699219 207.707031 114.34375 C 207.304688 112.710938 206.675781 111.167969 205.851562 109.746094 C 205.3125 108.816406 204.695312 107.941406 204 107.128906 C 203.429688 106.460938 202.8125 105.839844 202.148438 105.261719 C 201.449219 104.652344 200.699219 104.097656 199.910156 103.605469 C 199.3125 103.234375 198.695312 102.898438 198.058594 102.597656 C 197.335938 102.261719 196.585938 101.96875 195.816406 101.730469 C 195.214844 101.542969 194.597656 101.386719 193.964844 101.265625 C 193.234375 101.125 192.488281 101.027344 191.726562 100.976562 C 191.351562 100.953125 190.96875 100.941406 190.585938 100.941406 Z M 190.585938 100.941406 "/></g><g clip-rule="nonzero" clip-path="url(#f4b50cd1fc)"><path style=" stroke:none;fill-rule:nonzero;fill:#ffffff;fill-opacity:1;" d="M 226.019531 100.941406 L 226.019531 118.570312 L 208.390625 118.570312 C 208.390625 117.113281 208.566406 115.699219 208.898438 114.34375 C 209.300781 112.710938 209.929688 111.167969 210.753906 109.746094 C 211.289062 108.816406 211.910156 107.941406 212.605469 107.128906 C 213.175781 106.460938 213.792969 105.839844 214.457031 105.261719 C 215.15625 104.652344 215.902344 104.097656 216.695312 103.605469 C 217.292969 103.234375 217.910156 102.898438 218.546875 102.597656 C 219.269531 102.261719 220.015625 101.96875 220.785156 101.730469 C 221.390625 101.542969 222.007812 101.386719 222.640625 101.265625 C 223.371094 101.125 224.117188 101.027344 224.878906 100.976562 C 225.253906 100.953125 225.632812 100.941406 226.019531 100.941406 Z M 226.019531 100.941406 "/></g><g clip-rule="nonzero" clip-path="url(#fe13864038)"><path style=" stroke:none;fill-rule:nonzero;fill:#ffffff;fill-opacity:1;" d="M 226.019531 100.941406 L 226.019531 83.316406 L 208.390625 83.316406 C 208.390625 84.769531 208.566406 86.183594 208.898438 87.539062 C 209.300781 89.171875 209.929688 90.714844 210.753906 92.136719 C 211.289062 93.066406 211.910156 93.941406 212.605469 94.753906 C 213.175781 95.421875 213.792969 96.046875 214.457031 96.621094 C 215.15625 97.230469 215.902344 97.785156 216.695312 98.277344 C 217.292969 98.648438 217.910156 98.984375 218.546875 99.285156 C 219.269531 99.621094 220.015625 99.914062 220.785156 100.152344 C 221.390625 100.339844 222.007812 100.496094 222.640625 100.617188 C 223.371094 100.757812 224.117188 100.859375 224.878906 100.90625 C 225.253906 100.929688 225.632812 100.941406 226.019531 100.941406 Z M 226.019531 100.941406 "/></g><path style=" stroke:none;fill-rule:nonzero;fill:#ffffff;fill-opacity:1;" d="M 190.585938 100.941406 L 190.585938 83.316406 L 208.214844 83.316406 C 208.214844 84.769531 208.039062 86.183594 207.707031 87.539062 C 207.304688 89.171875 206.675781 90.714844 205.851562 92.136719 C 205.3125 93.066406 204.695312 93.941406 204 94.753906 C 203.429688 95.421875 202.8125 96.046875 202.148438 96.621094 C 201.449219 97.230469 200.699219 97.785156 199.910156 98.277344 C 199.3125 98.648438 198.695312 98.984375 198.058594 99.285156 C 197.335938 99.621094 196.585938 99.914062 195.816406 100.152344 C 195.214844 100.339844 194.597656 100.496094 193.964844 100.617188 C 193.234375 100.757812 192.488281 100.859375 191.726562 100.90625 C 191.351562 100.929688 190.96875 100.941406 190.585938 100.941406 Z M 190.585938 100.941406 "/><g clip-rule="nonzero" clip-path="url(#d2ca486782)"><path style=" stroke:none;fill-rule:nonzero;fill:#004aad;fill-opacity:1;" d="M 172.003906 80.878906 L 174.632812 80.878906 L 174.632812 45.867188 L 172.003906 45.867188 Z M 172.003906 80.878906 "/></g><g clip-rule="nonzero" clip-path="url(#edc88eda5d)"><path style=" stroke:none;fill-rule:nonzero;fill:#004aad;fill-opacity:1;" d="M 177.8125 80.878906 L 180.445312 80.878906 L 180.445312 45.867188 L 177.8125 45.867188 Z M 177.8125 80.878906 "/></g><g clip-rule="nonzero" clip-path="url(#17615095df)"><path style=" stroke:none;fill-rule:nonzero;fill:#004aad;fill-opacity:1;" d="M 183.625 80.878906 L 186.253906 80.878906 L 186.253906 45.867188 L 183.625 45.867188 Z M 183.625 80.878906 "/></g><g clip-rule="nonzero" clip-path="url(#edac75554b)"><path style=" stroke:none;fill-rule:nonzero;fill:#004aad;fill-opacity:1;" d="M 155.167969 81.402344 L 157.796875 81.402344 L 157.796875 46.390625 L 155.167969 46.390625 Z M 155.167969 81.402344 "/></g><path style=" stroke:none;fill-rule:nonzero;fill:#004aad;fill-opacity:1;" d="M 160.976562 81.402344 L 163.609375 81.402344 L 163.609375 46.390625 L 160.976562 46.390625 Z M 160.976562 81.402344 "/><path style=" stroke:none;fill-rule:nonzero;fill:#004aad;fill-opacity:1;" d="M 166.785156 81.402344 L 169.414062 81.402344 L 169.414062 46.390625 L 166.785156 46.390625 Z M 166.785156 81.402344 "/><path style=" stroke:none;fill-rule:nonzero;fill:#ffffff;fill-opacity:1;" d="M 172.746094 89.507812 C 171.234375 89.507812 169.769531 89.800781 168.386719 90.382812 C 167.054688 90.949219 165.859375 91.753906 164.828125 92.785156 C 163.800781 93.8125 162.996094 95.011719 162.429688 96.34375 C 161.84375 97.722656 161.550781 99.191406 161.550781 100.703125 C 161.550781 102.214844 161.847656 103.679688 162.429688 105.058594 C 162.992188 106.394531 163.800781 107.589844 164.828125 108.617188 C 165.859375 109.648438 167.054688 110.453125 168.386719 111.015625 C 169.765625 111.601562 171.234375 111.894531 172.746094 111.894531 C 174.257812 111.894531 175.722656 111.601562 177.101562 111.015625 C 178.4375 110.453125 179.632812 109.648438 180.660156 108.617188 C 181.6875 107.589844 182.496094 106.394531 183.058594 105.058594 C 183.644531 103.679688 183.9375 102.214844 183.9375 100.703125 C 183.9375 99.191406 183.640625 97.726562 183.058594 96.34375 C 182.496094 95.011719 181.6875 93.816406 180.660156 92.785156 C 179.632812 91.757812 178.4375 90.949219 177.101562 90.386719 C 175.722656 89.800781 174.257812 89.507812 172.746094 89.507812 Z M 172.746094 111.078125 C 167.023438 111.078125 162.367188 106.425781 162.367188 100.703125 C 162.367188 94.980469 167.023438 90.324219 172.746094 90.324219 C 178.46875 90.324219 183.121094 94.980469 183.121094 100.703125 C 183.121094 106.425781 178.46875 111.078125 172.746094 111.078125 Z M 172.746094 111.078125 "/><path style=" stroke:none;fill-rule:nonzero;fill:#ffffff;fill-opacity:1;" d="M 172.746094 86.855469 C 170.875 86.855469 169.0625 87.222656 167.355469 87.945312 C 165.707031 88.640625 164.226562 89.640625 162.957031 90.914062 C 161.683594 92.183594 160.6875 93.664062 159.988281 95.3125 C 159.265625 97.023438 158.898438 98.832031 158.898438 100.703125 C 158.898438 102.570312 159.265625 104.386719 159.988281 106.089844 C 160.683594 107.738281 161.683594 109.21875 162.957031 110.492188 C 164.226562 111.761719 165.707031 112.761719 167.355469 113.460938 C 169.066406 114.179688 170.875 114.546875 172.746094 114.546875 C 174.613281 114.546875 176.429688 114.179688 178.132812 113.460938 C 179.78125 112.765625 181.261719 111.765625 182.535156 110.492188 C 183.804688 109.222656 184.804688 107.738281 185.503906 106.089844 C 186.222656 104.382812 186.589844 102.570312 186.589844 100.703125 C 186.589844 98.832031 186.222656 97.019531 185.503906 95.3125 C 184.804688 93.664062 183.808594 92.183594 182.535156 90.914062 C 181.261719 89.640625 179.78125 88.644531 178.132812 87.945312 C 176.429688 87.222656 174.613281 86.855469 172.746094 86.855469 Z M 172.746094 113.730469 C 165.5625 113.730469 159.714844 107.882812 159.714844 100.699219 C 159.714844 93.515625 165.5625 87.667969 172.746094 87.667969 C 179.929688 87.667969 185.773438 93.515625 185.773438 100.699219 C 185.773438 107.882812 179.929688 113.730469 172.746094 113.730469 Z M 172.746094 113.730469 "/><path style=" stroke:none;fill-rule:nonzero;fill:#ffffff;fill-opacity:1;" d="M 172.746094 84.40625 C 170.542969 84.40625 168.410156 84.835938 166.402344 85.6875 C 164.460938 86.507812 162.71875 87.683594 161.222656 89.179688 C 159.726562 90.675781 158.550781 92.417969 157.730469 94.359375 C 156.878906 96.367188 156.449219 98.5 156.449219 100.703125 C 156.449219 102.902344 156.878906 105.035156 157.730469 107.046875 C 158.550781 108.984375 159.726562 110.730469 161.222656 112.226562 C 162.71875 113.722656 164.460938 114.898438 166.402344 115.71875 C 168.410156 116.566406 170.542969 117 172.746094 117 C 174.945312 117 177.078125 116.570312 179.089844 115.71875 C 181.027344 114.898438 182.773438 113.722656 184.269531 112.226562 C 185.765625 110.730469 186.9375 108.984375 187.761719 107.046875 C 188.609375 105.035156 189.042969 102.902344 189.042969 100.703125 C 189.042969 98.5 188.613281 96.367188 187.761719 94.359375 C 186.9375 92.417969 185.765625 90.675781 184.269531 89.179688 C 182.773438 87.683594 181.027344 86.507812 179.089844 85.6875 C 177.082031 84.835938 174.945312 84.40625 172.746094 84.40625 Z M 172.746094 116.179688 C 164.210938 116.179688 157.265625 109.234375 157.265625 100.699219 C 157.265625 92.164062 164.210938 85.21875 172.746094 85.21875 C 181.28125 85.21875 188.226562 92.167969 188.226562 100.703125 C 188.226562 109.238281 181.28125 116.179688 172.746094 116.179688 Z M 172.746094 116.179688 "/><path style=" stroke:none;fill-rule:nonzero;fill:#ffffff;fill-opacity:1;" d="M 172.746094 92.023438 C 170.425781 92.023438 168.246094 92.925781 166.609375 94.566406 C 164.96875 96.207031 164.066406 98.386719 164.066406 100.703125 C 164.066406 103.019531 164.96875 105.203125 166.609375 106.839844 C 168.25 108.480469 170.425781 109.382812 172.746094 109.382812 C 175.0625 109.382812 177.246094 108.480469 178.882812 106.839844 C 180.523438 105.199219 181.425781 103.019531 181.425781 100.703125 C 181.425781 98.386719 180.523438 96.203125 178.882812 94.566406 C 177.246094 92.925781 175.066406 92.023438 172.746094 92.023438 Z M 172.746094 108.5625 C 168.410156 108.5625 164.882812 105.035156 164.882812 100.699219 C 164.882812 96.363281 168.410156 92.835938 172.746094 92.835938 C 177.082031 92.835938 180.609375 96.367188 180.609375 100.703125 C 180.609375 105.039062 177.082031 108.5625 172.746094 108.5625 Z M 172.746094 108.5625 "/><path style=" stroke:none;fill-rule:nonzero;fill:#ffffff;fill-opacity:1;" d="M 172.746094 95.035156 C 169.621094 95.035156 167.078125 97.578125 167.078125 100.699219 C 167.078125 103.824219 169.621094 106.367188 172.746094 106.367188 C 175.871094 106.367188 178.410156 103.824219 178.410156 100.703125 C 178.410156 97.578125 175.871094 95.035156 172.746094 95.035156 Z M 172.746094 105.550781 C 170.070312 105.550781 167.894531 103.375 167.894531 100.703125 C 167.894531 98.027344 170.070312 95.851562 172.746094 95.851562 C 175.417969 95.851562 177.59375 98.027344 177.59375 100.703125 C 177.59375 103.375 175.421875 105.550781 172.746094 105.550781 Z M 172.746094 105.550781 "/><path style=" stroke:none;fill-rule:nonzero;fill:#ffffff;fill-opacity:1;" d="M 172.746094 95.035156 C 169.621094 95.035156 167.078125 97.578125 167.078125 100.699219 C 167.078125 103.824219 169.621094 106.367188 172.746094 106.367188 C 175.871094 106.367188 178.410156 103.824219 178.410156 100.703125 C 178.410156 97.578125 175.871094 95.035156 172.746094 95.035156 Z M 172.746094 105.550781 C 170.070312 105.550781 167.894531 103.375 167.894531 100.703125 C 167.894531 98.027344 170.070312 95.851562 172.746094 95.851562 C 175.417969 95.851562 177.59375 98.027344 177.59375 100.703125 C 177.59375 103.375 175.421875 105.550781 172.746094 105.550781 Z M 172.746094 105.550781 "/><path style=" stroke:none;fill-rule:nonzero;fill:#ffffff;fill-opacity:1;" d="M 172.746094 97.664062 C 171.070312 97.664062 169.707031 99.027344 169.707031 100.703125 C 169.707031 102.378906 171.070312 103.742188 172.746094 103.742188 C 174.421875 103.742188 175.785156 102.378906 175.785156 100.703125 C 175.785156 99.027344 174.421875 97.664062 172.746094 97.664062 Z M 172.746094 102.921875 C 171.519531 102.921875 170.523438 101.925781 170.523438 100.699219 C 170.523438 99.472656 171.519531 98.476562 172.746094 98.476562 C 173.972656 98.476562 174.96875 99.472656 174.96875 100.699219 C 174.96875 101.925781 173.972656 102.921875 172.746094 102.921875 Z M 172.746094 102.921875 "/><path style=" stroke:none;fill-rule:nonzero;fill:#393536;fill-opacity:1;" d="M 178.605469 63.898438 C 178.605469 63.347656 178.550781 62.800781 178.441406 62.261719 C 178.335938 61.722656 178.175781 61.195312 177.964844 60.6875 C 177.753906 60.179688 177.496094 59.695312 177.191406 59.238281 C 176.886719 58.78125 176.539062 58.355469 176.148438 57.96875 C 175.757812 57.578125 175.335938 57.230469 174.878906 56.925781 C 174.417969 56.617188 173.9375 56.359375 173.425781 56.148438 C 172.917969 55.9375 172.394531 55.78125 171.855469 55.671875 C 171.3125 55.566406 170.769531 55.511719 170.21875 55.511719 C 169.667969 55.511719 169.121094 55.566406 168.582031 55.671875 C 168.042969 55.78125 167.515625 55.9375 167.007812 56.148438 C 166.5 56.359375 166.015625 56.617188 165.558594 56.925781 C 165.101562 57.230469 164.675781 57.578125 164.289062 57.96875 C 163.898438 58.355469 163.550781 58.78125 163.246094 59.238281 C 162.9375 59.695312 162.679688 60.179688 162.46875 60.6875 C 162.257812 61.195312 162.101562 61.722656 161.992188 62.261719 C 161.886719 62.800781 161.832031 63.347656 161.832031 63.898438 C 161.832031 64.449219 161.886719 64.992188 161.992188 65.535156 C 162.101562 66.074219 162.257812 66.597656 162.46875 67.105469 C 162.679688 67.617188 162.9375 68.097656 163.246094 68.558594 C 163.550781 69.015625 163.898438 69.4375 164.289062 69.828125 C 164.675781 70.21875 165.101562 70.566406 165.558594 70.871094 C 166.015625 71.175781 166.5 71.433594 167.007812 71.644531 C 167.515625 71.855469 168.042969 72.015625 168.582031 72.125 C 169.121094 72.230469 169.667969 72.285156 170.21875 72.285156 C 170.769531 72.285156 171.3125 72.230469 171.855469 72.125 C 172.394531 72.015625 172.917969 71.855469 173.425781 71.644531 C 173.9375 71.433594 174.417969 71.175781 174.878906 70.871094 C 175.335938 70.566406 175.757812 70.21875 176.148438 69.828125 C 176.539062 69.4375 176.886719 69.015625 177.191406 68.558594 C 177.496094 68.097656 177.753906 67.617188 177.964844 67.105469 C 178.175781 66.597656 178.335938 66.074219 178.441406 65.535156 C 178.550781 64.992188 178.605469 64.449219 178.605469 63.898438 Z M 178.605469 63.898438 "/><g clip-rule="nonzero" clip-path="url(#69f5da9f12)"><path style=" stroke:none;fill-rule:nonzero;fill:#fdeeb6;fill-opacity:1;" d="M 226.621094 118.695312 L 261.640625 118.695312 L 261.640625 83.183594 L 226.621094 83.183594 Z M 226.621094 118.695312 "/></g><g clip-rule="nonzero" clip-path="url(#1eb6c309ef)"><path style=" stroke:none;fill-rule:nonzero;fill:#902b29;fill-opacity:1;" d="M 285.238281 63.160156 C 293.632812 65.941406 297.65625 71.855469 297.304688 80.914062 C 288.171875 80.914062 282.328125 76.660156 279.773438 68.148438 C 277.214844 76.65625 271.371094 80.914062 262.242188 80.914062 C 261.886719 71.855469 265.910156 65.941406 274.304688 63.160156 C 266.0625 60.351562 262.117188 54.457031 262.464844 45.484375 C 271.335938 45.484375 277.105469 49.5 279.769531 57.53125 C 282.4375 49.503906 288.203125 45.484375 297.074219 45.484375 C 297.429688 54.457031 293.480469 60.351562 285.238281 63.160156 Z M 285.238281 63.160156 "/></g><path style=" stroke:none;fill-rule:nonzero;fill:#fdeeb6;fill-opacity:1;" d="M 283.835938 101.402344 C 283.835938 101.125 283.808594 100.847656 283.753906 100.574219 C 283.699219 100.300781 283.621094 100.035156 283.515625 99.78125 C 283.40625 99.523438 283.277344 99.277344 283.121094 99.046875 C 282.96875 98.816406 282.792969 98.601562 282.59375 98.40625 C 282.398438 98.207031 282.183594 98.03125 281.953125 97.878906 C 281.722656 97.722656 281.476562 97.59375 281.21875 97.484375 C 280.964844 97.378906 280.699219 97.300781 280.425781 97.246094 C 280.152344 97.191406 279.875 97.164062 279.597656 97.164062 C 279.320312 97.164062 279.042969 97.191406 278.773438 97.246094 C 278.5 97.300781 278.234375 97.378906 277.976562 97.484375 C 277.71875 97.59375 277.476562 97.722656 277.242188 97.878906 C 277.011719 98.03125 276.796875 98.207031 276.601562 98.40625 C 276.40625 98.601562 276.230469 98.816406 276.074219 99.046875 C 275.921875 99.277344 275.789062 99.523438 275.683594 99.78125 C 275.578125 100.035156 275.496094 100.300781 275.441406 100.574219 C 275.386719 100.847656 275.359375 101.125 275.359375 101.402344 C 275.359375 101.679688 275.386719 101.957031 275.441406 102.226562 C 275.496094 102.5 275.578125 102.765625 275.683594 103.023438 C 275.789062 103.28125 275.921875 103.523438 276.074219 103.757812 C 276.230469 103.988281 276.40625 104.203125 276.601562 104.398438 C 276.796875 104.59375 277.011719 104.769531 277.242188 104.925781 C 277.476562 105.078125 277.71875 105.210938 277.976562 105.316406 C 278.234375 105.421875 278.5 105.503906 278.773438 105.558594 C 279.042969 105.613281 279.320312 105.640625 279.597656 105.640625 C 279.875 105.640625 280.152344 105.613281 280.425781 105.558594 C 280.699219 105.503906 280.964844 105.421875 281.21875 105.316406 C 281.476562 105.210938 281.722656 105.078125 281.953125 104.925781 C 282.183594 104.769531 282.398438 104.59375 282.59375 104.398438 C 282.792969 104.203125 282.96875 103.988281 283.121094 103.757812 C 283.277344 103.523438 283.40625 103.28125 283.515625 103.023438 C 283.621094 102.765625 283.699219 102.5 283.753906 102.226562 C 283.808594 101.957031 283.835938 101.679688 283.835938 101.402344 Z M 283.835938 101.402344 "/><g clip-rule="nonzero" clip-path="url(#c332912da7)"><path style=" stroke:none;fill-rule:nonzero;fill:#8cc342;fill-opacity:1;" d="M 261.972656 100.941406 L 261.972656 118.570312 L 279.597656 118.570312 C 279.597656 117.113281 279.421875 115.699219 279.089844 114.34375 C 278.6875 112.710938 278.058594 111.167969 277.238281 109.746094 C 276.699219 108.816406 276.078125 107.941406 275.386719 107.128906 C 274.8125 106.460938 274.195312 105.839844 273.53125 105.261719 C 272.832031 104.652344 272.085938 104.097656 271.292969 103.605469 C 270.699219 103.234375 270.082031 102.898438 269.441406 102.597656 C 268.71875 102.261719 267.972656 101.96875 267.203125 101.730469 C 266.597656 101.542969 265.980469 101.386719 265.351562 101.265625 C 264.617188 101.125 263.871094 101.027344 263.109375 100.976562 C 262.734375 100.953125 262.355469 100.941406 261.972656 100.941406 Z M 261.972656 100.941406 "/></g><g clip-rule="nonzero" clip-path="url(#365647b42f)"><path style=" stroke:none;fill-rule:nonzero;fill:#8cc342;fill-opacity:1;" d="M 297.402344 100.941406 L 297.402344 118.570312 L 279.773438 118.570312 C 279.773438 117.113281 279.953125 115.699219 280.285156 114.34375 C 280.6875 112.710938 281.316406 111.167969 282.136719 109.746094 C 282.675781 108.816406 283.296875 107.941406 283.988281 107.128906 C 284.558594 106.460938 285.175781 105.839844 285.839844 105.261719 C 286.539062 104.652344 287.289062 104.097656 288.078125 103.605469 C 288.675781 103.234375 289.292969 102.898438 289.933594 102.597656 C 290.652344 102.261719 291.402344 101.96875 292.171875 101.730469 C 292.773438 101.542969 293.394531 101.386719 294.023438 101.265625 C 294.753906 101.125 295.5 101.027344 296.261719 100.976562 C 296.636719 100.953125 297.019531 100.941406 297.402344 100.941406 Z M 297.402344 100.941406 "/></g><g clip-rule="nonzero" clip-path="url(#524316506f)"><path style=" stroke:none;fill-rule:nonzero;fill:#8cc342;fill-opacity:1;" d="M 297.402344 100.941406 L 297.402344 83.316406 L 279.773438 83.316406 C 279.773438 84.769531 279.953125 86.183594 280.285156 87.539062 C 280.6875 89.171875 281.316406 90.714844 282.136719 92.136719 C 282.675781 93.066406 283.296875 93.941406 283.988281 94.753906 C 284.558594 95.421875 285.175781 96.046875 285.839844 96.621094 C 286.539062 97.230469 287.289062 97.785156 288.078125 98.277344 C 288.675781 98.648438 289.292969 98.984375 289.933594 99.285156 C 290.652344 99.621094 291.402344 99.914062 292.171875 100.152344 C 292.773438 100.339844 293.394531 100.496094 294.023438 100.617188 C 294.753906 100.757812 295.5 100.859375 296.261719 100.90625 C 296.636719 100.929688 297.019531 100.941406 297.402344 100.941406 Z M 297.402344 100.941406 "/></g><path style=" stroke:none;fill-rule:nonzero;fill:#8cc342;fill-opacity:1;" d="M 261.972656 100.941406 L 261.972656 83.316406 L 279.597656 83.316406 C 279.597656 84.769531 279.421875 86.183594 279.089844 87.539062 C 278.6875 89.171875 278.058594 90.714844 277.238281 92.136719 C 276.699219 93.066406 276.078125 93.941406 275.386719 94.753906 C 274.8125 95.421875 274.195312 96.046875 273.53125 96.621094 C 272.832031 97.230469 272.085938 97.785156 271.292969 98.277344 C 270.699219 98.648438 270.082031 98.984375 269.441406 99.285156 C 268.71875 99.621094 267.972656 99.914062 267.203125 100.152344 C 266.597656 100.339844 265.980469 100.496094 265.351562 100.617188 C 264.617188 100.757812 263.871094 100.859375 263.109375 100.90625 C 262.734375 100.929688 262.355469 100.941406 261.972656 100.941406 Z M 261.972656 100.941406 "/><g clip-rule="nonzero" clip-path="url(#cb443b67fd)"><path style=" stroke:none;fill-rule:nonzero;fill:#004aad;fill-opacity:1;" d="M 243.386719 80.878906 L 246.015625 80.878906 L 246.015625 45.867188 L 243.386719 45.867188 Z M 243.386719 80.878906 "/></g><g clip-rule="nonzero" clip-path="url(#61b552ce32)"><path style=" stroke:none;fill-rule:nonzero;fill:#004aad;fill-opacity:1;" d="M 249.195312 80.878906 L 251.828125 80.878906 L 251.828125 45.867188 L 249.195312 45.867188 Z M 249.195312 80.878906 "/></g><g clip-rule="nonzero" clip-path="url(#d93fb66f49)"><path style=" stroke:none;fill-rule:nonzero;fill:#004aad;fill-opacity:1;" d="M 255.007812 80.878906 L 257.636719 80.878906 L 257.636719 45.867188 L 255.007812 45.867188 Z M 255.007812 80.878906 "/></g><g clip-rule="nonzero" clip-path="url(#76faa6855f)"><path style=" stroke:none;fill-rule:nonzero;fill:#004aad;fill-opacity:1;" d="M 226.550781 81.402344 L 229.183594 81.402344 L 229.183594 46.390625 L 226.550781 46.390625 Z M 226.550781 81.402344 "/></g><path style=" stroke:none;fill-rule:nonzero;fill:#004aad;fill-opacity:1;" d="M 232.363281 81.402344 L 234.992188 81.402344 L 234.992188 46.390625 L 232.363281 46.390625 Z M 232.363281 81.402344 "/><path style=" stroke:none;fill-rule:nonzero;fill:#004aad;fill-opacity:1;" d="M 238.167969 81.402344 L 240.800781 81.402344 L 240.800781 46.390625 L 238.167969 46.390625 Z M 238.167969 81.402344 "/><path style=" stroke:none;fill-rule:nonzero;fill:#902b29;fill-opacity:1;" d="M 244.128906 89.507812 C 242.621094 89.507812 241.152344 89.800781 239.773438 90.382812 C 238.4375 90.949219 237.242188 91.753906 236.214844 92.785156 C 235.183594 93.8125 234.378906 95.011719 233.8125 96.34375 C 233.230469 97.722656 232.9375 99.191406 232.9375 100.703125 C 232.9375 102.214844 233.230469 103.679688 233.8125 105.058594 C 234.378906 106.394531 235.183594 107.589844 236.214844 108.617188 C 237.242188 109.648438 238.4375 110.453125 239.773438 111.015625 C 241.152344 111.601562 242.617188 111.894531 244.128906 111.894531 C 245.640625 111.894531 247.105469 111.601562 248.488281 111.015625 C 249.820312 110.453125 251.015625 109.648438 252.046875 108.617188 C 253.074219 107.589844 253.882812 106.394531 254.445312 105.058594 C 255.03125 103.679688 255.324219 102.214844 255.324219 100.703125 C 255.324219 99.191406 255.027344 97.726562 254.445312 96.34375 C 253.882812 95.011719 253.074219 93.816406 252.046875 92.785156 C 251.015625 91.757812 249.820312 90.949219 248.488281 90.386719 C 247.109375 89.800781 245.640625 89.507812 244.128906 89.507812 Z M 244.128906 111.078125 C 238.40625 111.078125 233.75 106.425781 233.75 100.703125 C 233.75 94.980469 238.40625 90.324219 244.128906 90.324219 C 249.851562 90.324219 254.507812 94.980469 254.507812 100.703125 C 254.507812 106.425781 249.851562 111.078125 244.128906 111.078125 Z M 244.128906 111.078125 "/><path style=" stroke:none;fill-rule:nonzero;fill:#902b29;fill-opacity:1;" d="M 244.128906 86.855469 C 242.261719 86.855469 240.445312 87.222656 238.742188 87.945312 C 237.09375 88.640625 235.613281 89.640625 234.339844 90.914062 C 233.066406 92.183594 232.070312 93.664062 231.371094 95.3125 C 230.652344 97.023438 230.285156 98.832031 230.285156 100.703125 C 230.285156 102.570312 230.652344 104.386719 231.371094 106.089844 C 232.066406 107.738281 233.066406 109.21875 234.339844 110.492188 C 235.609375 111.761719 237.09375 112.761719 238.742188 113.460938 C 240.449219 114.179688 242.261719 114.546875 244.128906 114.546875 C 246 114.546875 247.8125 114.179688 249.519531 113.460938 C 251.167969 112.765625 252.644531 111.765625 253.917969 110.492188 C 255.191406 109.222656 256.1875 107.738281 256.886719 106.089844 C 257.609375 104.382812 257.976562 102.570312 257.976562 100.703125 C 257.976562 98.832031 257.609375 97.019531 256.886719 95.3125 C 256.191406 93.664062 255.191406 92.183594 253.917969 90.914062 C 252.644531 89.640625 251.167969 88.644531 249.519531 87.945312 C 247.8125 87.222656 246 86.855469 244.128906 86.855469 Z M 244.128906 113.730469 C 236.945312 113.730469 231.101562 107.882812 231.101562 100.699219 C 231.101562 93.515625 236.945312 87.667969 244.128906 87.667969 C 251.3125 87.667969 257.160156 93.515625 257.160156 100.699219 C 257.160156 107.882812 251.3125 113.730469 244.128906 113.730469 Z M 244.128906 113.730469 "/><path style=" stroke:none;fill-rule:nonzero;fill:#902b29;fill-opacity:1;" d="M 244.128906 84.40625 C 241.929688 84.40625 239.796875 84.835938 237.785156 85.6875 C 235.847656 86.507812 234.101562 87.683594 232.605469 89.179688 C 231.109375 90.675781 229.933594 92.417969 229.113281 94.359375 C 228.265625 96.367188 227.832031 98.5 227.832031 100.703125 C 227.832031 102.902344 228.261719 105.035156 229.113281 107.046875 C 229.933594 108.984375 231.109375 110.730469 232.605469 112.226562 C 234.101562 113.722656 235.847656 114.898438 237.785156 115.71875 C 239.796875 116.566406 241.929688 117 244.128906 117 C 246.332031 117 248.460938 116.570312 250.472656 115.71875 C 252.414062 114.898438 254.15625 113.722656 255.652344 112.226562 C 257.148438 110.730469 258.324219 108.984375 259.144531 107.046875 C 259.992188 105.035156 260.425781 102.902344 260.425781 100.703125 C 260.425781 98.5 259.996094 96.367188 259.144531 94.359375 C 258.324219 92.417969 257.148438 90.675781 255.652344 89.179688 C 254.15625 87.683594 252.414062 86.507812 250.472656 85.6875 C 248.464844 84.835938 246.332031 84.40625 244.128906 84.40625 Z M 244.128906 116.179688 C 235.59375 116.179688 228.648438 109.234375 228.648438 100.699219 C 228.648438 92.164062 235.59375 85.21875 244.128906 85.21875 C 252.664062 85.21875 259.609375 92.167969 259.609375 100.703125 C 259.609375 109.238281 252.664062 116.179688 244.128906 116.179688 Z M 244.128906 116.179688 "/><path style=" stroke:none;fill-rule:nonzero;fill:#902b29;fill-opacity:1;" d="M 244.128906 92.023438 C 241.8125 92.023438 239.628906 92.925781 237.992188 94.566406 C 236.351562 96.207031 235.449219 98.386719 235.449219 100.703125 C 235.449219 103.019531 236.351562 105.203125 237.992188 106.839844 C 239.632812 108.480469 241.8125 109.382812 244.128906 109.382812 C 246.445312 109.382812 248.628906 108.480469 250.265625 106.839844 C 251.90625 105.199219 252.808594 103.019531 252.808594 100.703125 C 252.808594 98.386719 251.90625 96.203125 250.265625 94.566406 C 248.628906 92.925781 246.449219 92.023438 244.128906 92.023438 Z M 244.128906 108.5625 C 239.792969 108.5625 236.265625 105.035156 236.265625 100.699219 C 236.265625 96.363281 239.792969 92.835938 244.128906 92.835938 C 248.464844 92.835938 251.992188 96.367188 251.992188 100.703125 C 251.992188 105.039062 248.464844 108.5625 244.128906 108.5625 Z M 244.128906 108.5625 "/><path style=" stroke:none;fill-rule:nonzero;fill:#902b29;fill-opacity:1;" d="M 244.128906 95.035156 C 241.003906 95.035156 238.464844 97.578125 238.464844 100.699219 C 238.464844 103.824219 241.003906 106.367188 244.128906 106.367188 C 247.253906 106.367188 249.796875 103.824219 249.796875 100.703125 C 249.796875 97.578125 247.253906 95.035156 244.128906 95.035156 Z M 244.128906 105.550781 C 241.457031 105.550781 239.28125 103.375 239.28125 100.703125 C 239.28125 98.027344 241.457031 95.851562 244.128906 95.851562 C 246.804688 95.851562 248.980469 98.027344 248.980469 100.703125 C 248.980469 103.375 246.804688 105.550781 244.128906 105.550781 Z M 244.128906 105.550781 "/><path style=" stroke:none;fill-rule:nonzero;fill:#902b29;fill-opacity:1;" d="M 244.128906 95.035156 C 241.003906 95.035156 238.464844 97.578125 238.464844 100.699219 C 238.464844 103.824219 241.003906 106.367188 244.128906 106.367188 C 247.253906 106.367188 249.796875 103.824219 249.796875 100.703125 C 249.796875 97.578125 247.253906 95.035156 244.128906 95.035156 Z M 244.128906 105.550781 C 241.457031 105.550781 239.28125 103.375 239.28125 100.703125 C 239.28125 98.027344 241.457031 95.851562 244.128906 95.851562 C 246.804688 95.851562 248.980469 98.027344 248.980469 100.703125 C 248.980469 103.375 246.804688 105.550781 244.128906 105.550781 Z M 244.128906 105.550781 "/><path style=" stroke:none;fill-rule:nonzero;fill:#902b29;fill-opacity:1;" d="M 244.128906 97.664062 C 242.453125 97.664062 241.089844 99.027344 241.089844 100.703125 C 241.089844 102.378906 242.453125 103.742188 244.128906 103.742188 C 245.804688 103.742188 247.167969 102.378906 247.167969 100.703125 C 247.167969 99.027344 245.804688 97.664062 244.128906 97.664062 Z M 244.128906 102.921875 C 242.90625 102.921875 241.90625 101.925781 241.90625 100.699219 C 241.90625 99.472656 242.902344 98.476562 244.128906 98.476562 C 245.355469 98.476562 246.351562 99.472656 246.351562 100.699219 C 246.351562 101.925781 245.355469 102.921875 244.128906 102.921875 Z M 244.128906 102.921875 "/><path style=" stroke:none;fill-rule:nonzero;fill:#fdeeb6;fill-opacity:1;" d="M 249.988281 63.898438 C 249.988281 63.347656 249.933594 62.800781 249.828125 62.261719 C 249.71875 61.722656 249.5625 61.195312 249.351562 60.6875 C 249.140625 60.179688 248.882812 59.695312 248.574219 59.238281 C 248.269531 58.78125 247.921875 58.355469 247.53125 57.96875 C 247.144531 57.578125 246.71875 57.230469 246.261719 56.925781 C 245.804688 56.617188 245.320312 56.359375 244.8125 56.148438 C 244.304688 55.9375 243.777344 55.78125 243.238281 55.671875 C 242.699219 55.566406 242.152344 55.511719 241.601562 55.511719 C 241.050781 55.511719 240.507812 55.566406 239.964844 55.671875 C 239.425781 55.78125 238.902344 55.9375 238.394531 56.148438 C 237.882812 56.359375 237.402344 56.617188 236.941406 56.925781 C 236.484375 57.230469 236.0625 57.578125 235.671875 57.96875 C 235.28125 58.355469 234.933594 58.78125 234.628906 59.238281 C 234.324219 59.695312 234.066406 60.179688 233.855469 60.6875 C 233.644531 61.195312 233.484375 61.722656 233.378906 62.261719 C 233.269531 62.800781 233.214844 63.347656 233.214844 63.898438 C 233.214844 64.449219 233.269531 64.992188 233.378906 65.535156 C 233.484375 66.074219 233.644531 66.597656 233.855469 67.105469 C 234.066406 67.617188 234.324219 68.097656 234.628906 68.558594 C 234.933594 69.015625 235.28125 69.4375 235.671875 69.828125 C 236.0625 70.21875 236.484375 70.566406 236.941406 70.871094 C 237.402344 71.175781 237.882812 71.433594 238.394531 71.644531 C 238.902344 71.855469 239.425781 72.015625 239.964844 72.125 C 240.507812 72.230469 241.050781 72.285156 241.601562 72.285156 C 242.152344 72.285156 242.699219 72.230469 243.238281 72.125 C 243.777344 72.015625 244.304688 71.855469 244.8125 71.644531 C 245.320312 71.433594 245.804688 71.175781 246.261719 70.871094 C 246.71875 70.566406 247.144531 70.21875 247.53125 69.828125 C 247.921875 69.4375 248.269531 69.015625 248.574219 68.558594 C 248.882812 68.097656 249.140625 67.617188 249.351562 67.105469 C 249.5625 66.597656 249.71875 66.074219 249.828125 65.535156 C 249.933594 64.992188 249.988281 64.449219 249.988281 63.898438 Z M 249.988281 63.898438 "/></g></svg>