<svg xmlns="http://www.w3.org/2000/svg" xmlns:xlink="http://www.w3.org/1999/xlink" width="301" zoomAndPan="magnify" viewBox="0 0 225.75 169.5" height="226" preserveAspectRatio="xMidYMid meet" version="1.2"><defs><clipPath id="653da8cde8"><path d="M 0.207031 112 L 57 112 L 57 168.253906 L 0.207031 168.253906 Z M 0.207031 112 "/></clipPath><clipPath id="c25c4ce8e5"><path d="M 56 112 L 113 112 L 113 168.253906 L 56 168.253906 Z M 56 112 "/></clipPath><clipPath id="5d24c1851f"><path d="M 112 112 L 169 112 L 169 168.253906 L 112 168.253906 Z M 112 112 "/></clipPath><clipPath id="0e8be02c13"><path d="M 168 112 L 224.546875 112 L 224.546875 168.253906 L 168 168.253906 Z M 168 112 "/></clipPath><clipPath id="2cb8f9e5ac"><path d="M 0.207031 112 L 29 112 L 29 141 L 0.207031 141 Z M 0.207031 112 "/></clipPath><clipPath id="3d88b7c6c7"><path d="M 0.207031 140 L 29 140 L 29 168.253906 L 0.207031 168.253906 Z M 0.207031 140 "/></clipPath><clipPath id="8c6614f24f"><path d="M 28 140 L 57 140 L 57 168.253906 L 28 168.253906 Z M 28 140 "/></clipPath><clipPath id="b1edb4cb44"><path d="M 0.207031 56 L 57 56 L 57 113 L 0.207031 113 Z M 0.207031 56 "/></clipPath><clipPath id="632f026a84"><path d="M 0.207031 0 L 57 0 L 57 57 L 0.207031 57 Z M 0.207031 0 "/></clipPath></defs><g id="a69d4030d0"><g clip-rule="nonzero" clip-path="url(#653da8cde8)"><path style=" stroke:none;fill-rule:evenodd;fill:#8cc342;fill-opacity:1;" d="M 0.203125 112.160156 L 56.289062 112.160156 L 56.289062 168.242188 L 0.203125 168.242188 Z M 0.203125 112.160156 "/></g><g clip-rule="nonzero" clip-path="url(#c25c4ce8e5)"><path style=" stroke:none;fill-rule:evenodd;fill:#fff0b7;fill-opacity:1;" d="M 56.289062 112.160156 L 112.363281 112.160156 L 112.363281 168.242188 C 81.402344 168.242188 56.289062 143.132812 56.289062 112.160156 Z M 56.289062 112.160156 "/></g><path style=" stroke:none;fill-rule:evenodd;fill:#8cc342;fill-opacity:1;" d="M 112.363281 112.160156 L 56.289062 112.160156 L 56.289062 56.085938 C 87.261719 56.085938 112.363281 81.1875 112.363281 112.160156 Z M 112.363281 112.160156 "/><g clip-rule="nonzero" clip-path="url(#5d24c1851f)"><path style=" stroke:none;fill-rule:evenodd;fill:#393536;fill-opacity:1;" d="M 112.363281 168.242188 L 168.445312 168.242188 L 168.445312 112.160156 C 137.472656 112.160156 112.363281 137.269531 112.363281 168.242188 Z M 112.363281 168.242188 "/></g><path style=" stroke:none;fill-rule:evenodd;fill:#eff0ee;fill-opacity:1;" d="M 168.445312 112.160156 L 112.363281 112.160156 L 112.363281 56.085938 C 143.335938 56.085938 168.445312 81.1875 168.445312 112.160156 Z M 168.445312 112.160156 "/><g clip-rule="nonzero" clip-path="url(#0e8be02c13)"><path style=" stroke:none;fill-rule:evenodd;fill:#8cc342;fill-opacity:1;" d="M 224.53125 112.160156 C 224.53125 143.132812 199.421875 168.242188 168.445312 168.242188 L 168.445312 145.113281 C 186.640625 145.113281 201.402344 130.367188 201.402344 112.160156 Z M 224.53125 112.160156 "/></g><path style=" stroke:none;fill-rule:evenodd;fill:#fff0b7;fill-opacity:1;" d="M 168.445312 134.632812 C 180.863281 134.632812 190.921875 124.574219 190.921875 112.160156 L 168.445312 112.160156 Z M 168.445312 134.632812 "/><g clip-rule="nonzero" clip-path="url(#2cb8f9e5ac)"><path style=" stroke:none;fill-rule:evenodd;fill:#eff0ee;fill-opacity:1;" d="M 28.246094 140.203125 C 27.414062 122.335938 16.429688 114.632812 0.207031 112.160156 C 2.667969 128.382812 10.382812 139.367188 28.246094 140.203125 Z M 28.246094 140.203125 "/></g><g clip-rule="nonzero" clip-path="url(#3d88b7c6c7)"><path style=" stroke:none;fill-rule:evenodd;fill:#eff0ee;fill-opacity:1;" d="M 28.246094 140.203125 C 27.414062 158.066406 16.429688 165.78125 0.207031 168.242188 C 2.667969 152.019531 10.382812 141.035156 28.246094 140.203125 Z M 28.246094 140.203125 "/></g><path style=" stroke:none;fill-rule:evenodd;fill:#eff0ee;fill-opacity:1;" d="M 28.246094 140.203125 C 29.082031 122.335938 40.066406 114.632812 56.289062 112.160156 C 53.828125 128.382812 46.113281 139.367188 28.246094 140.203125 Z M 28.246094 140.203125 "/><g clip-rule="nonzero" clip-path="url(#8c6614f24f)"><path style=" stroke:none;fill-rule:evenodd;fill:#eff0ee;fill-opacity:1;" d="M 28.246094 140.203125 C 29.082031 158.066406 40.066406 165.78125 56.289062 168.242188 C 53.828125 152.019531 46.113281 141.035156 28.246094 140.203125 Z M 28.246094 140.203125 "/></g><g clip-rule="nonzero" clip-path="url(#b1edb4cb44)"><path style=" stroke:none;fill-rule:evenodd;fill:#393536;fill-opacity:1;" d="M 0.203125 112.160156 L 56.289062 56.085938 L 0.203125 56.085938 Z M 0.203125 112.160156 "/></g><g clip-rule="nonzero" clip-path="url(#632f026a84)"><path style=" stroke:none;fill-rule:evenodd;fill:#fff0b7;fill-opacity:1;" d="M 0.203125 0 L 56.289062 0 L 56.289062 56.085938 L 0.203125 56.085938 Z M 0.203125 0 "/></g><path style=" stroke:none;fill-rule:evenodd;fill:#902b29;fill-opacity:1;" d="M 28.246094 49.378906 C 40.007812 49.378906 49.585938 39.800781 49.585938 28.042969 C 49.585938 16.285156 40.007812 6.707031 28.246094 6.707031 C 16.488281 6.707031 6.910156 16.285156 6.910156 28.042969 C 6.910156 39.800781 16.488281 49.378906 28.246094 49.378906 Z M 28.246094 49.378906 "/><path style=" stroke:none;fill-rule:evenodd;fill:#902b29;fill-opacity:1;" d="M 83.148438 112.160156 L 56.289062 112.160156 L 56.289062 85.3125 C 71.121094 85.3125 83.148438 97.328125 83.148438 112.160156 Z M 83.148438 112.160156 "/><path style=" stroke:none;fill-rule:nonzero;fill:#f7941e;fill-opacity:1;" d="M 136.164062 81.960938 L 136.160156 81.960938 C 136.054688 81.855469 136.046875 81.742188 136.136719 81.621094 C 144.34375 70.46875 125.171875 70.46875 133.378906 81.621094 C 133.46875 81.742188 133.460938 81.855469 133.355469 81.960938 C 133.25 82.066406 133.136719 82.078125 133.015625 81.988281 C 121.855469 73.78125 121.855469 92.953125 133.011719 84.742188 C 133.132812 84.65625 133.246094 84.664062 133.351562 84.769531 L 133.351562 84.773438 C 133.457031 84.878906 133.464844 84.992188 133.378906 85.113281 C 125.171875 96.265625 144.339844 96.265625 136.132812 85.113281 C 136.042969 84.992188 136.054688 84.878906 136.160156 84.773438 L 136.164062 84.769531 C 136.269531 84.664062 136.382812 84.65625 136.5 84.742188 C 147.65625 92.949219 147.65625 73.78125 136.5 81.988281 C 136.382812 82.074219 136.269531 82.066406 136.164062 81.960938 Z M 136.164062 81.960938 "/></g></svg>