<svg xmlns="http://www.w3.org/2000/svg" xmlns:xlink="http://www.w3.org/1999/xlink" width="1123" zoomAndPan="magnify" viewBox="0 0 842.25 595.499986" height="794" preserveAspectRatio="xMidYMid meet" version="1.2"><defs/><g id="ce388984ad"><g style="fill:#fff0b7;fill-opacity:1;"><g transform="translate(195.080503, 190.315251)"><path style="stroke:none" d="M 14.875 -17.6875 C 14.875 -16.289062 15.101562 -15.0625 15.5625 -14 C 16.019531 -12.9375 16.640625 -12.054688 17.421875 -11.359375 C 18.203125 -10.660156 19.09375 -10.128906 20.09375 -9.765625 C 21.09375 -9.410156 22.128906 -9.234375 23.203125 -9.234375 C 24.609375 -9.234375 25.816406 -9.332031 26.828125 -9.53125 C 27.847656 -9.726562 28.757812 -10.007812 29.5625 -10.375 C 30 -10.570312 30.488281 -10.8125 31.03125 -11.09375 C 31.570312 -11.375 32.125 -11.554688 32.6875 -11.640625 C 33.757812 -11.835938 34.734375 -11.753906 35.609375 -11.390625 C 36.492188 -11.035156 37.238281 -10.359375 37.84375 -9.359375 C 38.601562 -8.117188 38.789062 -6.878906 38.40625 -5.640625 C 38.03125 -4.398438 37.320312 -3.359375 36.28125 -2.515625 C 34.601562 -1.160156 32.582031 -0.175781 30.21875 0.4375 C 27.863281 1.0625 25.523438 1.375 23.203125 1.375 C 20.609375 1.375 18.070312 1.035156 15.59375 0.359375 C 13.113281 -0.316406 10.90625 -1.40625 8.96875 -2.90625 C 7.03125 -4.40625 5.46875 -6.320312 4.28125 -8.65625 C 3.101562 -11 2.515625 -13.832031 2.515625 -17.15625 L 2.515625 -29.625 C 2.515625 -32.945312 3.101562 -35.773438 4.28125 -38.109375 C 5.46875 -40.453125 7.03125 -42.367188 8.96875 -43.859375 C 10.90625 -45.359375 13.113281 -46.445312 15.59375 -47.125 C 18.070312 -47.8125 20.609375 -48.15625 23.203125 -48.15625 C 25.878906 -48.15625 28.226562 -47.875 30.25 -47.3125 C 32.269531 -46.75 33.859375 -46.050781 35.015625 -45.21875 C 36.253906 -44.332031 37.113281 -43.238281 37.59375 -41.9375 C 38.070312 -40.644531 37.953125 -39.359375 37.234375 -38.078125 C 36.640625 -37.035156 35.84375 -36.296875 34.84375 -35.859375 C 33.84375 -35.421875 32.820312 -35.300781 31.78125 -35.5 C 31.101562 -35.625 30.492188 -35.816406 29.953125 -36.078125 C 29.410156 -36.335938 28.921875 -36.566406 28.484375 -36.765625 C 27.765625 -37.046875 27.015625 -37.242188 26.234375 -37.359375 C 25.453125 -37.484375 24.441406 -37.546875 23.203125 -37.546875 C 22.128906 -37.546875 21.09375 -37.363281 20.09375 -37 C 19.09375 -36.644531 18.203125 -36.113281 17.421875 -35.40625 C 16.640625 -34.707031 16.019531 -33.828125 15.5625 -32.765625 C 15.101562 -31.710938 14.875 -30.484375 14.875 -29.078125 Z M 14.875 -17.6875 "/></g></g><g style="fill:#fff0b7;fill-opacity:1;"><g transform="translate(238.91795, 190.315251)"><path style="stroke:none" d="M 15.53125 -29.265625 L 31.90625 -29.265625 C 32.78125 -29.265625 33.515625 -29.101562 34.109375 -28.78125 C 34.710938 -28.46875 35.210938 -28.050781 35.609375 -27.53125 C 36.015625 -27.007812 36.304688 -26.4375 36.484375 -25.8125 C 36.671875 -25.195312 36.765625 -24.585938 36.765625 -23.984375 C 36.765625 -23.390625 36.671875 -22.789062 36.484375 -22.1875 C 36.304688 -21.582031 36.023438 -21.03125 35.640625 -20.53125 C 35.265625 -20.039062 34.765625 -19.644531 34.140625 -19.34375 C 33.523438 -19.039062 32.78125 -18.890625 31.90625 -18.890625 L 15.53125 -18.890625 L 15.53125 -11.875 C 15.53125 -11.15625 15.648438 -10.6875 15.890625 -10.46875 C 16.128906 -10.25 16.585938 -10.140625 17.265625 -10.140625 L 33.046875 -10.140625 C 33.921875 -10.140625 34.664062 -9.988281 35.28125 -9.6875 C 35.90625 -9.382812 36.40625 -8.984375 36.78125 -8.484375 C 37.164062 -7.984375 37.445312 -7.421875 37.625 -6.796875 C 37.8125 -6.179688 37.90625 -5.578125 37.90625 -4.984375 C 37.90625 -4.378906 37.8125 -3.753906 37.625 -3.109375 C 37.445312 -2.472656 37.15625 -1.894531 36.75 -1.375 C 36.351562 -0.851562 35.851562 -0.429688 35.25 -0.109375 C 34.65625 0.203125 33.921875 0.359375 33.046875 0.359375 L 12.59375 0.359375 C 10.789062 0.359375 9.289062 0.191406 8.09375 -0.140625 C 6.894531 -0.484375 5.9375 -1.035156 5.21875 -1.796875 C 4.5 -2.554688 3.988281 -3.535156 3.6875 -4.734375 C 3.382812 -5.929688 3.234375 -7.390625 3.234375 -9.109375 L 3.234375 -38.4375 C 3.234375 -40.15625 3.382812 -41.613281 3.6875 -42.8125 C 3.988281 -44.007812 4.5 -44.988281 5.21875 -45.75 C 5.9375 -46.507812 6.894531 -47.0625 8.09375 -47.40625 C 9.289062 -47.75 10.789062 -47.921875 12.59375 -47.921875 L 32.4375 -47.921875 C 33.320312 -47.921875 34.0625 -47.757812 34.65625 -47.4375 C 35.257812 -47.113281 35.757812 -46.691406 36.15625 -46.171875 C 36.5625 -45.648438 36.851562 -45.070312 37.03125 -44.4375 C 37.207031 -43.800781 37.296875 -43.179688 37.296875 -42.578125 C 37.296875 -41.972656 37.207031 -41.359375 37.03125 -40.734375 C 36.851562 -40.117188 36.570312 -39.5625 36.1875 -39.0625 C 35.8125 -38.5625 35.3125 -38.160156 34.6875 -37.859375 C 34.070312 -37.566406 33.320312 -37.421875 32.4375 -37.421875 L 17.265625 -37.421875 C 16.585938 -37.421875 16.128906 -37.3125 15.890625 -37.09375 C 15.648438 -36.875 15.53125 -36.40625 15.53125 -35.6875 Z M 15.53125 -29.265625 "/></g></g><g style="fill:#fff0b7;fill-opacity:1;"><g transform="translate(282.275643, 190.315251)"><path style="stroke:none" d="M 41.625 -31.546875 C 41.625 -28.660156 40.953125 -26.148438 39.609375 -24.015625 C 38.265625 -21.878906 36.515625 -20.128906 34.359375 -18.765625 L 45.75 0.359375 L 32.203125 0.359375 L 23.203125 -15.765625 L 15.53125 -15.765625 L 15.53125 0.359375 L 3.234375 0.359375 L 3.234375 -38.4375 C 3.234375 -40.15625 3.382812 -41.613281 3.6875 -42.8125 C 3.988281 -44.007812 4.5 -44.988281 5.21875 -45.75 C 5.9375 -46.507812 6.894531 -47.0625 8.09375 -47.40625 C 9.289062 -47.75 10.789062 -47.921875 12.59375 -47.921875 L 23.625 -47.921875 C 26.226562 -47.921875 28.628906 -47.609375 30.828125 -46.984375 C 33.023438 -46.367188 34.921875 -45.410156 36.515625 -44.109375 C 38.117188 -42.804688 39.367188 -41.175781 40.265625 -39.21875 C 41.171875 -37.257812 41.625 -34.941406 41.625 -32.265625 Z M 15.53125 -25.90625 L 23.328125 -25.90625 C 25.367188 -25.90625 26.894531 -26.460938 27.90625 -27.578125 C 28.925781 -28.703125 29.4375 -30.023438 29.4375 -31.546875 L 29.4375 -31.96875 C 29.4375 -33.476562 28.925781 -34.789062 27.90625 -35.90625 C 26.894531 -37.03125 25.367188 -37.59375 23.328125 -37.59375 L 17.265625 -37.59375 C 16.585938 -37.59375 16.128906 -37.484375 15.890625 -37.265625 C 15.648438 -37.046875 15.53125 -36.578125 15.53125 -35.859375 Z M 15.53125 -25.90625 "/></g></g><g style="fill:#fff0b7;fill-opacity:1;"><g transform="translate(330.790692, 190.315251)"><path style="stroke:none" d="M 14.03125 0.359375 L 14.03125 -37.296875 L 4.859375 -37.296875 C 3.972656 -37.296875 3.21875 -37.457031 2.59375 -37.78125 C 1.976562 -38.101562 1.484375 -38.519531 1.109375 -39.03125 C 0.734375 -39.550781 0.453125 -40.128906 0.265625 -40.765625 C 0.0859375 -41.410156 0 -42.035156 0 -42.640625 C 0 -43.234375 0.0859375 -43.835938 0.265625 -44.453125 C 0.453125 -45.078125 0.734375 -45.640625 1.109375 -46.140625 C 1.484375 -46.640625 1.976562 -47.039062 2.59375 -47.34375 C 3.21875 -47.644531 3.972656 -47.796875 4.859375 -47.796875 L 35.6875 -47.796875 C 36.5625 -47.796875 37.304688 -47.644531 37.921875 -47.34375 C 38.546875 -47.039062 39.046875 -46.640625 39.421875 -46.140625 C 39.804688 -45.640625 40.085938 -45.078125 40.265625 -44.453125 C 40.441406 -43.835938 40.53125 -43.234375 40.53125 -42.640625 C 40.53125 -42.035156 40.441406 -41.410156 40.265625 -40.765625 C 40.085938 -40.128906 39.796875 -39.550781 39.390625 -39.03125 C 38.992188 -38.519531 38.492188 -38.101562 37.890625 -37.78125 C 37.296875 -37.457031 36.5625 -37.296875 35.6875 -37.296875 L 26.5 -37.296875 L 26.5 0.359375 Z M 14.03125 0.359375 "/></g></g><g style="fill:#fff0b7;fill-opacity:1;"><g transform="translate(374.987963, 190.315251)"><path style="stroke:none" d="M 3.0625 -42.15625 C 3.0625 -44.238281 3.679688 -45.757812 4.921875 -46.71875 C 6.160156 -47.675781 7.617188 -48.15625 9.296875 -48.15625 C 10.972656 -48.15625 12.429688 -47.675781 13.671875 -46.71875 C 14.910156 -45.757812 15.53125 -44.238281 15.53125 -42.15625 L 15.53125 0.359375 L 3.0625 0.359375 Z M 3.0625 -42.15625 "/></g></g><g style="fill:#fff0b7;fill-opacity:1;"><g transform="translate(397.236513, 190.315251)"><path style="stroke:none" d="M 3.234375 0.359375 L 3.234375 -38.4375 C 3.234375 -40.15625 3.382812 -41.613281 3.6875 -42.8125 C 3.988281 -44.007812 4.5 -44.988281 5.21875 -45.75 C 5.9375 -46.507812 6.894531 -47.0625 8.09375 -47.40625 C 9.289062 -47.75 10.789062 -47.921875 12.59375 -47.921875 L 32.5625 -47.921875 C 33.4375 -47.921875 34.175781 -47.757812 34.78125 -47.4375 C 35.382812 -47.113281 35.882812 -46.691406 36.28125 -46.171875 C 36.675781 -45.648438 36.960938 -45.070312 37.140625 -44.4375 C 37.328125 -43.800781 37.421875 -43.179688 37.421875 -42.578125 C 37.421875 -41.972656 37.328125 -41.359375 37.140625 -40.734375 C 36.960938 -40.117188 36.679688 -39.5625 36.296875 -39.0625 C 35.921875 -38.5625 35.421875 -38.160156 34.796875 -37.859375 C 34.179688 -37.566406 33.4375 -37.421875 32.5625 -37.421875 L 17.328125 -37.421875 C 16.648438 -37.421875 16.191406 -37.3125 15.953125 -37.09375 C 15.710938 -36.875 15.59375 -36.40625 15.59375 -35.6875 L 15.59375 -28.125 L 31 -28.125 C 31.882812 -28.125 32.625 -27.960938 33.21875 -27.640625 C 33.820312 -27.328125 34.320312 -26.910156 34.71875 -26.390625 C 35.125 -25.867188 35.414062 -25.285156 35.59375 -24.640625 C 35.769531 -24.003906 35.859375 -23.382812 35.859375 -22.78125 C 35.859375 -22.1875 35.769531 -21.578125 35.59375 -20.953125 C 35.414062 -20.335938 35.132812 -19.78125 34.75 -19.28125 C 34.375 -18.78125 33.875 -18.378906 33.25 -18.078125 C 32.632812 -17.773438 31.882812 -17.625 31 -17.625 L 15.59375 -17.625 L 15.59375 0.359375 Z M 3.234375 0.359375 "/></g></g><g style="fill:#fff0b7;fill-opacity:1;"><g transform="translate(439.514758, 190.315251)"><path style="stroke:none" d="M 3.0625 -42.15625 C 3.0625 -44.238281 3.679688 -45.757812 4.921875 -46.71875 C 6.160156 -47.675781 7.617188 -48.15625 9.296875 -48.15625 C 10.972656 -48.15625 12.429688 -47.675781 13.671875 -46.71875 C 14.910156 -45.757812 15.53125 -44.238281 15.53125 -42.15625 L 15.53125 0.359375 L 3.0625 0.359375 Z M 3.0625 -42.15625 "/></g></g><g style="fill:#fff0b7;fill-opacity:1;"><g transform="translate(461.763332, 190.315251)"><path style="stroke:none" d="M 14.875 -17.6875 C 14.875 -16.289062 15.101562 -15.0625 15.5625 -14 C 16.019531 -12.9375 16.640625 -12.054688 17.421875 -11.359375 C 18.203125 -10.660156 19.09375 -10.128906 20.09375 -9.765625 C 21.09375 -9.410156 22.128906 -9.234375 23.203125 -9.234375 C 24.609375 -9.234375 25.816406 -9.332031 26.828125 -9.53125 C 27.847656 -9.726562 28.757812 -10.007812 29.5625 -10.375 C 30 -10.570312 30.488281 -10.8125 31.03125 -11.09375 C 31.570312 -11.375 32.125 -11.554688 32.6875 -11.640625 C 33.757812 -11.835938 34.734375 -11.753906 35.609375 -11.390625 C 36.492188 -11.035156 37.238281 -10.359375 37.84375 -9.359375 C 38.601562 -8.117188 38.789062 -6.878906 38.40625 -5.640625 C 38.03125 -4.398438 37.320312 -3.359375 36.28125 -2.515625 C 34.601562 -1.160156 32.582031 -0.175781 30.21875 0.4375 C 27.863281 1.0625 25.523438 1.375 23.203125 1.375 C 20.609375 1.375 18.070312 1.035156 15.59375 0.359375 C 13.113281 -0.316406 10.90625 -1.40625 8.96875 -2.90625 C 7.03125 -4.40625 5.46875 -6.320312 4.28125 -8.65625 C 3.101562 -11 2.515625 -13.832031 2.515625 -17.15625 L 2.515625 -29.625 C 2.515625 -32.945312 3.101562 -35.773438 4.28125 -38.109375 C 5.46875 -40.453125 7.03125 -42.367188 8.96875 -43.859375 C 10.90625 -45.359375 13.113281 -46.445312 15.59375 -47.125 C 18.070312 -47.8125 20.609375 -48.15625 23.203125 -48.15625 C 25.878906 -48.15625 28.226562 -47.875 30.25 -47.3125 C 32.269531 -46.75 33.859375 -46.050781 35.015625 -45.21875 C 36.253906 -44.332031 37.113281 -43.238281 37.59375 -41.9375 C 38.070312 -40.644531 37.953125 -39.359375 37.234375 -38.078125 C 36.640625 -37.035156 35.84375 -36.296875 34.84375 -35.859375 C 33.84375 -35.421875 32.820312 -35.300781 31.78125 -35.5 C 31.101562 -35.625 30.492188 -35.816406 29.953125 -36.078125 C 29.410156 -36.335938 28.921875 -36.566406 28.484375 -36.765625 C 27.765625 -37.046875 27.015625 -37.242188 26.234375 -37.359375 C 25.453125 -37.484375 24.441406 -37.546875 23.203125 -37.546875 C 22.128906 -37.546875 21.09375 -37.363281 20.09375 -37 C 19.09375 -36.644531 18.203125 -36.113281 17.421875 -35.40625 C 16.640625 -34.707031 16.019531 -33.828125 15.5625 -32.765625 C 15.101562 -31.710938 14.875 -30.484375 14.875 -29.078125 Z M 14.875 -17.6875 "/></g></g><g style="fill:#fff0b7;fill-opacity:1;"><g transform="translate(505.600766, 190.315251)"><path style="stroke:none" d="M 15.40625 -43.171875 C 16.007812 -44.859375 17.039062 -46.109375 18.5 -46.921875 C 19.957031 -47.742188 21.503906 -48.15625 23.140625 -48.15625 C 24.660156 -48.15625 26.128906 -47.734375 27.546875 -46.890625 C 28.972656 -46.054688 29.96875 -44.816406 30.53125 -43.171875 L 46.171875 0.359375 L 32.984375 0.359375 L 30.640625 -7.078125 L 15.234375 -7.078125 L 12.953125 0.359375 L 0 0.359375 Z M 18.34375 -17.21875 L 27.53125 -17.21875 L 22.96875 -32.140625 Z M 18.34375 -17.21875 "/></g></g><g style="fill:#fff0b7;fill-opacity:1;"><g transform="translate(555.435123, 190.315251)"><path style="stroke:none" d="M 14.03125 0.359375 L 14.03125 -37.296875 L 4.859375 -37.296875 C 3.972656 -37.296875 3.21875 -37.457031 2.59375 -37.78125 C 1.976562 -38.101562 1.484375 -38.519531 1.109375 -39.03125 C 0.734375 -39.550781 0.453125 -40.128906 0.265625 -40.765625 C 0.0859375 -41.410156 0 -42.035156 0 -42.640625 C 0 -43.234375 0.0859375 -43.835938 0.265625 -44.453125 C 0.453125 -45.078125 0.734375 -45.640625 1.109375 -46.140625 C 1.484375 -46.640625 1.976562 -47.039062 2.59375 -47.34375 C 3.21875 -47.644531 3.972656 -47.796875 4.859375 -47.796875 L 35.6875 -47.796875 C 36.5625 -47.796875 37.304688 -47.644531 37.921875 -47.34375 C 38.546875 -47.039062 39.046875 -46.640625 39.421875 -46.140625 C 39.804688 -45.640625 40.085938 -45.078125 40.265625 -44.453125 C 40.441406 -43.835938 40.53125 -43.234375 40.53125 -42.640625 C 40.53125 -42.035156 40.441406 -41.410156 40.265625 -40.765625 C 40.085938 -40.128906 39.796875 -39.550781 39.390625 -39.03125 C 38.992188 -38.519531 38.492188 -38.101562 37.890625 -37.78125 C 37.296875 -37.457031 36.5625 -37.296875 35.6875 -37.296875 L 26.5 -37.296875 L 26.5 0.359375 Z M 14.03125 0.359375 "/></g></g><g style="fill:#fff0b7;fill-opacity:1;"><g transform="translate(599.632404, 190.315251)"><path style="stroke:none" d="M 15.53125 -29.265625 L 31.90625 -29.265625 C 32.78125 -29.265625 33.515625 -29.101562 34.109375 -28.78125 C 34.710938 -28.46875 35.210938 -28.050781 35.609375 -27.53125 C 36.015625 -27.007812 36.304688 -26.4375 36.484375 -25.8125 C 36.671875 -25.195312 36.765625 -24.585938 36.765625 -23.984375 C 36.765625 -23.390625 36.671875 -22.789062 36.484375 -22.1875 C 36.304688 -21.582031 36.023438 -21.03125 35.640625 -20.53125 C 35.265625 -20.039062 34.765625 -19.644531 34.140625 -19.34375 C 33.523438 -19.039062 32.78125 -18.890625 31.90625 -18.890625 L 15.53125 -18.890625 L 15.53125 -11.875 C 15.53125 -11.15625 15.648438 -10.6875 15.890625 -10.46875 C 16.128906 -10.25 16.585938 -10.140625 17.265625 -10.140625 L 33.046875 -10.140625 C 33.921875 -10.140625 34.664062 -9.988281 35.28125 -9.6875 C 35.90625 -9.382812 36.40625 -8.984375 36.78125 -8.484375 C 37.164062 -7.984375 37.445312 -7.421875 37.625 -6.796875 C 37.8125 -6.179688 37.90625 -5.578125 37.90625 -4.984375 C 37.90625 -4.378906 37.8125 -3.753906 37.625 -3.109375 C 37.445312 -2.472656 37.15625 -1.894531 36.75 -1.375 C 36.351562 -0.851562 35.851562 -0.429688 35.25 -0.109375 C 34.65625 0.203125 33.921875 0.359375 33.046875 0.359375 L 12.59375 0.359375 C 10.789062 0.359375 9.289062 0.191406 8.09375 -0.140625 C 6.894531 -0.484375 5.9375 -1.035156 5.21875 -1.796875 C 4.5 -2.554688 3.988281 -3.535156 3.6875 -4.734375 C 3.382812 -5.929688 3.234375 -7.390625 3.234375 -9.109375 L 3.234375 -38.4375 C 3.234375 -40.15625 3.382812 -41.613281 3.6875 -42.8125 C 3.988281 -44.007812 4.5 -44.988281 5.21875 -45.75 C 5.9375 -46.507812 6.894531 -47.0625 8.09375 -47.40625 C 9.289062 -47.75 10.789062 -47.921875 12.59375 -47.921875 L 32.4375 -47.921875 C 33.320312 -47.921875 34.0625 -47.757812 34.65625 -47.4375 C 35.257812 -47.113281 35.757812 -46.691406 36.15625 -46.171875 C 36.5625 -45.648438 36.851562 -45.070312 37.03125 -44.4375 C 37.207031 -43.800781 37.296875 -43.179688 37.296875 -42.578125 C 37.296875 -41.972656 37.207031 -41.359375 37.03125 -40.734375 C 36.851562 -40.117188 36.570312 -39.5625 36.1875 -39.0625 C 35.8125 -38.5625 35.3125 -38.160156 34.6875 -37.859375 C 34.070312 -37.566406 33.320312 -37.421875 32.4375 -37.421875 L 17.265625 -37.421875 C 16.585938 -37.421875 16.128906 -37.3125 15.890625 -37.09375 C 15.648438 -36.875 15.53125 -36.40625 15.53125 -35.6875 Z M 15.53125 -29.265625 "/></g></g></g></svg>