<svg xmlns="http://www.w3.org/2000/svg" xmlns:xlink="http://www.w3.org/1999/xlink" width="1123" zoomAndPan="magnify" viewBox="0 0 842.25 595.499986" height="794" preserveAspectRatio="xMidYMid meet" version="1.2"><defs><clipPath id="f08e5b9a66"><path d="M 198 322.171875 L 643.429688 322.171875 L 643.429688 338.597656 L 198 338.597656 Z M 198 322.171875 "/></clipPath><clipPath id="34594afb5a"><path d="M 194.6875 323.097656 L 232.777344 323.097656 L 232.777344 338.597656 L 194.6875 338.597656 Z M 194.6875 323.097656 "/></clipPath><clipPath id="00e21ee1be"><path d="M 610 322.171875 L 647 322.171875 L 647 338.597656 L 610 338.597656 Z M 610 322.171875 "/></clipPath><clipPath id="5c8f059af6"><path d="M 198 322.171875 L 643.429688 322.171875 L 643.429688 338.597656 L 198 338.597656 Z M 198 322.171875 "/></clipPath><clipPath id="1f8c2d1323"><path d="M 177.964844 325 L 663.519531 325 L 663.519531 337 L 177.964844 337 Z M 177.964844 325 "/></clipPath></defs><g id="23da8dd135"><path style=" stroke:none;fill-rule:nonzero;fill:#fff0b7;fill-opacity:1;" d="M 440.738281 330.390625 C 440.800781 330.710938 440.808594 331.035156 440.769531 331.359375 L 612.316406 331.359375 L 612.316406 330.390625 Z M 435.378906 330.390625 L 426.71875 330.390625 C 426.746094 330.714844 426.746094 331.035156 426.714844 331.359375 L 435.347656 331.359375 C 435.308594 331.035156 435.3125 330.710938 435.378906 330.390625 Z M 400.824219 330.390625 L 231.359375 330.390625 L 231.359375 331.359375 L 400.839844 331.359375 C 400.78125 331.039062 400.777344 330.710938 400.824219 330.390625 Z M 406.242188 330.390625 L 415.289062 330.390625 C 415.265625 330.714844 415.265625 331.035156 415.292969 331.359375 L 406.222656 331.359375 C 406.28125 331.039062 406.285156 330.710938 406.242188 330.390625 "/><g clip-rule="nonzero" clip-path="url(#f08e5b9a66)"><path style=" stroke:none;fill-rule:nonzero;fill:#fff0b7;fill-opacity:1;" d="M 643.34375 337.625 L 627.75 330.871094 L 643.34375 324.125 L 642.925781 323.242188 L 625.289062 330.871094 L 642.925781 338.507812 Z M 198.742188 338.511719 L 198.339844 337.621094 L 214.941406 330.847656 L 198.320312 323.148438 L 198.761719 322.273438 L 217.390625 330.902344 L 198.742188 338.511719 "/></g><g clip-rule="nonzero" clip-path="url(#34594afb5a)"><path style=" stroke:none;fill-rule:nonzero;fill:#fff0b7;fill-opacity:1;" d="M 197.398438 330.871094 L 213.734375 337.539062 L 230.0625 330.871094 L 213.734375 324.210938 Z M 213.734375 338.59375 L 194.808594 330.871094 L 213.734375 323.15625 L 232.652344 330.871094 L 213.734375 338.59375 "/></g><g clip-rule="nonzero" clip-path="url(#00e21ee1be)"><path style=" stroke:none;fill-rule:nonzero;fill:#fff0b7;fill-opacity:1;" d="M 612.554688 330.847656 L 628.949219 337.535156 L 644.402344 330.847656 L 628.949219 323.253906 Z M 628.960938 338.597656 L 610.105469 330.902344 L 628.964844 322.171875 L 646.738281 330.902344 L 628.960938 338.597656 "/></g><g clip-rule="nonzero" clip-path="url(#5c8f059af6)"><path style=" stroke:none;fill-rule:nonzero;fill:#fff0b7;fill-opacity:1;" d="M 625.929688 331.152344 L 642.925781 338.507812 L 643.34375 337.625 L 627.773438 330.882812 C 627.164062 330.984375 626.546875 331.070312 625.929688 331.152344 Z M 214.941406 330.847656 L 198.320312 323.148438 L 198.761719 322.273438 L 217.375 330.894531 C 216.457031 330.898438 215.546875 330.917969 214.644531 330.972656 L 214.941406 330.847656 "/></g><path style=" stroke:none;fill-rule:nonzero;fill:#fff0b7;fill-opacity:1;" d="M 438.023438 328.71875 C 436.785156 328.71875 435.773438 329.683594 435.773438 330.875 C 435.773438 332.066406 436.785156 333.03125 438.023438 333.03125 C 439.265625 333.03125 440.277344 332.066406 440.277344 330.875 C 440.277344 329.683594 439.265625 328.71875 438.023438 328.71875 Z M 438.023438 334.003906 C 436.226562 334.003906 434.757812 332.601562 434.757812 330.875 C 434.757812 329.148438 436.226562 327.746094 438.023438 327.746094 C 439.824219 327.746094 441.289062 329.148438 441.289062 330.875 C 441.289062 332.601562 439.824219 334.003906 438.023438 334.003906 Z M 653.671875 328.71875 C 652.433594 328.71875 651.417969 329.683594 651.417969 330.875 C 651.417969 332.066406 652.433594 333.03125 653.671875 333.03125 C 654.914062 333.03125 655.921875 332.066406 655.921875 330.875 C 655.921875 329.683594 654.914062 328.71875 653.671875 328.71875 Z M 653.671875 334.003906 C 651.871094 334.003906 650.40625 332.601562 650.40625 330.875 C 650.40625 329.148438 651.871094 327.746094 653.671875 327.746094 C 655.472656 327.746094 656.9375 329.148438 656.9375 330.875 C 656.9375 332.601562 655.472656 334.003906 653.671875 334.003906 Z M 187.808594 328.71875 C 186.566406 328.71875 185.558594 329.683594 185.558594 330.875 C 185.558594 332.066406 186.566406 333.03125 187.808594 333.03125 C 189.050781 333.03125 190.0625 332.066406 190.0625 330.875 C 190.0625 329.683594 189.050781 328.71875 187.808594 328.71875 Z M 187.808594 334.003906 C 186.007812 334.003906 184.546875 332.601562 184.546875 330.875 C 184.546875 329.148438 186.007812 327.746094 187.808594 327.746094 C 189.609375 327.746094 191.074219 329.148438 191.074219 330.875 C 191.074219 332.601562 189.609375 334.003906 187.808594 334.003906 Z M 403.527344 328.71875 C 402.285156 328.71875 401.273438 329.683594 401.273438 330.875 C 401.273438 332.066406 402.285156 333.03125 403.527344 333.03125 C 404.765625 333.03125 405.777344 332.066406 405.777344 330.875 C 405.777344 329.683594 404.765625 328.71875 403.527344 328.71875 Z M 403.527344 334.003906 C 401.726562 334.003906 400.257812 332.601562 400.257812 330.875 C 400.257812 329.148438 401.726562 327.746094 403.527344 327.746094 C 405.324219 327.746094 406.789062 329.148438 406.789062 330.875 C 406.789062 332.601562 405.324219 334.003906 403.527344 334.003906 "/><g clip-rule="nonzero" clip-path="url(#1f8c2d1323)"><path style=" stroke:none;fill-rule:nonzero;fill:#fff0b7;fill-opacity:1;" d="M 421.066406 325.378906 C 417.820312 325.378906 415.195312 327.839844 415.195312 330.875 C 415.195312 333.910156 417.820312 336.371094 421.066406 336.371094 C 424.308594 336.371094 426.9375 333.910156 426.9375 330.875 C 426.9375 327.839844 424.308594 325.378906 421.066406 325.378906 Z M 659.957031 330.875 C 659.957031 331.816406 660.757812 332.582031 661.738281 332.582031 C 662.71875 332.582031 663.519531 331.816406 663.519531 330.875 C 663.519531 329.933594 662.71875 329.167969 661.738281 329.167969 C 660.757812 329.167969 659.957031 329.933594 659.957031 330.875 Z M 181.523438 330.875 C 181.523438 331.816406 180.726562 332.582031 179.742188 332.582031 C 178.761719 332.582031 177.964844 331.816406 177.964844 330.875 C 177.964844 329.933594 178.761719 329.167969 179.742188 329.167969 C 180.726562 329.167969 181.523438 329.933594 181.523438 330.875 "/></g></g></svg>