<svg width="330" height="365" viewBox="0 0 330 365" fill="none" xmlns="http://www.w3.org/2000/svg">
<path d="M1.22461 216.719C77.7138 78.8781 94 20.8674 95.7574 1.57107C96.0556 -1.70397 98.6631 64.1927 102.108 149.451C103.287 178.62 112.444 178.439 117.716 177.291C126.874 175.296 132.279 168.034 136.908 159.943C147.85 140.815 146.199 122.83 146.808 103.116C147.065 94.8136 143.902 85.6988 143.902 79.2957C143.902 64.7068 150.862 148.999 145.086 202.555C133.865 306.585 138.126 321.048 130.592 337.873C123.675 353.321 107.989 361.693 98.7327 363.451C94.1209 364.326 89.4761 359.466 86.5355 355.395C67.0154 328.367 83.5601 273.651 88.7801 249.865C92.6299 232.323 113.627 215.675 132.819 208.61C149.382 202.514 167.009 193.542 181.555 187.748C185.019 186.369 186.775 181.989 187.959 189.975C189.142 197.962 189.142 217.484 190.864 226.967C192.587 236.45 196.032 235.302 198.955 232.413C212.127 219.398 215.798 202.869 219.278 194.726C223.805 184.133 216.981 221.278 219.852 231.161C222.374 239.843 237.826 217.937 243.046 212.682C244.343 211.376 244.821 220.06 245.969 225.332C247.118 230.604 249.414 234.049 253.469 228.359C257.523 222.669 263.265 207.741 267.371 202.921C271.566 197.996 276.14 218.946 278.437 229.421C280.339 238.095 291.209 213.274 294.671 210.925C296.985 212.021 300.43 217.763 305.076 219.572C309.722 221.382 315.464 219.085 328.34 209.759" stroke="white" stroke-width="2" stroke-linecap="round"/>
<path d="M189.141 112.32C189.141 118.062 189.141 123.804 190.863 127.336C192.586 130.868 196.031 132.017 199.528 132.034C203.026 132.052 206.471 130.903 207.671 128.589C208.872 126.275 207.724 122.83 199.58 115.8" stroke="white" stroke-width="2" stroke-linecap="round"/>
<path d="M241.34 112.321C242.488 114.618 243.637 116.914 245.951 118.672C248.265 120.429 251.71 121.577 252.336 120.446C252.963 119.315 250.666 115.87 244.82 108.841" stroke="white" stroke-width="2" stroke-linecap="round"/>
</svg>
